<?xml version="1.0" encoding="utf-8"?>
<!-- Generator: Adobe Illustrator 28.0.0, SVG Export Plug-In . SVG Version: 6.00 Build 0)  -->
<svg version="1.1" id="Layer_2" xmlns="http://www.w3.org/2000/svg" xmlns:xlink="http://www.w3.org/1999/xlink" x="0px" y="0px"
	 viewBox="0 0 1190.55 841.89" style="enable-background:new 0 0 1190.55 841.89;" xml:space="preserve">
<g>
	<path fill="currentColor" d="M510.37,432.64c1.2,0,2.52,0.24,3.72,0.36c3,0.36,5.52,2.04,7.2,4.44l4.56,4.56c1.08,1.08,1.92,2.52,2.4,3.96
		c0.48,1.56,0.72,3,0.84,4.2c0.24,2.52,0.36,5.76,0.48,8.28c0,1.56-0.24,3.12-0.6,4.56c-1.2,3.72-3.72,6-7.44,6.6
		c-0.96,0.24-2.04,0.36-3.12,0.36l-19.44,0.24h-0.24c-2.16,0.12-4.08,0.24-6.24,0.48l-3.84,0.24h-0.24l-7.2,0.24
		c-2.76-0.24-4.92-0.96-6.48-2.52l-4.68-4.68c-1.92-1.2-3.24-3.12-3.96-5.64c-0.48-1.32-0.6-2.76-0.48-4.32c0-0.48,0-1.56,0.12-1.92
		c0-0.48,0.12-1.2,0.12-1.68c0.12-2.76,0.48-5.52,0.96-8.64c0.72-3.72,1.92-7.56,3.24-10.44c1.32-3.36,3.6-7.32,6.12-11.28
		l-0.12-0.12l1.8-2.88v0.12c0.72-1.32,1.68-2.64,2.4-3.96l2.76-4.2v0.12l0.48-0.72l5.28-7.08l0.6-0.96
		c-0.84,0.12-1.68,0.24-2.52,0.24h-4.2c-1.32,0-2.76-0.12-4.08-0.12c-0.72,0-1.44,0-2.4-0.24c-2.28-0.48-4.08-1.32-5.4-2.76
		l-4.44-4.32c-2.4-1.56-3.84-3.84-4.56-6.6c-0.48-1.8-0.72-3.84-0.72-6.12c0-4.56,0.24-9.36,1.08-14.04
		c0.72-4.44,2.76-8.64,5.04-12.12h-0.12c0.48-0.72,1.32-1.68,2.52-2.88c6.84-6.84,15.12-10.2,25.44-9.72l2.64,0.6
		c3.84,0.72,8.28,2.16,11.16,3.48c4.56,1.8,8.52,4.92,11.28,9l3,2.88c1.2,1.2,2.28,2.52,3.24,3.96c4.56,6.96,7.08,14.28,7.08,22.44
		c0,1.56,0,3-0.36,5.04h0.12c-1.2,9.96-4.68,18.84-10.2,27c-2.88,4.2-5.64,8.16-9.72,12.84
		C512.29,430.12,511.21,431.32,510.37,432.64z M482.41,459.28c3.48-0.24,6.84-0.6,10.32-0.72l19.68-0.24c0.72,0,1.44-0.12,2.04-0.24
		c1.56-0.24,2.64-1.2,3.12-2.76c0.24-0.84,0.36-1.8,0.36-2.76c-0.12-2.64-0.24-5.28-0.48-7.92c0-0.84-0.12-1.8-0.48-2.64
		c-0.48-1.68-1.8-2.76-3.6-3c-1.8-0.36-3.72-0.48-5.64-0.48c-2.4,0.12-4.8,0.48-7.2,0.72c-1.2,0.12-2.4,0.12-3.6,0.12
		c-0.48,0-1.08-0.12-1.68-0.24c-1.92-0.6-2.52-1.8-1.92-3.6c0.36-1.08,0.72-2.16,1.2-3.12c2.16-4.8,5.04-9.12,8.4-13.08
		c3.48-3.96,6.36-8.16,9.36-12.48c5.04-7.44,8.16-15.48,9.24-24.48c1.08-8.64-1.08-16.44-5.88-23.64c-2.28-3.36-5.4-5.88-9.12-7.44
		c-3.12-1.44-6.48-2.4-9.84-3.12l-2.76-0.48c-7.92-0.36-14.52,2.4-20.16,7.92c-0.6,0.6-1.2,1.32-1.68,2.04
		c-2.04,3-3.48,6.24-4.08,9.84c-0.72,4.32-0.96,8.64-0.96,12.96c0,1.56,0.24,3.12,0.6,4.68c0.36,1.92,1.56,3.12,3.48,3.48
		c0.48,0,0.96,0.24,1.44,0.24c2.76,0,5.4,0.12,8.16,0.12c2.64-0.12,4.08-1.68,4.2-4.32c0.12-0.6,0-1.2,0.12-1.92
		c0.12-1.92,0.12-3.84,0.36-5.64c0.24-1.92,0.84-3.72,1.68-5.52c2.16-4.08,6.72-4.56,9.96-3c2.64,1.2,4.08,3.48,4.68,6.24
		c0.72,4.08,0.72,8.16-0.36,12.12c-1.56,6.36-4.08,12.36-7.68,17.76l-5.04,6.96l-3.36,4.92c-1.44,2.16-2.64,4.32-3.96,6.36
		c-2.28,3.36-4.2,6.96-5.76,10.68c-1.32,3-2.28,6-2.88,9.12c-0.72,3.96-0.72,7.8-1.08,11.76c-0.12,0.6,0,1.2,0.24,1.92
		c0.36,1.92,1.68,3,3.6,3.12L482.41,459.28z"/>
	<path fill="currentColor" d="M545.29,459.88c-3.84-2.64-6.84-6.24-9.12-9.84c-1.32-2.28-2.16-4.68-2.76-7.32l-2.16-11.04
		c-0.48-2.16-0.6-4.08-0.72-6.24l-0.48-7.56c-0.36-5.4-0.6-11.88-0.48-17.28v-0.84c0.12-2.64,0.24-5.52,0.48-8.16
		c0.36-5.52,1.2-11.4,2.4-16.32c0-0.24,0.12-0.6,0.12-0.72l0.6-1.92c1.56-3.84,3.48-8.16,5.28-11.76c2.4-4.68,5.88-8.04,9.96-10.56
		c2.88-1.68,5.76-2.28,8.76-2.76c1.2-0.24,2.88-0.36,4.2-0.36c2.88,0,5.52,0.48,8.04,1.08c5.76,1.44,10.32,4.92,13.56,9.6l2.64,2.64
		l-0.36-0.36l0.72,0.6c2.28,2.28,4.08,4.92,5.4,7.92c2.16,4.92,3.36,10.92,3.72,16.2c0.36,4.32,0.48,9.12,0.48,13.68v7.32
		c0,2.16,0.12,4.8,0,6.96l-1.2,18.12c-0.12,1.92-0.12,3.48-0.12,5.28c-0.12,4.92-0.84,9.48-2.28,13.92
		c-1.68,5.64-5.16,10.32-9.6,14.16c-3.84,3.24-8.16,4.92-12.72,5.4l-4.44,0.24h-0.24c-4.8,0-9.24-1.44-13.08-4.08
		c-1.44-1.08-2.76-2.16-4.08-3.48L545.29,459.88z M583.45,379.36c-0.36-4.92-1.2-9.84-3.24-14.4c-2.4-5.52-6.36-9.36-12.24-10.8
		c-3.24-0.84-6.36-1.32-9.72-0.72c-2.28,0.36-4.56,0.84-6.6,2.04c-3.24,2.04-6,4.56-7.8,8.04c-1.8,3.6-3.36,7.32-4.92,11.16
		c-0.24,0.6-0.36,1.32-0.6,2.04c-1.08,5.04-1.92,10.2-2.28,15.36c-0.24,2.88-0.36,5.76-0.48,8.64c-0.24,8.16,0.6,16.2,0.96,24.36
		c0.12,1.8,0.24,3.6,0.6,5.28l2.16,11.04c0.48,1.92,1.08,3.72,2.04,5.4c2.16,3.24,4.8,6.24,7.92,8.52c2.88,2.04,6.12,3.12,9.72,3
		l4.08-0.24c3.6-0.36,6.84-1.68,9.72-4.08c3.72-3.12,6.36-7.08,7.8-11.64c1.32-3.96,1.92-8.04,2.04-12.24c0-1.8,0-3.6,0.12-5.52
		l1.2-18.12c0.12-3.24,0-6.6,0-9.84C584.05,390.88,583.93,385.12,583.45,379.36z M568.09,416.32c-0.12,2.64-0.24,5.4-0.48,8.16
		c-0.12,1.44-0.48,2.88-0.84,4.44c-0.36,1.08-0.96,1.92-1.68,2.76c-1.32,1.44-2.88,1.8-4.56,1.56c-1.2-0.24-2.04-1.08-2.64-2.04
		c-0.96-1.44-1.44-3-1.68-4.68c-0.24-1.56-0.24-3.12-0.48-4.8c-0.12-1.8-0.24-3.6-0.48-5.4c-0.24-2.28-0.48-4.56-0.48-6.96
		c-0.12-6.24-0.12-12.48,0.48-18.6c0.36-3.24,0.84-6.48,1.32-9.72c0.24-1.2,0.72-2.28,1.32-3.36c0.36-0.84,0.96-1.56,1.56-2.04
		c1.92-1.8,4.32-1.44,5.76,0.6c0.84,1.08,1.2,2.28,1.56,3.48c0.84,3.48,1.2,6.96,1.32,10.44v12.96h0.12
		C568.21,407.56,568.09,411.88,568.09,416.32z M568.45,434.2c-0.12,0-0.12-0.12-0.12-0.24c0,0.12,0,0.12,0.12,0.12V434.2z"/>
	<path fill="currentColor" d="M640.69,432.64c1.2,0,2.52,0.24,3.72,0.36c3,0.36,5.52,2.04,7.2,4.44l4.56,4.56c1.08,1.08,1.92,2.52,2.4,3.96
		c0.48,1.56,0.72,3,0.84,4.2c0.24,2.52,0.36,5.76,0.48,8.28c0,1.56-0.24,3.12-0.6,4.56c-1.2,3.72-3.72,6-7.44,6.6
		c-0.96,0.24-2.04,0.36-3.12,0.36l-19.44,0.24h-0.24c-2.16,0.12-4.08,0.24-6.24,0.48l-3.84,0.24h-0.24l-7.2,0.24
		c-2.76-0.24-4.92-0.96-6.48-2.52l-4.68-4.68c-1.92-1.2-3.24-3.12-3.96-5.64c-0.48-1.32-0.6-2.76-0.48-4.32c0-0.48,0-1.56,0.12-1.92
		c0-0.48,0.12-1.2,0.12-1.68c0.12-2.76,0.48-5.52,0.96-8.64c0.72-3.72,1.92-7.56,3.24-10.44c1.32-3.36,3.6-7.32,6.12-11.28
		l-0.12-0.12l1.8-2.88v0.12c0.72-1.32,1.68-2.64,2.4-3.96l2.76-4.2v0.12l0.48-0.72l5.28-7.08l0.6-0.96
		c-0.84,0.12-1.68,0.24-2.52,0.24h-4.2c-1.32,0-2.76-0.12-4.08-0.12c-0.72,0-1.44,0-2.4-0.24c-2.28-0.48-4.08-1.32-5.4-2.76
		l-4.44-4.32c-2.4-1.56-3.84-3.84-4.56-6.6c-0.48-1.8-0.72-3.84-0.72-6.12c0-4.56,0.24-9.36,1.08-14.04
		c0.72-4.44,2.76-8.64,5.04-12.12h-0.12c0.48-0.72,1.32-1.68,2.52-2.88c6.84-6.84,15.12-10.2,25.44-9.72l2.64,0.6
		c3.84,0.72,8.28,2.16,11.16,3.48c4.56,1.8,8.52,4.92,11.28,9l3,2.88c1.2,1.2,2.28,2.52,3.24,3.96c4.56,6.96,7.08,14.28,7.08,22.44
		c0,1.56,0,3-0.36,5.04h0.12c-1.2,9.96-4.68,18.84-10.2,27c-2.88,4.2-5.64,8.16-9.72,12.84
		C642.61,430.12,641.53,431.32,640.69,432.64z M612.73,459.28c3.48-0.24,6.84-0.6,10.32-0.72l19.68-0.24c0.72,0,1.44-0.12,2.04-0.24
		c1.56-0.24,2.64-1.2,3.12-2.76c0.24-0.84,0.36-1.8,0.36-2.76c-0.12-2.64-0.24-5.28-0.48-7.92c0-0.84-0.12-1.8-0.48-2.64
		c-0.48-1.68-1.8-2.76-3.6-3c-1.8-0.36-3.72-0.48-5.64-0.48c-2.4,0.12-4.8,0.48-7.2,0.72c-1.2,0.12-2.4,0.12-3.6,0.12
		c-0.48,0-1.08-0.12-1.68-0.24c-1.92-0.6-2.52-1.8-1.92-3.6c0.36-1.08,0.72-2.16,1.2-3.12c2.16-4.8,5.04-9.12,8.4-13.08
		c3.48-3.96,6.36-8.16,9.36-12.48c5.04-7.44,8.16-15.48,9.24-24.48c1.08-8.64-1.08-16.44-5.88-23.64c-2.28-3.36-5.4-5.88-9.12-7.44
		c-3.12-1.44-6.48-2.4-9.84-3.12l-2.76-0.48c-7.92-0.36-14.52,2.4-20.16,7.92c-0.6,0.6-1.2,1.32-1.68,2.04
		c-2.04,3-3.48,6.24-4.08,9.84c-0.72,4.32-0.96,8.64-0.96,12.96c0,1.56,0.24,3.12,0.6,4.68c0.36,1.92,1.56,3.12,3.48,3.48
		c0.48,0,0.96,0.24,1.44,0.24c2.76,0,5.4,0.12,8.16,0.12c2.64-0.12,4.08-1.68,4.2-4.32c0.12-0.6,0-1.2,0.12-1.92
		c0.12-1.92,0.12-3.84,0.36-5.64c0.24-1.92,0.84-3.72,1.68-5.52c2.16-4.08,6.72-4.56,9.96-3c2.64,1.2,4.08,3.48,4.68,6.24
		c0.72,4.08,0.72,8.16-0.36,12.12c-1.56,6.36-4.08,12.36-7.68,17.76l-5.04,6.96l-3.36,4.92c-1.44,2.16-2.64,4.32-3.96,6.36
		c-2.28,3.36-4.2,6.96-5.76,10.68c-1.32,3-2.28,6-2.88,9.12c-0.72,3.96-0.72,7.8-1.08,11.76c-0.12,0.6,0,1.2,0.24,1.92
		c0.36,1.92,1.68,3,3.6,3.12L612.73,459.28z"/>
	<path fill="currentColor" d="M659.29,424.6l0.24-2.76c0.6-5.4,4.08-9.12,9.96-9.36l5.52-0.48c0.72,0,1.56,0,2.04-0.12
		c2.28-0.48,4.2-0.12,6,0.24l1.08,0.36c-1.56-1.44-2.76-3.36-3.36-6c-0.24-0.72-0.36-1.44-0.36-3v-5.04l-1.08,0.12h-0.6
		c-4.08,0.24-7.2-0.84-9.24-3l-4.32-4.2c-3-1.92-4.92-5.16-5.4-9.84c0-1.2,0-3,0.12-3.96c0-0.12,0.12-0.48,0.12-0.6
		c0.36-0.84,0.36-1.44,0.48-2.16c0.36-2.04,0.84-4.92,1.32-6.84c1.44-5.16,4.32-9.48,7.8-13.56c3-3.48,6.72-5.76,10.8-6.96
		c5.04-1.44,10.08-2.28,15.6-2.04c2.04,0.12,4.2,0.24,6.24,0.72c5.4,1.08,10.32,3.96,13.92,7.32c0.96,0.96,1.8,1.92,2.52,3
		l3.36,3.24h-0.12l0.84,0.84c2.52,2.64,4.08,5.52,5.04,8.64h0.12c0.72,2.16,1.2,4.32,1.32,7.08c0,0.72,0.12,1.2,0.12,1.92
		c0.12,2.16,0.24,5.16-0.24,7.8l0.12,0.12c-0.96,6.24-2.64,12-6.48,17.4l1.92,1.92c1.92,1.92,3.48,4.2,4.68,6.72
		c1.56,3.48,2.4,6.84,2.76,10.44c0.12,1.2,0.24,2.16,0.24,4.08c0,6.24-1.8,12.48-3.84,18.12c-1.44,4.08-3.48,8.04-6.12,12
		c-1.68,2.4-3.48,4.56-5.64,6.48c-3.84,3.36-8.28,5.52-13.2,6.24c-1.92,0.36-3.96,0.48-5.52,0.48c-6.36,0-12.84-2.16-18.48-5.76
		c-1.56-0.96-2.88-2.04-4.2-3.36l-2.88-2.76c-3.84-2.88-7.44-7.32-9-11.76c-2.52-5.76-3.96-12.24-4.2-18.48V424.6z M669.01,444.04
		c1.56,3.96,4.2,7.2,7.68,9.48c6.12,4.2,12.84,5.52,20.04,4.44c3.96-0.6,7.32-2.28,10.32-4.92c1.8-1.68,3.36-3.48,4.8-5.52
		c2.28-3.36,4.08-6.96,5.4-10.68c2.28-6.36,4.08-12.84,3.24-19.68c-0.36-3.12-1.08-6-2.28-8.76c-1.32-2.88-3.24-5.28-5.88-7.08
		c-0.6-0.48-1.32-0.96-1.8-1.56c-0.72-0.84-0.96-1.68-0.36-2.64c0.36-0.72,0.84-1.44,1.32-2.04c3.6-4.68,5.28-10.08,6.12-15.84
		c0.48-3,0.12-5.88,0-8.88c-0.12-1.92-0.48-3.6-1.08-5.4c-0.84-2.64-2.16-5.16-4.32-7.08c-3.12-2.88-6.72-5.16-11.04-5.88
		c-1.8-0.36-3.6-0.48-5.4-0.6c-4.68-0.24-9.12,0.48-13.56,1.8c-3.12,0.96-5.88,2.64-8.16,5.16c-2.88,3.24-5.16,6.84-6.36,11.16
		c-0.72,2.88-1.2,5.88-1.8,8.88c-0.12,0.84-0.12,1.8-0.12,2.64c0.36,3.96,2.88,6.12,6.96,5.88h0.48l7.32-0.6l1.44-0.36
		c1.68-0.36,2.64-1.44,2.76-3.12c0.12-0.96,0.12-1.92,0-2.88c-0.24-1.56,0-3,0.24-4.56c0.96-4.2,4.92-6.48,9.12-5.52
		c2.28,0.48,3.84,1.8,5.04,3.72c1.68,2.76,2.28,5.76,2.28,8.88c-0.12,4.2-2.04,6.72-6.24,8.16c-0.84,0.24-1.56,0.36-2.4,0.48
		c-0.72,0.24-1.56,0.36-2.28,0.48c-3,0.72-4.08,1.92-4.08,5.04c-0.12,2.28,0,4.56,0,6.84c0,0.72,0.24,1.44,0.36,2.16
		c0.36,1.8,1.44,2.88,3.12,3.24c1.08,0.24,2.04,0.36,3.12,0.48c4.08,0.6,6.72,2.64,7.92,6.6l0.36,1.68
		c0.72,3.72,0.36,7.32-0.24,10.92c-0.24,1.68-0.84,3.24-1.68,4.8c-1.8,2.88-4.44,3.72-7.56,3.48c-2.88-0.36-4.56-2.16-5.52-4.8
		c-0.24-0.6-0.36-1.32-0.48-2.04l-0.36-5.04c-0.24-1.32-0.24-2.64-0.6-3.96c-0.48-1.56-1.44-2.64-3.12-3
		c-1.08-0.24-2.16-0.48-3.36-0.24c-0.96,0.24-2.04,0.24-3.12,0.24l-5.4,0.48c-2.64,0.12-4.08,1.68-4.32,3.96l-0.24,2.16v3.12
		C665.53,433.36,666.85,438.88,669.01,444.04z M695.53,423.76c0.12-0.6,0.12-1.2,0.12-1.8v-1.32l-0.96-0.24
		c-1.08-0.24-2.04-0.6-2.88-1.2l1.68,1.8c0-0.12-0.12-0.12-0.12-0.24l0.36,0.36C694.45,421.96,695.05,422.8,695.53,423.76z
		 M714.97,396.4v-0.12C714.85,396.28,714.85,396.28,714.97,396.4z"/>
</g>
<g>
	<path fill="currentColor" d="M328.07,417.43c-1.17,1.46-2.5,2.65-3.82,3.56c-4.42,3.07-9.1,4.42-14.04,4.13c-2.25-0.13-4.47-0.63-6.68-1.39
		l-2.28-1.04c-2.27-1.31-4.42-2.97-6.1-5.14c-2.17-2.92-3.61-6.07-4.59-9.2c-0.53-1.74-0.69-3.56-0.59-5.26
		c0.1-1.62,0.45-3.04,1-4.72c0.11-0.26,0.21-0.44,0.22-0.62c0.11-0.35-0.45-0.03,0.33-0.97c1.7-4.41,4.41-7.49,7.78-9.55l2.19-1.94
		l-0.29,0.25l0.48-0.51c2.76-2.45,6.09-3.88,10.1-4.54c1.64-0.26,3.72-0.41,5.43-0.4c1.8,0.02,4.21,0.52,5.89,1.07
		c2.83,0.89,5.46,2.13,7.79,3.98l0,0.09c4.64,3.79,6.88,8.7,6.53,14.63l0,0.09c-0.34,4.22-1.65,8.02-3.65,11.41l-0.19,0.17
		c-0.9,1.57-1.96,2.68-3.1,3.69L328.07,417.43z M323.41,392.63c-1.89-1.55-4.09-2.5-6.39-3.26c-1.42-0.44-3.02-0.81-4.55-0.81
		c-1.62-0.01-3.25,0.08-4.8,0.35c-5.73,0.92-9.87,3.74-11.92,9.39c-0.21,0.53-0.42,0.97-0.54,1.5c-0.86,2.38-1.1,4.8-0.34,7.19
		c0.91,2.85,2.11,5.54,3.86,7.89c1.17,1.6,2.63,2.77,4.38,3.69l2.11,0.94c5.82,2.15,11.28,1.3,16.36-2.19
		c1.51-1.08,2.84-2.27,3.75-3.93c1.7-2.87,2.79-6.05,3.09-9.55C328.69,399.34,327.02,395.55,323.41,392.63z"/>
	<path fill="currentColor" d="M307.85,287.57l7.74,2.15l4.01,1.19l-5.74-4.09c-1.19-0.86-2.45-1.55-3.6-2.29l-1.76-1.13
		c-0.08-0.04-0.21-0.2-0.29-0.23l-3.64-2.41c-3.85-2.61-4.9-6.28-3.67-10.18c0.59-2.31,1.54-4.75,2.46-6.5l0.31-0.65
		c1.71-2.38,3.77-3.8,6.19-3.85l4.23-1.59c1.56-0.56,3.33-0.52,5.16,0.24c1.14,0.54,2.2,1.03,3.55,1.97l0.04-0.08
		c1.84,1.16,3.2,2.3,5,3.54c0.41,0.19,0.98,0.66,1.31,0.81l2.29,1.68c1.64,1.17,3.32,2.26,4.91,3.3c5.24,3.46,10.12,7.25,14.93,11.2
		c1.93,1.6,3.9,2.93,5.78,4.41l5.75,4.49c1.97,1.52,3.86,3.01,5.71,4.57c1.11,0.82,2.14,1.8,3.24,2.62l8.53,6.6
		c0.86,0.7,2.06,1.96,3.18,3.19c1.79,2.33,2.46,5.13,1.84,7.93c-0.39,2.1-1.5,4.46-2.58,6.34c-0.92,1.75-2.23,2.83-3.78,3.39
		l-4.67,1.68c-1.43,0.92-3.11,1.32-4.88,1.29c-1.49,0-3.39-0.2-4.28-0.42c-4.28-0.62-9.06-1.67-13.19-2.62l-17.2-3.81
		c-3.24-0.73-6.6-1.61-9.88-2.46l-1.34-0.33c-1.58-0.45-3-0.81-4.54-1.14l-1.46-0.29c-3.77-0.88-7.86-1.9-11.38-2.87l-2.39-0.63
		c-2.23-0.55-4.74-1.34-6.93-1.97l-1.1-0.42c-1.09-0.21-2.15-0.51-3.45-1.12c-4.15-1.95-5.55-4.9-4.01-9.45
		c0.37-1.22,1.1-2.97,1.79-4.43c0.58-1.22,0.96-2.04,1.66-2.9c1.33-1.76,3.67-2.95,5.92-3.28l4.11-1.55
		c1.04-0.31,2.04-0.53,3.17-0.4l0.04-0.08c1.17,0.05,2.26,0.27,3.03,0.53L307.85,287.57z M347.18,305.67
		c-0.69-0.02-1.37-0.05-2.1-0.19c-1.82-0.36-3.6-0.8-5.47-1.28c-2.59-0.62-5.18-1.24-7.81-1.79c-3.16-0.69-6.16-1.7-9.24-2.55
		c-7.18-2.08-14.51-4.04-21.81-6.08c-0.61-0.19-1.34-0.33-2.1-0.39c-1.33-0.13-2.49,0.42-3.22,1.57c-0.51,0.66-0.93,1.35-1.32,2.17
		c-0.61,1.3-1.14,2.64-1.56,3.94c-0.72,1.95-0.17,3.1,1.62,3.95c0.9,0.42,1.79,0.64,2.76,0.9c3.41,1.01,6.89,2.05,10.34,2.97
		c3.69,1.04,7.45,1.91,11.22,2.79c5.71,1.39,11.46,2.9,17.21,4.21l17.2,3.81c4.29,1.02,8.54,1.93,12.91,2.59
		c1.09,0.22,2.3,0.39,3.51,0.36c1.65,0.08,3.01-0.47,3.78-1.9c0.93-1.55,1.7-3.18,2.05-5c0.36-1.62,0.09-3.14-0.91-4.41
		c-0.79-0.87-1.65-1.77-2.6-2.51l-8.45-6.56c-3.04-2.42-5.96-4.89-9.03-7.23c-3.82-3.09-7.75-5.93-11.57-9.02
		c-4.72-3.91-9.48-7.54-14.56-10.92c-2.37-1.51-4.75-3.23-7.08-4.82c-2.17-1.52-4.26-3-6.39-4.4c-0.98-0.66-1.96-1.12-3.02-1.62
		c-1.59-0.65-2.9-0.17-3.88,1.26l-0.23,0.49c-0.96,1.83-1.68,3.79-2.2,5.73c-0.67,2.07-0.15,3.91,1.74,5.19l3.64,2.41
		c1.92,1.2,3.92,2.44,5.85,3.84c4.55,3.23,9.13,6.38,13.83,9.29l13.61,8.49c1.06,0.7,2.01,1.44,2.99,2.3
		c0.58,0.47,1.23,0.98,1.34,2.02C347.9,305.41,347.58,305.66,347.18,305.67z"/>
	<path fill="currentColor" d="M398.34,282.63c-1.91,0.58-3.93,0.41-6.19-0.63c-1.31-0.66-2.39-1.47-3.25-2.12l-10.9-8.27l-8.66-6.91
		l-9.16-7.74c-0.72-0.54-1.72-1.31-2.38-1.92c-0.65-0.49-1.88-1.54-2.46-1.98c-2.1-1.7-4.28-3.59-6.32-5.36l-7.85-6.63
		c-0.5-0.38-1.22-0.92-1.67-1.38c-0.43-0.33-1.24-1.05-1.67-1.38c-1.15-0.87-2.53-2.03-3.62-2.97c-0.88-0.78-1.7-1.63-2.24-2.71
		c-1.32-2.13-1.47-4.62-0.39-7.08l-0.07-0.05c0.73-1.71,2.11-3.82,3.58-5.31c1.96-2.13,3.96-2.98,5.96-2.94l5.17-0.71
		c1.64-0.23,3.33,0.38,5.27,1.4l-0.13,0.02c1.6,0.87,2.46,1.53,3.39,2.23l11.08,8.63l1.79,1.36l6.65,5.38l2.15,1.63
		c1.43,1.09,3.21,2.32,4.59,3.48l7.27,6.2c0.93,0.71,1.75,1.56,2.69,2.26l5.91,5.16c1.17,1,2.58,2.41,3.74,3.4
		c2.79,2.57,5.61,5.27,8.26,7.28c0.72,0.54,1.4,1.29,2.25,2.39c1.7,2.53,1.9,5.39,0.19,7.94c-1.04,1.81-2.54,3.5-4.09,4.8
		c-1.28,0.95-2.6,1.64-3.99,1.83L398.34,282.63z M356.98,233.06l-11.08-8.63c-0.93-0.71-1.79-1.36-2.83-1.92
		c-1.74-0.98-3.09-0.99-4.65,0.77c-1.12,1.18-2.03,2.53-2.67,3.96c-0.56,1.04-0.48,2.12,0.11,3.13c0.34,0.6,0.86,1.1,1.38,1.61
		c2.19,1.88,4.48,3.62,6.67,5.51l8.06,6.79c2.04,1.77,4.08,3.55,6.18,5.25l4.77,3.84l9.23,7.79l8.66,6.91
		c1.95,1.6,3.94,2.99,5.88,4.46l4.3,3.26c1.08,0.82,2.03,1.65,3.26,2.25c1.45,0.76,2.77,0.52,4.05-0.43
		c1.27-1.07,2.26-2.24,3.1-3.64c0.82-1.08,0.71-2.28-0.02-3.4c-0.39-0.52-0.84-0.98-1.34-1.36c-4.37-3.32-8.19-7.23-12.22-10.85
		l-5.84-5.11l-2.76-2.32l-7.27-6.2c-2.1-1.7-4.37-3.32-6.53-4.95l-6.72-5.44L356.98,233.06z"/>
	<path fill="currentColor" d="M400.99,235.39l-7.03-7.23c-0.06-0.07-0.19-0.07-0.25-0.14l-0.43-0.46c-3.3-3.45-6.47-6.76-9.84-10.15
		c-3.67-3.59-7.94-8.22-11.42-11.99c-1.83-1.99-3.71-4.16-5.48-6.21c-0.61-0.66-1.34-1.58-1.64-2.04c-1.97-3.2-2.45-7.04,1.07-10.53
		c0.8-0.86,1.72-1.59,2.58-2.38l3.38-3.11l2.43-1.88l0.46-0.43c1.25-1.03,2.64-2.19,3.95-3.15c0.72-0.54,1.57-0.96,2.41-1.24
		c1.75-0.76,3.6-0.87,5.3-0.36l4.58,0.19c1.4,0.06,2.72,0.56,4.01,1.57c1.11,0.81,2.16,1.81,2.89,2.6c0.85,0.93,1.76,2.05,2.66,3.42
		c1.56,2.36,1.52,4.97,0.34,7.28c-0.48,0.94-1.03,1.8-1.9,2.85l-2.16,2.97l0.12,0.13l5.01,5.17c1.82-0.82,3.61-1,5.31-0.48
		l4.58,0.19c1.46,0.12,3.03,0.63,4.39,1.71c1.11,0.81,1.78,1.54,2.46,2.27c1.1,1.19,2.38,2.58,3.41,3.83l0.67,0.73
		c2.38,2.58,2.74,6.29,0.24,9.69c-0.28,0.5-0.74,0.92-1.14,1.29l-0.73,0.67l3.54,3.84c0.33-0.31,0.85-0.54,1.31-0.84
		c1.89-1.13,4.14-1.49,6.4-0.76l4.2,0.17c1.4,0.06,2.97,0.57,4.46,1.52l1.86,1.35c0.8,0.61,1.85,1.48,2.65,2.21l0.19-0.06
		c4.25,3.68,4.66,7.45,1.2,11.26c-1,1.04-2.12,1.95-3.17,2.8c-1.31,0.84-2.37,1.81-3.3,2.92c-1.87,2.09-3.67,4.12-4.96,6.17
		c-0.67,0.86-1.13,1.29-1.73,1.84l-0.66,0.61c-1.45,1.09-2.8,1.61-4.33,1.54l-4.58-0.19c-1.99,0.49-3.95,0.09-5.81-1.13
		c-0.62-0.41-2.03-1.67-2.7-2.4L400.99,235.39z M419.01,247.91c0.61,0.66,1.35,1.33,2.03,1.8c1.05,0.74,2.14,0.72,3.12-0.06
		c0.6-0.55,1.25-1.03,1.66-1.65c1.5-2.36,3.3-4.39,5.17-6.48c1.2-1.35,2.53-2.57,4.03-3.59c0.86-0.67,1.78-1.39,2.51-2.19
		c1.53-1.66,1.41-3.25-0.32-4.73c-0.19-0.07-0.37-0.27-0.49-0.4c-0.92-0.74-1.79-1.41-2.78-2.09c-0.61-0.53-1.3-1.01-1.98-1.48
		c-1.18-0.75-2.39-0.73-3.57-0.02c-0.91,0.47-1.57,1.08-2.24,1.82c-0.87,1.05-1.86,1.96-3.04,2.68c-1.24,0.78-2.39,0.73-3.5-0.21
		c-0.49-0.4-0.92-0.99-1.34-1.46l-5.37-5.82c-0.67-0.73-1.47-1.46-2.07-2.25c-0.97-1.19-1.06-2.21-0.11-3.44
		c0.41-0.62,1-1.17,1.47-1.72c0.34-0.43,0.73-0.67,1-1.04c1.34-1.6,1.22-3.33,0.18-4.45l-0.85-0.93c-1.03-1.25-2.13-2.44-3.23-3.63
		c-0.55-0.6-1.1-1.19-1.84-1.73c-1.36-1.07-2.82-1.07-4.27,0.02l-1.97,1.58c-0.4,0.37-0.86,0.67-1.31,0.97
		c-0.72,0.54-1.55,0.45-2.36,0.09l-1.3-1.01c-0.61-0.53-1.22-1.2-1.83-1.86c-2.33-2.26-4.59-4.58-6.85-6.9
		c-0.37-0.4-0.67-0.73-0.91-1.12c-0.6-0.92-0.75-1.88-0.39-2.95c0.21-0.44,0.48-0.94,0.82-1.37l2.43-3.34
		c0.54-0.62,0.95-1.36,1.36-2.11c0.48-0.94,0.46-2.02-0.13-2.93c-1.33-1.84-2.79-3.55-4.57-4.96c-0.93-0.74-2.07-0.79-3.11-0.32
		c-0.58,0.17-1.1,0.4-1.62,0.76c-1.45,1.09-2.9,2.3-4.28,3.46l-2.43,1.88c-1.85,1.71-3.83,3.28-5.56,5.12
		c-1.59,1.59-1.35,3.32-0.45,4.82c0.36,0.52,0.78,1.12,1.27,1.64c1.76,2.05,3.53,4.09,5.36,6.08c3.72,4.04,7.38,8.01,11.3,11.86
		c3.37,3.39,6.6,6.77,9.9,10.21c0.18,0.2,0.43,0.34,0.68,0.6l7.03,7.23L419.01,247.91z"/>
	<path fill="currentColor" d="M445.17,187.13c-1.48-2.36-3.68-5.77-5.59-9.04c-1.5-2.57-2.96-5.25-4.38-7.86l-1.09-1.87
		c-0.23-0.39-0.45-0.78-0.6-1.21c-0.16,0.09-0.36,0.1-0.48,0.07c-1.42,0.42-2.75,0.46-3.98,0.14l-4.19-1.1
		c-2.21,0.14-4.2-0.78-6.03-2.84c-0.39-0.5-0.88-1.15-1.61-2.4c-0.82-1.4-1.91-3.26-2.52-4.68c-2.23-4.53-1.31-7.78,3.19-10.61
		c1.4-0.82,3.03-1.77,4.92-2.46c1.37-0.69,2.58-1.3,3.62-2.01l14.01-8.49c1.09-0.64,2.3-1.24,3.45-1.59
		c2.25-0.79,4.31-0.64,6.12,0.49l4.26,1.05c1.35,0.36,2.7,1.24,3.83,2.45c0.3,0.34,0.82,0.88,1.19,1.5l2.63,4.51
		c0.45,0.78,0.71,1.57,0.88,2.4c0.71,2.82-0.19,5.21-2.54,7.42l-2.63,1.74l-1.24,0.73l4.79,8.56l4.17,7.68
		c1.19,2.22,2.35,4.57,3.42,6.76l3.23,6.24l5.85,10.55c0.27,0.47,0.65,1.29,0.92,1.75l1.04,1.79c1.36,2.33,2.75,4.54,4.19,6.83
		c0.36,0.62,0.73,1.24,1.3,2.58c1.27,3.43,0.24,6.84-2.73,8.89c-1.9,1.21-4,2.44-6.21,3.1l-0.12-0.03
		c-1.78,0.52-3.39,0.62-4.74,0.27l-4.8-1.26c-2.27-0.14-4.28-1.26-5.95-3.41c-1.33-1.93-2.7-4.26-3.88-6.28l-1.13-1.94
		c-0.29-0.67-0.51-1.06-0.74-1.44c-2.55-4.55-5.18-9.06-8.9-15.44L445.17,187.13z M458.87,201.85c0.36,0.62,0.73,1.24,1.01,1.91
		c1.45,2.49,2.83,5.02,4.51,7.37c1.23,1.57,2.63,2.01,4.57,1.4c1.86-0.56,3.57-1.56,5.16-2.59c1.28-0.85,1.67-2.33,1.13-3.78
		c-0.29-0.67-0.65-1.29-1.01-1.91c-1.44-2.29-2.88-4.57-4.24-6.91c-0.68-1.17-1.33-2.46-2.01-3.62l-5.85-10.55l-3.32-6.4
		c-1.07-2.19-2.18-4.46-3.38-6.68l-4.12-7.6l-4.74-8.49c-0.32-0.54-0.59-1.01-0.83-1.6c-0.4-1.22-0.23-2.36,0.89-3.12
		c0.84-0.7,1.77-1.24,2.71-1.79l2.24-1.52c0.95-0.87,1.29-1.9,0.93-3.04c-0.07-0.48-0.22-0.91-0.4-1.22l-2.63-4.51
		c-0.23-0.39-0.49-0.65-0.79-1c-0.87-0.95-2.02-1.32-3.28-0.8c-0.87,0.3-1.77,0.72-2.62,1.22l-13.93,8.44
		c-1.43,0.94-2.88,1.68-4.44,2.38c-1.46,0.54-2.86,1.35-4.18,2.13c-2.05,1.3-2.49,2.7-1.42,4.89c0.66,1.49,1.48,2.89,2.29,4.29
		c0.36,0.62,0.8,1.2,1.2,1.7c0.96,1.11,2.07,1.4,3.41,1.03c1.27-0.32,2.39-1.08,3.48-1.72c0.7-0.41,1.4-0.82,2.07-1.1
		c1.1-0.43,2.01-0.13,2.79,0.67c0.43,0.38,0.7,0.84,0.97,1.31c0.63,1.09,1.24,2.3,1.92,3.46c2.19,3.93,4.26,7.83,6.53,11.72
		c2.45,4.2,5.05,8.3,6.49,10.59C453.69,192.79,456.32,197.29,458.87,201.85z"/>
	<path fill="currentColor" d="M509.12,197.08c-1.8-0.44-3.51-1.56-4.62-3.59c-0.47-0.71-0.69-1.49-0.92-2.36l-0.24-0.87
		c-1.34-4.58-2.64-8.98-4.07-13.54l-4.54-13.22c-0.7-1.86-1.43-4.55-1.98-6.55c-0.21-0.78-0.54-1.63-0.75-2.41l-0.66-2.43
		c-0.89-2.93-2.17-7.25-2.92-10.02c-0.38-1.39-0.83-3.04-1.12-4.45l-0.52-1.91c-0.17-0.61-0.27-1.33-0.46-2.02l-0.74-2.69
		c-0.12-0.43-0.32-0.84-0.44-1.28l-0.38-1.39c-0.58-1.8-1.39-4.75-1.84-6.4c-0.21-0.78-0.3-1.78-0.38-2.42
		c-0.49-3.5,1.01-5.87,4.03-7.45c0.26-0.07,0.58-0.25,0.84-0.32c0.41-0.21,1.08-0.48,1.52-0.6l6.08-1.66
		c1.91-0.52,3.57-0.6,5.29-0.79c0.35-0.09,0.83-0.04,1.18-0.13c2.97-0.06,5.32,0.69,7.26,2.68l3.51,1.93
		c1.1,0.63,2.08,1.48,2.96,2.64l1.74,2.6l0.7,1.21l0.09-0.02c0.39,0.73,0.75,1.38,1.2,2c-0.38-1.39-0.87-2.84-1.27-4.32
		c0,0-0.02-0.09-0.21-0.41c-0.6-1.52-0.88-3.21-1.1-5.39c0-3.08,1.47-5.9,4.76-7.18c1.78-0.67,3.95-1.26,6.43-1.38
		c2.79-0.02,4.95,0.7,6.43,2.35l3.84,2.12c1.44,0.82,2.56,2.19,3.25,4.06c0.5,1.17,1.02,2.71,1.39,3.73l3.35,9.53l0.45,1.65
		c0.14,0.52,0.32,0.84,0.47,1.37c1.22,3.77,2.49,8.09,3.62,11.89c1.24,3.86,2.54,8.26,3.71,12.23l1.49,4.44
		c0.79,2.21,1.59,4.79,2.29,7.03c0.66,2.43,1.44,4.92,2.1,7.36c0.66,2.43,1.24,4.89,1.91,7.32c0.31,1.13,0.47,2.39,0.3,3.84
		c-0.26,3.15-2.14,5.16-5.04,6.13c-0.96,0.26-2.69,0.74-3.76,0.93l-2.6,0.71c-0.96,0.26-1.93,0.43-2.89,0.7l-1.96,0.35
		c-1.93,0.43-3.71,0.08-5.37-0.87l-3.76-2.15c-1.41-0.36-2.73-1.12-3.87-2.21c-0.22-0.13-0.47-0.34-0.62-0.58l-0.05-0.17
		c-0.4-0.45-0.7-0.84-1.03-1.4c-2.67-4.31-5.38-8.42-8.29-12.57l1.26,3.95c0.83,3.04,1.75,6.05,2.75,9.04l1.07,3.25
		c0.29,1.04,0.57,2.08,0.74,3.72c0.37,3.73-1.13,6.47-4.7,7.72c-1.69,0.65-3.55,1.34-6.08,1.66l0.11,0.06
		c-1.7,0.28-3.43,0.1-4.97-0.79L509.12,197.08z M530.98,151.74l-3.98-5.35c-2.05-3.08-4.13-6.24-6.29-9.38
		c-1.29-1.98-2.81-3.8-4.12-5.87c-2.71-4.11-5.33-8.25-7.95-12.38c-0.79-1.18-1.49-2.39-2.37-3.55c-1.17-1.55-2.64-2.17-4.59-2.11
		c-1.83,0.13-3.66,0.25-5.49,0.75l-6.08,1.66c-0.52,0.14-1.02,0.37-1.52,0.6c-1.14,0.59-1.74,1.5-1.55,2.85
		c0.08,0.63,0.07,1.29,0.21,1.81c0.57,2.08,1.14,4.17,1.79,6.23c0.52,1.91,1.11,3.71,1.6,5.53c0.76,2.78,1.34,5.6,2.1,8.38
		c1.35,4.95,2.9,9.94,4.34,14.86c0.57,2.08,1.14,4.17,1.88,6.2l4.59,13.39c1.43,4.55,2.75,9.04,4.09,13.62
		c0.25,0.58,0.36,1.3,0.61,1.89c0.82,1.64,2.25,2.09,3.69,1.88c1.81-0.21,3.41-0.84,5.01-1.46c1.54-0.51,2.23-1.73,2.07-3.36
		c-0.11-1.09-0.37-2.04-0.63-3c-1.31-4.12-2.69-8.13-3.8-12.21c-1.62-5.25-3.04-10.46-4.49-15.75c-0.09-0.35-0.19-0.7-0.37-1.02
		c-1.21-3.4-2.18-6.96-3.07-10.54c-0.29-1.04-0.33-2.24-0.44-3.33c-0.1-0.35-0.02-0.74,0.5-0.88c0.62,0.21,0.93,0.68,1.33,1.13
		l1.62,2.17l3.85,5.2c2.22,2.66,4.23,5.56,6.12,8.4c0.68,1.12,1.45,2.22,2.21,3.31c4.55,6.41,9.08,12.73,13.15,19.45
		c0.34,0.56,0.85,1.07,1.26,1.52c0.89,0.88,1.93,1.25,3.17,1l1.78-0.3c1.91-0.52,3.93-0.98,5.84-1.5c1.15-0.22,2.28-0.53,3.32-0.81
		c1.28-0.44,2.07-1.31,2.06-2.71c0.09-0.68-0.01-1.4-0.2-2.09c-1.24-4.89-2.57-9.75-3.98-14.59c-1.13-3.8-2.52-7.52-3.74-11.29
		c-1.22-4.14-2.43-8.2-3.74-12.32c-1.18-3.97-2.36-7.94-3.62-11.89c-0.29-1.04-0.66-2.06-0.94-3.1l-3.3-9.36
		c-0.4-1.11-0.79-2.21-1.3-3.38c-0.67-1.78-1.94-2.64-3.99-2.64c-1.75,0.1-3.31,0.53-4.91,1.15c-1.28,0.44-1.89,1.63-1.9,2.95
		c0.13,1.18,0.33,2.24,0.73,3.35c0.18,0.32,0.3,0.76,0.42,1.19c1.88,6.2,3.5,12.48,5.56,18.63c0.86,2.47,1.55,4.99,2.32,7.48
		c0.76,2.78,1.6,5.53,2.36,8.31c0.19,0.69,0.38,1.39,0.03,2.14C531.61,152.69,531.3,152.21,530.98,151.74z"/>
	<path fill="currentColor" d="M609.32,182.01c-1.78-1.2-3.1-2.93-3.51-5.28c-0.25-1.44-0.48-3.43-0.64-4.96c-0.32-2.71-0.62-5.95-0.84-8.74
		c-0.23-2.16-0.46-4.78-0.61-6.94l-0.08-0.63l-1.17-0.02c-0.72-0.01-1.17,0.07-1.53,0.07l-0.31,2.24c-0.41,3.14-1.28,6.55-2.05,9.78
		l-1.17,5.11c-0.39,1.88-0.79,4.22-1.27,6.01c-0.29,0.99-0.29,1.53-0.86,3.05c-1.04,2.77-3.32,4.62-6.3,5.12
		c-1.44,0.25-2.79,0.31-4.05,0.29c-1.17-0.02-2.52-0.13-3.86-0.42c-1.97-0.48-3.31-1.14-4.28-2.14l-3.19-3.29
		c-2.41-1.3-3.27-3.47-3.13-6.89c0.02-1.26,0.12-1.89,0.22-2.52l0-0.09c0-0.27,0.1-0.54,0.1-0.72c0.6-3.86,1.39-8.08,2.27-11.93
		c0.09-0.27,0.19-0.54,0.19-0.63c0.11-0.99,0.3-1.71,0.49-2.51l0.58-2.51c1.17-5.38,2.54-12.2,3.35-17.5
		c0.6-3.77,1.39-7.63,2.08-11.4l0.4-2.6c0.2-1.44,0.41-2.96,0.7-4.49l0.7-4.4l0.31-2.16l0.29-1.17l0.3-1.79
		c0-0.27,0.01-0.72,0.11-0.99c0.01-0.36,0.1-0.81,0.11-1.17c0.02-1.17,0.13-2.16,0.23-2.97c0.1-0.72,0.3-1.97,0.5-2.69
		c0.86-3.32,3.15-5.44,6.49-5.92l1.08-0.16c1.17-0.25,2.71-0.41,3.79-0.57c1.71-0.15,3.43-0.3,5.58-0.27
		c1.08,0.02,2.7,0.13,3.69,0.24c0.36,0.01,1.17,0.11,1.62,0.12c0.54,0.1,1.08,0.11,1.62,0.12l2.42,0.31l0.63,0.01
		c2.78,0.68,4.83,2.15,5.96,4.33l3.01,3.02c0.97,1.1,1.67,2.37,2.09,3.99l0.59,2.35l-0.09-0.09c0.51,2.08,1.01,4.07,1.61,6.15
		c1.02,3.71,1.67,7.77,2.32,11.83c0.48,3.61,1.05,7.22,1.62,10.92l0.33,1.9l-0.09-0.09l0.24,1.89c0.72,5.32,1.35,10.82,1.54,15.6
		c0.1,4.95,0.29,9.91,0.47,14.77l0.42,6.94c0.07,1.17,0.04,2.88-0.25,4.32c-0.87,3.32-3.33,5.17-6.31,5.83
		c-1.08,0.25-2.62,0.32-3.6,0.3c-1.17-0.02-2.43-0.13-3.59-0.42c-1.61-0.39-3.04-1.13-4.1-2.23L609.32,182.01z M603.79,146.73
		c0.63,0.01,1.17,0.2,1.79,0.3c0.99,0.29,1.6,1.02,1.86,1.92c0.17,0.45,0.26,0.81,0.34,1.27l0.3,3.79c0.22,2.88,0.45,5.68,0.76,8.56
		c0.22,2.97,0.53,5.86,0.84,8.74c0.15,1.62,0.31,3.16,0.55,4.69c0.24,1.62,1.4,2.45,2.92,2.84c1.79,0.39,3.68,0.42,5.49,0.09
		c1.44-0.25,2.54-1.13,2.92-2.65c0.2-0.99,0.21-1.98,0.14-3.06l-0.42-6.94c-0.19-4.95-0.37-10-0.47-14.95
		c-0.18-5.67-0.98-11.36-1.7-16.95c-0.65-4.33-1.3-8.57-1.86-12.81c-0.57-3.79-1.22-7.58-2.24-11.29c-0.59-2.08-1.1-4.16-1.61-6.24
		l-0.5-2.35c-0.42-1.72-1.48-2.81-3.19-3.2c-0.81-0.1-1.71-0.3-2.52-0.31l-3.6-0.24c-2.79-0.32-5.58-0.27-8.46,0.04
		c-1.53,0.15-3.07,0.4-4.6,0.64s-2.54,1.13-2.84,2.74c-0.19,0.63-0.29,1.34-0.3,1.97c-0.21,1.71-0.24,3.33-0.44,5.03
		c-0.21,1.8-0.6,3.5-0.9,5.3l-1.41,8.89c-0.89,4.67-1.78,9.33-2.48,14c-1,5.92-2.18,11.84-3.45,17.76
		c-1.17,5.74-2.62,11.48-3.44,17.31c-0.11,0.9-0.3,1.88-0.32,2.78c-0.12,2.07,0.58,3.07,2.55,3.55c2.15,0.49,4.31,0.43,6.39,0.11
		c1.44-0.25,2.45-1.04,2.92-2.38c0.37-0.8,0.57-1.7,0.76-2.6c0.87-3.68,1.56-7.44,2.44-11.21c0.77-3.05,1.54-6.18,1.96-9.33
		c0.11-1.08,0.4-2.24,0.59-3.32c0.29-1.44,1.21-2.23,2.56-2.39c0.81-0.17,1.53-0.24,2.34-0.23c0.99-0.07,1.89,0.03,2.88,0.05
		C601.54,146.69,602.62,146.62,603.79,146.73z M596.68,135.45c-1.62-0.21-2.23-1.48-2.2-2.83c0.01-0.45,0.2-0.9,0.29-1.35
		c0.42-3.41,0.83-6.83,1.34-10.24c0.31-2.25,0.71-4.58,1.19-6.91c0.01-0.36,0.19-0.81,0.38-1.16c0.74-1.34,2.28-1.67,3.52-0.75
		c0.8,0.55,1.15,1.46,1.31,2.45c0.34,1.36,0.49,2.8,0.74,4.24l1.87,12.27l0.23,2.16c-0.03,1.62-0.76,2.42-2.38,2.48L596.68,135.45z"
		/>
	<path fill="currentColor" d="M691.78,200.73c-0.95-1.38-1.37-3.15-1.23-5.2c-0.05-0.4,0.1-1.11,0.28-1.62c0.12-0.62,0.51-1.73,0.72-2.32
		l0.09-0.25l-2.25,3.69c-0.73,1.27-1.43,2.45-2.1,3.27c-0.67,1.1-1.65,2-2.49,2.75c-2.02,1.68-4.3,1.93-6.6,1.69l-0.93-0.33
		c-1.02-0.36-2.07-0.63-3.09-0.99c-1.53-0.54-3.26-1.05-4.76-1.67c-2.09-0.83-3.41-1.96-4.13-3.45l-1.99-4.13l-0.39-0.52
		c-1.8,2.42-4.35,3.15-7.36,2.76c-2.56-0.32-5.11-0.93-7.63-1.91c-1.81-0.83-3.04-1.93-3.76-3.42l-1.88-3.9
		c-1.4-1.45-2.05-3.39-1.76-5.58l-0.08-0.03c0.02-1.14,0.35-2.07,0.7-3.09c1.28-3.65,2.65-7.56,4.22-11.21
		c0.5-1.16,1.07-2.77,1.37-3.91l0.48-1.36c0.18-0.51,0.27-1.05,0.45-1.56l3.88-11.61l2.26-6.46c1.43-4.08,2.69-7.93,3.86-12.09
		c1.14-3.8,2.37-7.56,3.59-11.33c0.46-1.84,1.32-4.31,1.89-6.2c0.15-0.42,0.18-0.79,0.33-1.22l0.12-0.34
		c0.12-0.34,0.18-0.79,0.56-1.33c1.62-3.53,4.98-5.5,8.68-5.16c1.31,0.08,2.53,0.41,3.92,0.8l10.53,3.69c1.19,0.42,2.03,1,2.88,1.58
		c2,1.37,3.25,3.24,3.73,5.41l1.65,3.44l0.05,0.12l0.25,0.37c0.61,1.26,0.87,2.69,0.73,4.17c-0.16,1.28-0.24,2.59-0.24,2.59
		l-0.05-0.11c-0.47,2.7-0.57,5.43-0.87,8.18l-0.18,0.51l0.08,0.03l-0.23,1.73l0.67-1.1l2.78-4.65c1.23-2.14,2.57-4.34,3.89-6.46
		c0.64-1.01,1.28-2.03,2.01-3.01c0.32-0.36,0.67-0.81,0.99-1.46l0.99-1.18c2.52-2.84,5.63-3.56,9.01-2.56
		c1.27,0.45,3.03,1.16,4.27,1.69c0.34,0.12,0.99,0.44,1.41,0.59c0.48,0.26,0.99,0.44,1.41,0.59c1.72,0.79,3.39,1.48,5.15,2.19
		c3.76,1.51,5.44,3.53,5.91,5.98l1.99,4.13c0.88,1.84,0.74,3.88,0.13,6.15c-0.85,3.52-1.94,7.71-2.91,11.28l-2.24,6.94
		c-1.08,3.63-2.51,7.99-3.71,11.67l-1.5,4.82c-1.26,4.14-2.46,8.1-3.58,12.38l-0.03,0.08c-0.18,0.79-1.05,3.26-1.34,4.11
		c-1.02,3.17-2.54,7.5-3.64,10.65l-1.83,6.32c-0.33,0.93-0.63,1.78-0.92,2.35c-1.36,3.05-3.77,4.5-7.16,4.36l-0.17-0.06
		c-1.34,0.01-2.59-0.24-3.55-0.48c-1.62-0.28-3.63-0.8-5.24-1.65c-1.89-0.86-3.13-1.96-3.79-3.33L691.78,200.73z M674.17,141.62
		c-0.45,5.37-1.45,10.65-2.47,16.02c-0.77,3.55-1.56,7.18-2.11,10.9c-0.64,4.54-1.48,9.11-2.66,13.56c-0.39,1.39-0.61,2.84-0.8,4.2
		c-0.2,1.93,0.35,3.08,2.1,3.79c2.52,0.98,5.12,1.7,7.67,2.6l0.34,0.12c1.19,0.13,2.28,0.04,3.14-0.8c0.66-0.53,1.27-1.18,1.71-1.88
		c0.73-0.98,1.37-2,1.93-3.04c2.16-3.44,4.09-7.05,6.34-10.46c3.15-4.9,6.33-9.89,9.17-15c2.05-3.67,4.24-7.19,6.77-10.6
		c0.41-0.62,0.93-1.29,1.42-1.88c0.87-0.84,1.14,0.02,1.01,1.21c-0.1,0.82-0.2,1.65-0.38,2.44l-1.96,6.94
		c-0.66,2.44-1.33,4.88-1.88,7.26l-2.07,8.62c-0.43,1.76-0.88,3.6-1.51,5.38c-1.31,4.02-2.71,8.01-4.14,12.09
		c-0.18,0.51-0.39,1.1-0.51,1.73c-0.12,0.34-0.18,0.79-0.22,1.16c-0.2,1.65,0.33,2.6,1.88,3.33c1.38,0.68,2.89,1.01,4.39,1.35
		c0.96,0.24,1.87,0.37,2.9,0.44c1.51,0.05,2.63-0.7,3.22-2.11c0.29-0.56,0.47-1.07,0.68-1.67l1.8-6.23
		c1.25-3.57,2.5-7.13,3.67-10.73c0.45-1.27,0.92-2.63,1.29-3.94c1.52-5.95,3.43-11.67,5.2-17.54c1.26-3.85,2.51-7.7,3.65-11.5
		l2.27-7.02c1-3.66,1.91-7.34,2.79-10.94c0.6-2.27,0.49-4.12-2.71-5.34c-2.77-1.07-5.4-2.28-8.14-3.43
		c-1.24-0.53-2.57-1.09-3.85-1.54c-1.56-0.45-2.99-0.19-4.12,1.13l-0.61,0.64c-1.11,1.52-2.18,2.96-3.12,4.53
		c-2.33,3.66-4.44,7.5-6.66,11.11c-2.36,3.75-4.67,7.61-6.87,11.42c-1.29,2.31-2.63,4.51-4.09,6.77c-0.53,0.96-1.28,1.75-1.95,2.56
		c-0.32,0.37-0.64,0.73-1.26,0.61c-0.37-0.32-0.47-0.83-0.49-1.32c0.04-0.94,0.06-1.79,0.27-2.67c0.61-4.17,1.24-8.43,1.68-12.67
		c0.38-4.63,1.05-9.26,1.44-13.9c0.3-3.04,0.58-6,1.05-8.98c0.12-0.62,0.19-1.36,0.26-2.1c0.08-1.59-0.5-2.94-2.02-3.76
		c-0.54-0.38-1.16-0.79-1.83-1.02l-10.19-3.57c-1.05-0.27-2.1-0.54-3.21-0.65c-1.9-0.29-3.34,0.55-4.08,2.38
		c-0.26,0.48-0.41,0.9-0.56,1.33c-0.75,2.41-1.5,4.82-2.16,7.25c-1.23,3.77-2.45,7.53-3.59,11.33c-1.17,4.17-2.52,8.27-3.95,12.35
		c-0.83,2.09-1.49,4.25-2.26,6.46l-3.88,11.61c-0.83,2.38-1.41,4.85-2.39,7.08c-1.57,3.65-2.85,7.3-4.13,10.95
		c-0.18,0.51-0.36,1.02-0.37,1.59c-0.25,1.53,0.38,2.71,1.8,3.3c2.09,0.83,4.31,1.32,6.49,1.61c1.99,0.32,3.45-0.32,4.45-2.63
		c0.44-0.99,0.77-1.92,1.1-2.86c1.43-4.08,2.77-8.18,4.2-12.26c0.6-1.7,1.08-3.34,1.64-4.96c0.72-2.32,1.32-4.59,2.21-6.85
		c1.37-3.91,2.91-7.75,4.45-11.6c0.27-0.76,1.49-4.53,2.6-4.14C674.57,139.38,674.23,140.88,674.17,141.62z M661.75,184.1l0.03-0.08
		l-0.05-0.12L661.75,184.1z M693.62,118.5c-0.23,0.4-0.32,0.65-0.32,0.65l0.2-0.03l0.03-0.08l-0.03,0.08l0.08,0.03
		C693.59,119.15,693.59,118.87,693.62,118.5z M695.54,117.65c0.08,0.03,0.08,0.03,0.05,0.12L695.54,117.65z"/>
	<path fill="currentColor" d="M759.71,206.43l0.14,0.11l1.85-2.44c2.12-2.79,4.25-5.59,6.3-8.44l-0.86-0.65l-5.56,7.31
		c-0.91,1.34-2.25,3.26-3.18,4.48c-0.6,0.79-1.2,1.58-1.73,2.42c-2.67,3.96-5.34,7.92-7.89,11.86c-0.96,1.42-1.67,2.8-2.57,4.27
		l-1.15,1.96c-0.53,0.84-1.29,1.84-1.91,2.51c-2.18,2.42-5,2.87-8.08,2c-0.74-0.22-1.42-0.51-2.39-1.02l-0.02-0.13
		c-2.55-1.26-5-2.79-7.17-4.55c-1.52-1.27-2.36-2.7-2.58-4.34l-0.62-4.54c-0.8-1.62-0.73-3.5-0.05-5.58
		c0.28-0.81,0.84-1.85,1.33-2.49c0.53-0.84,1.56-2.2,2.22-3.06c3.65-4.8,7.35-9.67,11.13-14.49c0.98-1.29,2.96-3.74,3.74-4.62
		l0.87-1.15c0.27-0.36,0.67-0.73,1-1.16l5.54-6.98c2.96-3.74,6.03-7.63,9-11.25l2.07-2.72c0.6-0.79,1.27-1.52,1.87-2.31
		c2.34-3.08,4.81-6.18,7.23-9.2c0.65-0.86,2-2.33,2.79-3.08c3.53-3.31,7.17-3.48,10.89-0.65c1.43,1.09,2.81,2.25,4.1,3.68
		c1.61,1.9,2.71,3.87,2.28,6.37l0.69,4.59c0.21,1.51-0.09,3.1-1.31,5c-0.36,0.63-1.02,1.49-1.56,2.2c-0.27,0.36-0.62,0.66-0.89,1.02
		l-3.21,4.23c0.36,0.27,0.66,0.62,1.09,0.94c2.56-2.92,5.22-5.98,7.71-8.95c3.06-3.44,6.12-5.52,11.78-1.22l2.58,1.96
		c2.4,2.05,3.36,4.36,2.87,6.93l0.64,4.22c0.21,1.51-0.08,3.22-1.04,5.09l-0.44,0.57c-2.74,3.91-6.09,8.6-8.9,12.45l-2.89,3.8
		c-0.98,1.29-1.87,2.31-2.78,3.65c-3.56,4.98-7.07,9.89-10.43,14.91c-3.74,5.52-7.65,11.25-11.7,16.43
		c-1.31,1.72-2.56,3.82-3.87,5.99c-0.36,0.63-0.95,1.54-1.71,2.54c-2.34,2.63-5.4,3.24-8.58,2.07c-0.61-0.24-1.04-0.56-1.4-0.84
		c-0.5-0.38-1-0.76-1.7-1.18c-1.49-1.02-2.9-1.98-4.23-3.21c-1.56-1.52-2.41-3.08-2.63-4.72l-0.63-4.67
		c-0.87-2.13-0.64-4.22,0.46-6.55c0.79-1.78,2.09-3.5,3.29-5.07c1.58-2.08,3.05-4.01,4.61-6.22
		C755.69,212.3,758.27,208.61,759.71,206.43z M762.38,210.5c-1.44,2.19-3,4.39-4.56,6.59c-1.56,2.2-3.14,4.28-4.72,6.36
		c-1.04,1.36-2.07,2.72-2.76,4.23c-0.91,1.79-0.65,3.24,0.83,4.7c1.7,1.63,3.71,2.71,5.5,4.07c0.14,0.11,0.29,0.22,0.48,0.25
		c1.44,0.64,2.68,0.34,3.68-0.82c0.49-0.65,0.91-1.34,1.27-1.97c1.36-2.24,2.67-4.41,4.25-6.49c4.05-5.17,7.74-10.62,11.48-16.14
		c3.36-5.02,6.92-10,10.49-14.98c1.89-2.63,3.94-5.03,5.77-7.59c2.98-4.07,5.89-8.19,8.79-12.31l0.33-0.43
		c0.8-1.65,0.56-2.97-0.89-4.18c-0.73-0.67-1.58-1.2-2.44-1.85c-2.65-2.02-4.19-1.04-5.64,0.58c-2.59,3.11-5.26,6.17-7.93,9.24
		c-0.22,0.29-0.44,0.57-0.72,0.8c-1.65,1.57-2.69,1.46-4.12,0.37l-0.29-0.22c-1.88-1.54-3.81-3.01-5.68-4.43
		c-0.43-0.33-0.81-0.73-1.18-1.12c-1.07-1.27-1.19-2.15-0.23-3.57c0.2-0.41,0.53-0.84,0.8-1.2c0.6-0.79,1.32-1.59,1.92-2.38
		l3.49-4.58c0.49-0.64,1.05-1.23,1.6-1.95c0.44-0.57,0.87-1.15,1.24-1.77c1.27-1.97,0.65-3.24-0.49-4.56
		c-1.05-1.14-2.22-2.14-3.44-3.06c-1.79-1.36-3.45-1.27-5.04,0.24c-0.85,0.82-1.69,1.77-2.39,2.7c-3.63,4.48-7.17,9.13-10.78,13.73
		l-0.44,0.57c-2.98,3.62-5.93,7.36-8.89,11.1l-5.54,6.98c-1.92,2.38-3.86,4.64-5.66,7c-3.78,4.82-7.43,9.62-11.08,14.42
		c-0.71,0.93-1.42,1.86-2,2.78c-0.38,0.5-0.64,0.99-0.87,1.6c-0.46,1.35-0.18,2.46,0.91,3.41c1.95,1.6,4.19,2.96,6.47,4.13
		c0.56,0.31,1.09,0.49,1.63,0.68c1.47,0.44,2.79,0.2,3.79-0.96c0.45-0.45,0.83-0.95,1.2-1.58c1.26-2.1,2.5-4.32,3.88-6.44
		c2.55-3.94,5.22-7.9,7.89-11.86c0.53-0.84,1.24-1.77,1.89-2.63c1.04-1.36,2.05-2.85,3.07-4.34l4.47-5.87
		c0.76-1,1.47-1.93,2.25-2.81c1-1.16,1.88-1.28,3.24-0.7c0.41,0.2,0.77,0.47,1.2,0.8l3.44,2.61c0.66,0.62,1.45,1.22,2.06,1.9
		c1.54,1.4,1.73,2.78,0.74,4.52c-0.31,0.56-0.62,1.11-1.06,1.69c-2.71,3.71-5.48,7.36-8.32,11.09l-2.78,3.65L762.38,210.5z"/>
	<path fill="currentColor" d="M791.66,284.1c-0.16-2.14,0.38-4.25,1.97-6.03c0.98-1.09,2.39-2.5,3.5-3.57c1.93-1.92,4.29-4.17,6.34-6.08
		c1.55-1.52,3.47-3.32,5.08-4.77l0.45-0.45l-0.71-0.93c-0.44-0.57-0.78-0.88-1-1.16l-1.95,1.15c-2.72,1.62-5.94,3.05-8.95,4.44
		l-4.74,2.25c-1.72,0.86-3.8,1.99-5.51,2.72c-0.95,0.39-1.38,0.71-2.92,1.21c-2.82,0.9-5.69,0.26-7.92-1.78
		c-1.09-0.98-1.98-2-2.74-3c-0.71-0.93-1.46-2.06-2.06-3.3c-0.84-1.85-1.16-3.3-0.97-4.69l0.61-4.54c-0.47-2.7,0.7-4.72,3.48-6.72
		c1-0.76,1.56-1.07,2.11-1.38l0.07-0.05c0.21-0.16,0.48-0.25,0.63-0.36c3.41-1.92,7.21-3.91,10.78-5.61
		c0.27-0.09,0.54-0.18,0.61-0.24c0.84-0.53,1.52-0.82,2.28-1.17l2.33-1.1c4.95-2.41,11.16-5.56,15.82-8.2
		c3.33-1.86,6.85-3.63,10.24-5.42l2.29-1.29c1.25-0.73,2.58-1.51,3.96-2.23l3.89-2.17l1.88-1.09l1.09-0.49l1.6-0.88
		c0.21-0.16,0.57-0.44,0.84-0.53c0.29-0.22,0.7-0.42,0.99-0.64c0.93-0.71,1.77-1.24,2.47-1.66c0.63-0.37,1.74-0.99,2.42-1.28
		c3.14-1.37,6.22-0.89,8.67,1.43l0.8,0.75c0.92,0.77,1.99,1.88,2.79,2.62c1.18,1.25,2.36,2.5,3.67,4.22
		c0.66,0.86,1.57,2.2,2.09,3.04c0.22,0.29,0.64,0.99,0.91,1.34c0.26,0.48,0.58,0.91,0.91,1.34l1.26,2.1l0.38,0.5
		c1.19,2.6,1.3,5.12,0.29,7.36l-0.51,4.23c-0.26,1.44-0.82,2.78-1.84,4.12l-1.48,1.92l0.02-0.13c-1.32,1.68-2.57,3.31-3.83,5.07
		c-2.28,3.1-5.07,6.12-7.85,9.15c-2.54,2.61-5.02,5.29-7.57,8.03l-1.29,1.43l0.02-0.13l-1.34,1.36c-3.73,3.86-7.66,7.76-11.29,10.87
		c-3.83,3.14-7.6,6.36-11.31,9.52l-5.19,4.63c-0.88,0.78-2.24,1.82-3.54,2.47c-3.14,1.37-6.12,0.59-8.49-1.34
		c-0.87-0.7-1.87-1.86-2.47-2.65c-0.71-0.93-1.4-1.99-1.9-3.08c-0.7-1.51-1-3.09-0.79-4.6L791.66,284.1z M815.95,257.9
		c0.38,0.5,0.57,1.04,0.88,1.6c0.39,0.95,0.19,1.89-0.36,2.65c-0.25,0.42-0.48,0.71-0.78,1.05l-2.79,2.58
		c-2.13,1.96-4.18,3.87-6.26,5.9c-2.2,2.01-4.27,4.05-6.34,6.08c-1.18,1.13-2.29,2.2-3.34,3.34c-1.12,1.2-1.06,2.62-0.42,4.05
		c0.8,1.65,1.95,3.15,3.33,4.37c1.09,0.98,2.46,1.3,3.89,0.66c0.9-0.46,1.68-1.06,2.49-1.78l5.19-4.63
		c3.77-3.22,7.62-6.49,11.45-9.63c4.35-3.65,8.31-7.8,12.26-11.83c3-3.19,5.93-6.33,8.91-9.39c2.62-2.79,5.2-5.66,7.48-8.75
		c1.26-1.76,2.58-3.44,3.9-5.12l1.53-1.85c1.09-1.39,1.29-2.91,0.54-4.49c-0.42-0.7-0.82-1.52-1.31-2.17l-2.04-2.97
		c-1.48-2.38-3.24-4.55-5.27-6.62c-1.07-1.11-2.21-2.16-3.36-3.21c-1.14-1.05-2.46-1.3-3.91-0.53c-0.61,0.24-1.24,0.6-1.74,0.99
		c-1.47,0.89-2.76,1.88-4.23,2.77c-1.54,0.95-3.12,1.7-4.71,2.57l-7.85,4.4c-4.21,2.19-8.43,4.38-12.53,6.72
		c-5.27,2.88-10.65,5.62-16.08,8.29c-5.24,2.63-10.64,5.05-15.73,8.02c-0.77,0.47-1.67,0.93-2.38,1.48c-1.7,1.18-2.05,2.36-1.21,4.2
		c0.95,1.99,2.33,3.65,3.87,5.08c1.09,0.98,2.33,1.28,3.68,0.82c0.86-0.21,1.69-0.61,2.51-1.01c3.43-1.59,6.82-3.38,10.31-5.03
		c2.87-1.28,5.81-2.62,8.54-4.24c0.91-0.58,2.01-1.08,2.98-1.59c1.31-0.66,2.5-0.43,3.46,0.53c0.63,0.54,1.14,1.05,1.63,1.7
		c0.67,0.73,1.15,1.5,1.75,2.29C814.58,256.11,815.31,256.92,815.95,257.9z M820.4,245.34c-0.84-1.4-0.22-2.66,0.86-3.48
		c0.36-0.27,0.83-0.4,1.24-0.6c2.94-1.79,5.88-3.57,8.87-5.29c1.95-1.15,4.03-2.28,6.17-3.34c0.29-0.22,0.75-0.35,1.15-0.42
		c1.51-0.25,2.72,0.75,2.77,2.3c0.06,0.97-0.44,1.8-1.12,2.55c-0.86,1.1-1.89,2.12-2.87,3.21l-8.48,9.07l-1.55,1.52
		c-1.29,0.98-2.37,0.9-3.42-0.33L820.4,245.34z"/>
	<path fill="currentColor" d="M846.81,302.83c2.54-1.16,6.21-2.89,9.69-4.35c2.74-1.15,5.6-2.24,8.37-3.31l1.99-0.83
		c0.42-0.17,0.83-0.35,1.28-0.44c-0.07-0.17-0.06-0.37-0.01-0.48c-0.22-1.47-0.09-2.79,0.39-3.97l1.64-4
		c0.15-2.21,1.32-4.07,3.61-5.61c0.55-0.33,1.26-0.72,2.59-1.28c1.49-0.62,3.49-1.46,4.97-1.88c4.79-1.61,7.89-0.27,10.1,4.56
		c0.62,1.5,1.35,3.24,1.79,5.2c0.51,1.45,0.95,2.73,1.51,3.85l6.57,15.01c0.49,1.16,0.92,2.44,1.13,3.63c0.49,2.33,0.07,4.36-1.29,6
		l-1.61,4.09c-0.53,1.29-1.58,2.52-2.94,3.47c-0.38,0.26-0.97,0.7-1.64,0.98l-4.82,2.01c-0.83,0.35-1.65,0.49-2.5,0.56
		c-2.89,0.33-5.15-0.87-7.03-3.5l-1.38-2.84l-0.56-1.33l-9.12,3.62l-8.16,3.12c-2.36,0.89-4.84,1.73-7.15,2.5l-6.62,2.38l-11.23,4.4
		c-0.5,0.21-1.36,0.47-1.86,0.68l-1.91,0.8c-2.49,1.04-4.86,2.13-7.32,3.26c-0.66,0.28-1.33,0.56-2.73,0.95
		c-3.56,0.81-6.81-0.66-8.45-3.88c-0.95-2.04-1.89-4.28-2.26-6.57l0.05-0.12c-0.28-1.83-0.17-3.44,0.36-4.74l1.88-4.59
		c0.43-2.23,1.81-4.07,4.16-5.45c2.09-1.07,4.58-2.11,6.74-3.01l2.08-0.87c0.7-0.19,1.11-0.37,1.53-0.54
		c4.85-1.93,9.67-3.95,16.48-6.79L846.81,302.83z M830.41,314.47c-0.66,0.28-1.33,0.56-2.03,0.75c-2.66,1.11-5.35,2.14-7.9,3.5
		c-1.72,1.01-2.34,2.34-1.99,4.34c0.31,1.92,1.08,3.74,1.89,5.45c0.67,1.38,2.09,1.96,3.6,1.62c0.7-0.2,1.36-0.47,2.03-0.75
		c2.46-1.12,4.91-2.25,7.4-3.29c1.25-0.52,2.61-0.99,3.85-1.51l11.23-4.41l6.78-2.45c2.31-0.77,4.71-1.58,7.07-2.47l8.08-3.08
		l9.04-3.58c0.58-0.24,1.08-0.45,1.7-0.61c1.27-0.24,2.38,0.08,2.98,1.29c0.58,0.93,1,1.92,1.42,2.92l1.21,2.42
		c0.74,1.06,1.71,1.53,2.9,1.33c0.49-0.01,0.93-0.1,1.27-0.24l4.82-2.01c0.42-0.17,0.71-0.4,1.09-0.65
		c1.06-0.74,1.58-1.83,1.22-3.15c-0.18-0.9-0.48-1.85-0.86-2.76l-6.54-14.93c-0.74-1.54-1.28-3.07-1.78-4.72
		c-0.34-1.52-0.97-3.01-1.56-4.42c-1.02-2.21-2.35-2.82-4.66-2.05c-1.56,0.46-3.06,1.08-4.55,1.71c-0.66,0.28-1.29,0.64-1.84,0.96
		c-1.22,0.8-1.66,1.87-1.47,3.25c0.15,1.3,0.76,2.51,1.25,3.67c0.31,0.75,0.62,1.5,0.82,2.19c0.29,1.15-0.14,2.01-1.03,2.67
		c-0.43,0.37-0.93,0.58-1.42,0.79c-1.16,0.49-2.44,0.92-3.69,1.45c-4.19,1.65-8.33,3.19-12.48,4.93c-4.48,1.88-8.9,3.92-11.36,5.04
		C840.08,310.53,835.26,312.54,830.41,314.47z"/>
	<path fill="currentColor" d="M861.64,399.26c1.03-1.57,2.24-2.87,3.47-3.9c4.12-3.47,8.65-5.25,13.59-5.41c2.25-0.08,4.51,0.21,6.78,0.76
		l2.37,0.82c2.38,1.09,4.68,2.54,6.55,4.55c2.43,2.71,4.16,5.71,5.43,8.73c0.69,1.69,1.02,3.48,1.08,5.19
		c0.05,1.62-0.17,3.07-0.56,4.79c-0.08,0.27-0.17,0.46-0.16,0.64c-0.08,0.36,0.45-0.02-0.24,1c-1.29,4.55-3.7,7.87-6.86,10.23
		l-2,2.14l0.26-0.28l-0.43,0.56c-2.52,2.7-5.7,4.43-9.63,5.46c-1.61,0.42-3.67,0.75-5.37,0.9c-1.8,0.15-4.24-0.13-5.96-0.52
		c-2.9-0.62-5.64-1.61-8.12-3.24l0-0.09c-4.98-3.34-7.66-8.03-7.86-13.96l0-0.09c-0.05-4.23,0.89-8.14,2.57-11.7l0.17-0.19
		c0.75-1.65,1.71-2.85,2.75-3.97L861.64,399.26z M868.59,423.52c2.03,1.37,4.3,2.11,6.66,2.66c1.45,0.31,3.08,0.53,4.61,0.38
		c1.62-0.14,3.23-0.38,4.75-0.79c5.62-1.45,9.48-4.64,10.99-10.46c0.16-0.55,0.33-1,0.4-1.54c0.64-2.45,0.64-4.89-0.33-7.19
		c-1.17-2.75-2.61-5.31-4.58-7.5c-1.31-1.49-2.88-2.51-4.7-3.26l-2.19-0.74c-6-1.6-11.36-0.25-16.08,3.7
		c-1.4,1.22-2.62,2.52-3.37,4.26c-1.43,3.02-2.22,6.29-2.19,9.8C862.7,417.33,864.72,420.95,868.59,423.52z"/>
</g>
<g>
	<path fill="currentColor" d="M334.91,506.27l4.88-2.1c0.87-0.47,2.45-1.15,3.44-1.58c0.91-0.39,2.48-1.07,3.51-1.41
		c1.07-0.46,2.78-1.29,3.94-1.99c0.25-0.11,0.38-0.26,0.63-0.37l2.58-1.3c0.79-0.44,1.91-1.02,2.91-1.45
		c0.17-0.07,0.37-0.06,0.53-0.13l1.74-0.75c4.3-1.16,7.61,0.84,9.34,4.41c1.05,2,2.12,3.79,3.22,5.67l0.58,1.12
		c0.11,0.25,0.3,0.46,0.4,0.71c0.26,0.38,0.63,1,0.77,1.33l2.59,6.04c1.36,3.63,2.11,7.42,2.02,11.08c-0.13,3.58-1.03,6.71-2.72,9.4
		l-1.23,3.07c-1.42,3.55-3.92,6.39-7.55,8.63c-1.33,0.77-2.75,1.57-4.65,2.39c-2.73,1.17-5.55,1.9-8.6,2.33
		c-3.17,0.38-6.35,0.28-9.41-0.46l-0.86,2.33c-0.71,1.77-1.82,3.52-3.16,5.18l-0.41,0.18l-0.81,0.84c-2.63,2.31-5.33,4.25-8.31,5.73
		l-1.74,0.75l-2.72,0.97c-2.39,0.83-4.85,1.69-7.71,2.34l-1.55,0.27c-1.55,0.27-3.34,0.65-4.84,0.81
		c-5.87,0.47-11.54-1.31-16.01-5.56c-3.32-3.18-5.86-6.79-7.6-10.84c-1.46-3.39-2.77-7.14-3.49-10.85l-0.23-1.67
		c-0.07-1.54,0.13-2.9,0.68-4.11l1.51-3.78c0.36-2.12,1.28-4.08,2.61-5.33c0.81-0.84,2.17-2.01,3.46-2.66
		c3.04-1.6,6.4-3.34,9.56-4.89c5.07-2.57,11.15-5.28,16.19-7.45L334.91,506.27z M320.16,517.31c-5.38,2.31-10.71,4.7-15.95,7.34
		c-3.24,1.59-6.35,3.22-9.47,4.85c-0.96,0.51-1.72,1.23-2.49,1.95c-0.98,0.91-1.45,2.09-1.37,3.43l0.2,1.38
		c0.72,3.51,1.86,6.84,3.25,10.07c1.56,3.64,3.8,6.79,6.63,9.5c3.63,3.43,7.78,4.88,12.65,4.36c2.07-0.2,4.03-0.65,6.03-1.02
		c3.34-0.65,6.4-1.97,9.57-3.04l1.65-0.71c2.66-1.34,5.05-3.05,7.26-4.98c0.51-0.41,0.9-0.88,1.37-1.37c1.35-1.66,2.3-3.54,2.55-5.7
		l0.21-1.56c0.32-1.31,1.07-1.83,2.35-1.6l2.1,0.57c2.78,0.77,5.59,0.93,8.36,0.52c4.18-0.52,8.02-2.08,11.61-4.21
		c4.35-2.65,6.59-6.55,6.76-11.62c0.1-3.18-0.6-6.4-1.71-9.45c-0.73-1.94-1.67-3.89-2.49-5.79c-0.25-0.58-0.54-1.04-0.88-1.58
		c-1.36-2.26-2.76-4.59-3.99-7c-0.83-1.7-2.27-2.55-4.11-2.05c-0.5,0.21-1.11,0.38-1.69,0.63c-0.83,0.36-1.7,0.83-2.58,1.3
		c-2.57,1.3-5.08,2.77-7.81,3.94c-2.1,0.81-4.25,1.73-6.28,2.7c-1.74,0.75-3.52,1.61-5.29,2.27L320.16,517.31z M316.36,545.39
		c-3.78-0.14-6.49-2.11-8.24-5.27c-0.88-1.58-0.46-3.13,1.12-4.01l5.85-2.81l7.13-3.46l2.32-1c0.53-0.13,1.15-0.3,1.71-0.34
		c1.02-0.14,1.8,0.31,2.4,1.03c1.38,1.85,2.3,5.58,0.65,8.34c-0.59,1.14-1.42,2.18-2.4,3.09c-1.57,1.36-3.25,2.47-5.23,3.33
		C320.01,545,318.22,545.38,316.36,545.39z M353.27,516.4c0.66-0.28,1.24-0.53,1.86-0.7c1.06-0.26,2.09,0.08,2.77,0.97
		c1.61,2.15,1.98,4.83,0.67,7.25c-0.58,0.93-1.19,1.79-2.08,2.46c-1.77,1.35-3.64,2.25-5.8,2.69c-2.11,0.32-3.98-0.15-5.64-1.49
		c-1.08-0.91-2.06-2.05-2.99-3.32c-0.78-1.13-0.46-2.45,0.67-3.23l5.95-2.56l-0.04-0.08C350.21,517.71,351.75,516.96,353.27,516.4z"
		/>
	<path fill="currentColor" d="M320.8,599.28c-0.13-1.89,0.38-3.81,1.61-5.34c0.43-0.64,1.21-1.41,1.94-1.93c1.95-1.61,4.41-3.58,6.51-4.97
		c2.05-1.46,3.91-2.89,5.91-4.43l0.59-0.42c2.07-1.59,4.95-3.75,6.91-5.04c0.29-0.21,0.61-0.54,0.9-0.75l3.81-2.72
		c3.42-2.33,6.85-4.66,10.25-6.86c0.59-0.42,2.05-1.46,2.54-1.7c0.59-0.42,1.88-1.23,2.54-1.7c2.05-1.46,4.38-3.01,6.56-4.45
		l0.37-0.26c1.88-1.23,3.84-2.52,5.71-3.62c0.29-0.21,1.1-0.78,1.37-0.87c0.37-0.26,1.01-0.61,1.37-0.87l0.51-0.37
		c1.52-0.97,3.18-2.05,4.75-2.94c3.27-1.78,6.75-1.38,9.58,0.58l0.66,0.3c1.49,1.48,2.99,2.95,4.01,4.55
		c0.78,1.1,1.14,2.06,1.39,2.88c0.43,1.69,0.46,3.43-0.25,4.93l-0.81,4.45c0.07-0.05,0.02-0.13,0.09-0.18l-0.06,0.38
		c-0.17,1-0.57,1.84-1.36,2.74c-0.65,0.79-1.59,1.8-2.33,2.32c-2.15,1.64-5.3,3.89-6.99,5.09l-0.22,0.16
		c-1.3,0.81-2.16,1.32-3.18,2.05l-3.55,2.31l-6.98,4.31c-3.46,2.13-7.28,4.52-10.7,6.85c-4.21,2.78-8.29,5.58-12.4,8.5
		c-1.32,0.94-2.62,1.75-3.88,2.77c0.26,0.37,0.6,0.68,0.8,0.97c0.63,0.88,1.91,2.84,2.19,3.85c0.48,1.76,0.42,4.01-0.42,5.93
		l-0.7,4.14c-0.15,0.88-0.44,1.86-0.97,2.68c-1.24,1.99-2.9,3.84-5.25,5.51c-2.72,1.61-5.12,1.66-7.65-0.19
		c-1.22-0.79-1.98-1.69-2.66-2.64c-1.46-2.05-3.48-4.26-5.5-6.47c-0.26-0.37-0.75-0.9-1.01-1.27c-0.91-1.12-2.24-2.83-2.93-4.11
		l-0.89-1.25c-0.52-0.73-1.15-1.61-1.44-2.18c-0.63-0.88-1.02-1.59-1.34-2.81c-0.26-1.14-0.39-2.26-0.21-3.39L320.8,599.28z
		 M394.4,563.3c0.59-0.42,1.05-0.86,1.4-1.44c0.56-0.62,0.68-1.37,0.43-2.19c-0.17-0.54-0.39-1.16-0.7-1.6
		c-0.81-1.3-1.87-2.31-2.98-3.4l-0.59-0.36c-1.48-1.15-3.06-1.35-4.71-0.4c-1.72,1-3.38,2.08-5.05,3.15
		c-2.96,1.89-5.98,3.71-8.89,5.67c-2.18,1.44-4.36,2.88-6.41,4.34c-5.16,3.46-10.3,6.79-15.41,10.32c-1.59,1.02-3.03,2.27-4.64,3.42
		c-4.6,3.17-8.81,6.72-13.4,9.88c-2.25,1.49-4.27,3.15-6.29,4.82c-0.44,0.31-0.83,0.7-1.16,1.16c-0.8,0.9-0.96,1.9-0.63,2.99
		c0.2,0.74,0.59,1.46,1.01,2.04c0.76,1.23,1.62,2.27,2.33,3.42c0.88,1.7,2.19,3.08,3.31,4.49c2.02,2.21,4.03,4.42,5.81,6.91
		c0.42,0.59,0.91,1.12,1.5,1.48c1.02,0.82,2.05,0.86,3.13,0.2c1.61-1.15,2.89-2.61,3.94-4.24c0.52-0.82,0.57-1.84,0.26-2.73
		c-0.3-0.89-0.8-1.75-1.45-2.5c-1.33-1.71-2.71-3.49-3.94-5.37c-1.1-1.54-0.79-2.97,0.59-4.29c0.17-0.23,0.39-0.39,0.68-0.6
		c2.59-1.95,5.19-4.03,7.91-5.96c4.11-2.92,8.34-5.83,12.54-8.61c3.57-2.43,7.17-4.67,10.77-6.9l6.91-4.26
		c2.08-1.26,4.06-2.67,6.81-4.41C389.4,566.97,391.96,565.15,394.4,563.3z"/>
	<path fill="currentColor" d="M384.62,671.73c-0.56-2.07-0.43-4.25,0.8-6.29c0.76-1.25,1.88-2.91,2.76-4.17c1.53-2.25,3.42-4.91,5.08-7.17
		c1.24-1.79,2.78-3.92,4.08-5.65l0.35-0.53l-0.87-0.78c-0.54-0.48-0.93-0.71-1.2-0.95l-1.7,1.5c-2.37,2.11-5.25,4.12-7.95,6.05
		l-4.22,3.11c-1.53,1.17-3.36,2.67-4.89,3.71c-0.86,0.56-1.22,0.96-2.64,1.74c-2.6,1.42-5.53,1.33-8.11-0.25
		c-1.25-0.76-2.32-1.59-3.26-2.43c-0.87-0.78-1.82-1.75-2.65-2.85c-1.18-1.66-1.76-3.02-1.84-4.42l-0.26-4.57
		c-0.97-2.56-0.2-4.77,2.14-7.26c0.84-0.94,1.33-1.35,1.81-1.76l0.06-0.07c0.18-0.2,0.43-0.34,0.55-0.48
		c2.98-2.53,6.34-5.2,9.52-7.54c0.25-0.14,0.49-0.28,0.55-0.35c0.73-0.68,1.34-1.09,2.01-1.58l2.08-1.52
		c4.4-3.31,9.9-7.57,13.98-11.04c2.92-2.46,6.04-4.86,9.03-7.26l2.01-1.71c1.09-0.95,2.25-1.97,3.47-2.93l3.41-2.87l1.64-1.43
		l0.98-0.69l1.4-1.16c0.18-0.2,0.48-0.54,0.73-0.68c0.24-0.27,0.61-0.54,0.85-0.81c0.78-0.87,1.51-1.55,2.11-2.09
		c0.55-0.48,1.52-1.3,2.13-1.71c2.82-1.94,5.94-2.05,8.78-0.24l0.92,0.59c1.05,0.58,2.31,1.46,3.24,2.05
		c1.39,1.01,2.79,2.01,4.4,3.45c0.81,0.72,1.95,1.87,2.63,2.59c0.27,0.24,0.81,0.85,1.15,1.15c0.34,0.43,0.75,0.79,1.15,1.15
		l1.63,1.82l0.47,0.42c1.66,2.33,2.24,4.78,1.68,7.17l0.3,4.25c0.02,1.46-0.29,2.88-1.03,4.39l-1.09,2.16l-0.01-0.13
		c-0.98,1.9-1.89,3.74-2.8,5.7c-1.65,3.47-3.82,6.97-5.98,10.47c-2,3.04-3.93,6.15-5.92,9.32l-0.99,1.65l-0.01-0.13l-1.06,1.59
		c-2.94,4.5-6.06,9.07-9.04,12.81c-3.17,3.81-6.26,7.68-9.3,11.48l-4.22,5.53c-0.71,0.93-1.85,2.21-3.01,3.1
		c-2.82,1.94-5.89,1.73-8.59,0.29c-0.99-0.52-2.19-1.47-2.92-2.13c-0.87-0.78-1.75-1.69-2.44-2.67c-0.97-1.35-1.56-2.84-1.65-4.37
		L384.62,671.73z M403.51,641.41c0.47,0.42,0.75,0.91,1.16,1.4c0.56,0.86,0.55,1.82,0.15,2.67c-0.17,0.46-0.34,0.78-0.57,1.18
		l-2.25,3.06c-1.72,2.33-3.38,4.59-5.03,6.97c-1.78,2.39-3.43,4.78-5.08,7.17c-0.95,1.33-1.83,2.59-2.65,3.91
		c-0.88,1.39-0.55,2.77,0.35,4.06c1.1,1.47,2.51,2.73,4.09,3.66c1.25,0.76,2.66,0.81,3.95-0.09c0.79-0.62,1.45-1.36,2.11-2.22
		l4.22-5.53c3.1-3.87,6.26-7.81,9.42-11.62c3.58-4.41,6.69-9.23,9.8-13.93c2.34-3.7,4.62-7.33,6.97-10.91
		c2.05-3.24,4.03-6.54,5.69-10.01c0.91-1.96,1.89-3.87,2.86-5.77l1.16-2.1c0.8-1.57,0.72-3.1-0.32-4.51
		c-0.54-0.61-1.09-1.34-1.7-1.88l-2.56-2.53c-1.9-2.06-4.04-3.85-6.43-5.5c-1.26-0.89-2.58-1.7-3.9-2.52s-2.66-0.81-3.94,0.22
		c-0.55,0.35-1.1,0.83-1.52,1.3c-1.27,1.16-2.35,2.36-3.63,3.52c-1.33,1.22-2.74,2.26-4.14,3.42l-6.88,5.8
		c-3.72,2.95-7.45,5.9-11.04,8.97c-4.63,3.83-9.39,7.54-14.22,11.19c-4.64,3.57-9.49,6.97-13.92,10.85
		c-0.67,0.61-1.46,1.23-2.06,1.9c-1.45,1.48-1.57,2.7-0.39,4.36c1.31,1.78,2.98,3.15,4.76,4.26c1.25,0.76,2.53,0.81,3.77,0.11
		c0.81-0.36,1.54-0.91,2.28-1.47c3.06-2.21,6.05-4.61,9.18-6.89c2.58-1.8,5.21-3.67,7.58-5.78c0.79-0.75,1.77-1.44,2.62-2.12
		c1.16-0.89,2.37-0.9,3.5-0.13c0.72,0.41,1.32,0.82,1.92,1.36c0.8,0.59,1.41,1.26,2.15,1.92
		C401.83,639.91,402.7,640.57,403.51,641.41z M405.51,628.24c-1.09-1.21-0.72-2.57,0.18-3.58c0.3-0.33,0.73-0.55,1.1-0.83
		c2.55-2.31,5.09-4.62,7.71-6.87c1.7-1.5,3.53-3,5.42-4.45c0.24-0.27,0.67-0.48,1.05-0.63c1.44-0.53,2.82,0.22,3.16,1.74
		c0.24,0.94-0.09,1.85-0.61,2.71c-0.63,1.25-1.46,2.44-2.21,3.69l-6.61,10.5l-1.24,1.79c-1.08,1.21-2.16,1.33-3.42,0.32
		L405.51,628.24z"/>
	<path fill="currentColor" d="M433.38,702.5c-1.09-2-1.69-4.14-1.85-6.36c-0.32-4.23,0.4-9.86,1.7-14.26c0.99-3.44,2.39-6.88,4.07-10.06
		c1.08-1.87,2.02-4.23,2.79-6.67c0.72-1.96,1.45-3.92,2.79-6.47c0.25-0.48,0.42-1,0.67-1.48l0.79-1.51
		c0.88-1.87,2.27-4.71,3.23-6.54c0.33-0.64,0.63-1.4,0.97-2.03l1.05-1.99c1.13-2.15,2.51-4.58,4.08-6.8
		c1.08-1.67,2.45-3.49,3.92-4.95c1.73-1.74,3.76-2.9,6.31-3.7c4.01-1.25,8.24-1.36,11.77-0.53c3.49,0.71,6.97,1.83,10.24,3.14
		c2.35,1.13,4.18,2.5,5.71,4.42c2.32,2.95,3.62,6.07,4.08,9.46l0.83,2.88l-0.11-0.36l0.27,0.65c0.72,2.31,0.95,4.77,0.78,7.42
		c-0.3,3.09-1.14,6.82-1.88,9.58c-0.87,3-2.09,5.71-3.35,8.51c-0.17,0.32-0.34,0.84-0.51,1.16l-0.46,0.88
		c-0.38,0.72-0.71,1.35-1.71,2.86c-2.32,3.25-5.19,4.08-8.8,3c-1.4-0.43-3.16-0.95-4.6-1.5l-0.08-0.04l-0.08-0.04
		c1.82,1.57,2.87,3.64,2.9,5.9l1.33,4.05c0.34,1.09,0.44,2.26,0.25,3.59l-0.08-0.04c-0.06,1.09-0.28,1.89-0.33,2.57
		c-1.25,4.32-2.75,8.72-5.29,12.98c-0.54,0.83-1.45,2.18-2.4,3.41c-1.69,2.06-3.69,3.55-5.93,4.51c-4.27,1.93-8.75,2.72-13.6,1.7
		l-5.53-1.48c-2.93-0.62-5.07-2.16-6.89-3.72c-1.03-0.95-2.17-2.26-3.27-3.65c-1.3-1.6-2.15-3.26-2.72-5.09L433.38,702.5z
		 M463.04,657.07c0.84-1.59,1.83-3.1,3.15-4.45c1.56-1.62,3.39-2.59,5.69-2.71c1.89-0.12,3.37,0.75,4.38,2.3
		c1.02,1.55,1.3,3.33,0.86,5.13c-0.43,1.6-1.03,3.12-1.62,4.64c-0.59,1.52-1.35,2.95-1.82,4.43c-0.9,2.48-0.28,4.02,2.16,4.79
		c1.44,0.55,2.84,0.98,4.24,1.41c1.76,0.52,3.1,0.1,4.17-1.37c0.75-1.03,1.25-2.19,1.84-3.3c1.31-2.87,2.69-5.7,3.52-8.83
		c0.82-2.92,1.53-5.81,1.79-8.82c0.28-4.02-0.82-7.54-3.29-10.77c-1.1-1.39-2.41-2.38-4.04-3.14c-2.99-1.27-6.08-2.17-9.28-2.84
		c-3.17-0.75-6.39-0.61-9.55,0.37c-1.7,0.53-3.17,1.39-4.44,2.65c-1.27,1.26-2.35,2.73-3.35,4.24c-2.32,3.25-4.12,6.88-5.89,10.43
		c-1.67,3.19-3.15,6.38-4.7,9.53c-1,1.91-1.73,3.87-2.45,5.83c-0.82,2.52-1.83,5.04-3.17,7.38c-1.55,2.95-2.74,5.98-3.69,9.15
		c-1.25,4.12-1.74,8.34-1.46,12.65c0.2,2.34,0.96,4.57,2.49,6.49c0.86,1.06,1.81,2.17,2.84,3.12c1.38,1.24,2.93,2.35,4.86,2.75
		l5.65,1.44c3.85,0.8,7.45,0.15,10.9-1.39c1.71-0.73,3.18-1.79,4.33-3.21c0.7-0.95,1.45-1.98,2.11-3.06
		c2.17-3.74,3.58-7.78,4.79-11.82c0.13-0.64,0.27-1.28,0.32-1.97c0.19-1.53-0.35-2.83-1.58-3.78c-1.15-0.91-2.5-1.62-4.03-2.01
		c-2-0.44-3.18,0.06-4.14,1.89c-0.5,0.96-0.92,1.95-1.35,2.95c-0.97,2.24-2.06,4.31-3.51,6.29c-0.87,1.07-1.77,2.02-3.11,2.63
		c-1.5,0.74-3.03,0.75-4.51,0.07c-2.43-1.18-3.95-3.7-3.74-6.44c0.06-0.88,0.28-1.89,0.54-2.77c0.72-1.96,1.48-3.79,2.29-5.71
		c2.07-4.91,4.38-9.7,6.77-14.44L463.04,657.07z M469.73,672.59c-1.45-1.88-1.52-4.46-0.29-7.78l0.64-2c-0.58,0.71-1,1.51-1.42,2.31
		l-4.98,9.68c-2.39,4.74-4.57,9.29-6.65,14.2l-0.67,1.48c0.62-0.99,1.16-1.83,1.62-2.71c0.38-0.72,0.75-1.43,1.13-2.35
		c0.42-1,0.84-2,1.51-3.27c2.05-3.9,4.69-5.06,9.1-4.17c0.8,0.22,1.56,0.51,2.4,0.85c-0.51-0.57-0.86-1.27-1.09-1.99L469.73,672.59z
		"/>
	<path fill="currentColor" d="M532.33,654.4l1.5,2.51l0.5-0.52l-0.11,0.07c2.03-2.18,5.16-3.16,8.04-2.43c1.16,0.2,2.36,0.59,3.49,0.88
		l4.45,1.12c0.35,0.09,1.09,0.46,1.66,0.79c2.03,1.16,3.4,2.71,3.88,4.5l2.42,4.04c1.09,1.94,0.89,4.21-0.67,6.7l-2.43,3.01
		c-0.02,0.09-0.26,0.31-0.28,0.39l-13.25,16.9l-0.44,0.63c-0.44,0.63-0.7,1.31-0.77,1.94l-0.11,2.66l-0.09-0.02l0.17,4.13
		c0.02,2.88,0.14,5.7,0.25,8.6c0.06,4.56,0.58,9.52,1.29,14.8c0.37,2.97,0.54,5.98,0.79,9.02l0.15,0.13l0.45,4.48l-0.02,0.83
		c-0.33,5.02-2.7,7.77-7.37,7.89c-1.86,0-3.86-0.14-5.96-0.29l0.07,0.11c-1.2-0.02-2.01-0.13-2.99-0.29
		c-2.51-0.35-4.32-1.64-5.43-3.5l-2.42-4.04c-0.59-0.61-1.07-1.29-1.44-2.03c-1.27,2.46-3.85,3.86-7.54,3.77
		c-2.01-0.13-4.21-0.22-6.29-0.47l-0.07-0.11c-0.74,0-1.38-0.07-2.12-0.44c-1.79-0.63-3.1-1.71-4.03-3.15l-2.29-3.82
		c-1.33-1.36-2.18-3.15-2.31-5.22c-0.04-0.94,0.09-1.83,0.24-2.82l0.62-2.44c0.09-0.35,0.09-0.72,0.18-1.07l0.26-1.05
		c0.86-3.03,1.52-6.39,2.15-9.67c0.09-0.35,0.11-0.81,0.22-1.24l2.5-9.95c0.2-0.79,0.5-1.64,0.7-2.42c0.59-2.36,1.23-4.89,1.91-7.22
		l0.29-1.13c0.66-2.25,1.38-4.76,2.11-6.89c0.11-0.44,0.4-1.57,0.57-1.9c0.11-0.44,0.44-1.37,0.55-1.81l1.47-5.11l3.22-10.6
		c0.07-0.26,0.24-0.96,0.42-1.29c0.09-0.35,0.28-0.76,0.37-1.11l0.18-0.7c0.46-1.46,0.99-3.19,1.49-4.45
		c0.26-1.05,0.75-2.23,1.23-3.03c1.36-2.44,3.8-4.05,6.62-4.18c0.94-0.04,1.94,0.02,3.08,0.31l2.62,0.66
		c1.05,0.26,2.22,0.75,2.92,1.29l-0.02,0.09C530.68,651.38,531.83,652.7,532.33,654.4z M522.54,677.46l0.88-3.49
		c0.68-2.33,1.36-4.67,1.95-7.03c0.55-2.18,1.18-4.34,1.8-6.42c0.26-1.05,0.61-2.07,0.79-3.14c0.33-1.68-0.24-2.75-1.7-3.58
		c-0.39-0.29-0.89-0.5-1.33-0.61l-2.62-0.66c-0.61-0.15-1.18-0.11-1.83-0.09c-1.2-0.02-2.18,0.56-2.73,1.63
		c-0.39,0.83-0.79,1.66-1.01,2.53c-0.88,2.38-1.6,4.89-2.39,7.29l-3.2,10.52l-1.45,5.02c-1.18,3.97-2.46,7.92-3.55,11.91
		c-1.16,3.88-2.06,7.83-3.16,11.83l-1.58,6.28c-0.84,4.06-1.61,8.23-2.7,12.22c-0.35,1.4-0.59,2.73-0.92,4.04
		c-0.09,0.72-0.18,1.44-0.18,2.18c0.02,1.4,0.8,2.34,2.09,2.75c0.5,0.22,0.94,0.33,1.4,0.35c2.07,0.24,4.08,0.38,6.09,0.51
		c2.55,0.18,3.73-1.19,4.09-3.33l0.13-0.52c0.2-2.27,0.49-4.52,0.77-6.77c0.46-2.95,0.86-6,1.5-8.9c0.57-2.27,1.84-3.99,3.44-5.54
		c0.26-0.31,0.59-0.5,0.9-0.61c0.55-0.33,1.31-0.04,1.53,0.57c0.17,0.42,0.26,0.81,0.26,1.18c0.06,0.85,0.13,1.7,0.11,2.53
		c-0.05,3.51-0.01,7.05,0.31,10.57l0.77,10.96c0.06,0.85,0.11,1.79,0.35,2.69c0.35,1.57,1.26,2.73,2.96,2.97
		c0.98,0.15,1.9,0.2,2.9,0.27c1.72,0.16,3.56,0.25,5.33,0.23c2.05-0.04,3.08-1.17,3.21-3.18l-0.02-1.03
		c-0.45-4.47-0.79-9.02-1.36-13.43c-0.67-5.09-1.16-10.13-1.26-15.26c-0.21-4.32-0.25-8.6-0.37-12.9l0.11-2.66
		c0.02-1.57,0.53-2.84,1.38-4.01l0.72-1.03l12.86-16.44c0.94-1.16,1.86-2.22,2.71-3.4c1.07-1.68,0.68-3.08-1.15-3.91
		c-0.15-0.13-0.33-0.18-0.5-0.22c-2.53-0.64-5.04-1.36-7.51-1.89c-1.48-0.37-2.82,0.13-3.82,1.17c-0.48,0.44-0.9,0.98-1.22,1.55
		c-1.42,1.96-2.76,3.95-4.09,5.93l-7.02,10.21l-1.68,1.9c-0.13,0.15-0.5,0.52-1.03,0.39C522.04,679.46,522.48,678.09,522.54,677.46z
		"/>
	<path fill="currentColor" d="M594.83,658.51l0.63-0.01c1.26-0.02,2.79-0.05,4.33,0.29c2.62,0.59,4.89,1.72,6.9,3.67
		c0.83,0.89,1.65,1.77,2.39,2.75l2.01,1.86c2.01,1.86,3.58,3.99,4.6,6.41l-0.09-0.09c1.78,4.2,2.66,8.42,2.28,12.74l0,0.09
		c-0.08,0.9-0.15,1.71-0.14,2.16l-0.13,2.88c-0.22,3.15-0.89,6.14-1.83,9.03c3.06,0.04,5.24,1.17,6.45,3.5l3.2,3.01
		c1.19,1.15,1.93,2.76,2.15,4.83c0.11,1.35,0.13,2.7-0.11,4.32c-0.09,0.27-0.08,0.63-0.08,0.81c-0.72,5.32-1.54,10.74-3.17,15.44
		c-0.26,0.72-0.16,1.35,0.3,1.97l4.24,6.14c0.37,0.53,0.74,1.07,1.29,2.14c2.79,5.8,0.43,9.62-5.95,10.18l-1.53,0.03
		c-1.17-0.07-2.7,0.13-4.22,0.34l-1.8,0.21c-0.54,0.1-1.35,0.2-2.07,0.21c-2.07,0.03-4.33-0.83-5.97-2.15l-0.55-0.44l-0.36,0.19
		c-2.23,1.21-5,2.42-7.33,3.18c-1.88,0.57-3.94,0.96-5.92,1c-1.62,0.03-3.15-0.13-4.69-0.46c-2.08-0.42-4.06-0.92-5.51-1.35
		c-2.62-0.86-4.9-2.26-6.63-3.94l-2.38-2.3c-3.82-2.46-6.22-6.29-7.39-11.4c-0.39-1.97-0.7-4.4-0.46-6.29
		c0.13-2.88,0.98-5.96,2.29-8.32l0,0.09c2.62-4.72,5.43-9.45,9.32-13.56l0.36-0.28c0,0,0.09-0.09,0.09-0.18l-0.65-1.34l0,0.09
		c-2.13-3.48-3.89-6.87-5.47-10.08c-1.03-2.32-1.96-4.47-2.46-7.16c-0.38-1.52-0.5-3.05-0.53-4.76c-0.03-1.62,0.04-3.06,0.38-4.6
		c0.5-2.44,1.36-4.97,2.4-7.24c2.35-4.72,5.9-7.93,10-10.6c2.14-1.21,4.28-2.32,6.98-2.72c0.81-0.1,1.62-0.21,2.97-0.23
		c0.27,0,0.54-0.1,0.72-0.1l0.54-0.01C594.38,658.43,594.65,658.52,594.83,658.51z M590.58,663.26c-1.88,0.3-3.58,1.14-5.19,2.06
		c-3.47,2.22-6.49,4.88-8.32,8.69c-0.96,2-1.64,4.08-2.06,6.33c-0.5,2.44-0.37,4.87,0.12,7.29c0.39,2.15,1.24,4.21,2.17,6.27
		c1.58,3.3,3.26,6.52,5.2,9.64l1.39,2.5c0.47,0.98,0.39,1.97-0.22,2.88c-0.44,0.64-0.97,1.28-1.5,1.82
		c-3.54,3.75-6.17,8.11-8.62,12.56c-1.14,2-1.73,4.17-1.78,6.51c-0.15,1.71,0.05,3.33,0.35,5.03c1.07,4.93,3.92,8.4,8.8,10.03
		c1.63,0.51,3.34,0.94,4.97,1.27c2.89,0.58,5.77,0.45,8.54-0.41c2.24-0.76,4.38-1.6,6.43-2.8l1.87-1.02
		c0.89-0.37,1.62-0.21,2.35,0.32l1.37,1.24c0.91,0.89,2.09,1.32,3.35,1.3c0.54-0.01,0.99-0.11,1.44-0.2
		c2.25-0.22,4.49-0.7,6.83-0.56l1.26-0.02c2.52-0.22,3.48-1.77,2.36-4.09c-0.28-0.54-0.65-1.07-1.02-1.6l-4.24-6.14
		c-1.29-1.78-1.59-3.66-0.82-5.84c1.72-4.89,2.36-10.12,3.08-15.26c0.16-1.08,0.14-2.25,0.03-3.42c-0.21-1.89-1.31-2.86-3.2-2.83
		c-0.45,0.01-0.9,0.1-1.26,0.11l-4.13,0.7c-0.54,0.1-0.99,0.2-1.52,0.38c-1.25,0.47-2.05,1.29-2.12,2.64l-0.24,2.16
		c-0.08,0.72-0.16,1.53-0.32,2.26c-0.17,0.54-0.71,0.73-1.16,0.56l-0.73-0.53c-1.01-0.97-1.83-2.04-2.39-3.29
		c-0.56-1.07-0.58-2.24-0.05-3.33c0.35-0.82,0.78-1.63,1.22-2.36c1.22-2.18,2.36-4.27,3.31-6.62c1.38-3.44,2.41-6.97,2.62-10.75
		c0.15-1.8,0.12-3.6,0.27-5.41c0.39-3.7-0.39-7.19-1.88-10.68c-0.75-1.88-1.95-3.48-3.5-4.89c-1.37-1.33-3-2.11-4.9-2.53
		c-1.45-0.34-2.97-0.22-4.5-0.29C593.1,663.04,591.84,663.06,590.58,663.26z M588.12,733.33c-1.99-0.87-3.1-2.56-2.96-4.72
		c0.08-0.9,0.24-1.8,0.59-2.62c0.69-1.9,1.74-3.45,3.25-4.91c0.18-0.18,0.35-0.46,0.62-0.55c1.07-0.83,1.97-0.75,2.88,0.13
		c0.27,0.27,0.64,0.62,0.83,0.98l4.43,6.95c0.28,0.54,0.47,1.16,0.57,1.7c0.1,0.81-0.16,1.44-0.78,1.9
		c-0.45,0.28-0.89,0.64-1.43,0.83c-1.34,0.56-2.77,0.95-4.39,0.97C590.57,734.01,589.3,733.76,588.12,733.33z M589.13,679.13
		c0.68-2.35,4.44-3.94,6.82-1.37c1.01,1.06,1.39,2.41,1.41,3.76c-0.04,3.33-0.61,6.58-1.91,9.66c-0.17,0.36-0.44,0.73-0.7,1
		c-0.62,0.64-1.43,0.65-1.98-0.06c-0.37-0.35-0.55-0.8-0.74-1.25c-0.84-1.79-1.59-3.57-2.34-5.45c-0.47-1.34-0.85-2.69-0.97-4.21
		C588.8,680.57,588.87,679.85,589.13,679.13z M589.59,729.25c0.09,0.09,0.09,0.18,0.18,0.18L589.59,729.25z"/>
	<path fill="currentColor" d="M659.18,660.79l-0.19-1.74c-0.03-0.66-0.11-1.77-0.05-2.45c0.32-3.04,2.09-5.43,5-6.67
		c0.94-0.31,2.48-0.82,3.36-1.02c0.77-0.25,2.17-0.62,2.71-0.7c0.17-0.06,0.46-0.06,0.63-0.11l0.43-0.14
		c2.99-0.7,5.64-0.16,7.82,1.59l4.07,1.97c1.14,0.57,2.07,1.4,3.12,2.57l-0.08,0.03l3.46,4.45l-1.95-5.04
		c-0.48-0.88-0.73-2.22-0.9-3.02l-0.17-0.51c-0.53-3.9,1.13-6.63,4.32-8.16l1.2-0.4c0.34-0.11,1.28-0.42,1.82-0.51l-0.03-0.09
		c1.77-0.39,3.53-0.79,5.64-1.01l-0.08,0.03c3.22-0.59,5.46-0.1,7.25,1.58l3.98,2c1.59,0.8,2.87,2.37,3.86,4.79l2.83,7.69
		c0.74,1.94,1.67,4.47,2.32,6.44l2.18,6.01c0.59,1.51,1.13,2.85,1.81,4.33l1.24,2.91l1.41,3.7c1.27,3.28,2.71,7.07,3.87,10.29
		l1.58,4.79c0.11,0.63,0.2,0.88,0.28,1.14c1.02,3.08,2.09,6.33,3.02,9.43c1.01,3.65,1.97,7.41,2.9,11.08
		c1.3,4.79-0.62,7.88-4.55,9.75l-0.11-0.06c-1.77,0.96-3.59,1.75-5.3,2.32l-7.69,2.54c-1.99,0.56-3.82,0.5-5.41-0.3l-4.21-2.12
		c-1.34-0.32-2.59-0.95-3.69-2c-0.68-0.63-1.14-1.14-1.62-1.74c-0.4-0.34-1.28-1.28-0.77-0.88c0,0-0.14-0.14-0.2-0.31l-11.15-13.95
		c0.25,3.33,0.24,6.75,0.57,10.05l0.59,11.27c-0.09,0.6-0.06,1.82-0.09,2.31l0.11,0.06c0.03,0.09-0.03,0.2-0.03,0.2
		c-0.35,2.67-1.92,4.8-4.12,6.19c-0.57,0.28-1.6,0.62-2.54,0.93c-2.73,0.9-5.5,2.29-8.26,3.96l-2.42,1.27l-2.31,0.76
		c-2.14,0.42-3.99,0.27-5.58-0.53l-3.87-1.95c-2.62-0.46-4.63-2.26-5.96-5.42l-0.85-2.56c-1.83-5.56-3.64-11.03-5.59-16.64
		l-0.31-0.94c-0.82-2.19-1.75-4.73-2.63-6.81l-2.03-5.3l-0.85-1.99c-0.59-1.23-1.24-2.91-1.75-4.16l-0.23-0.68
		c-0.54-1.34-1.36-3.53-1.75-4.73c-0.54-1.91-1.36-3.82-2.18-5.73l-1.3-3.08c-1.13-2.85-2.32-6.15-3.28-9.06
		c-0.96-2.91-1.78-5.67-2.4-8.4c-1.15-5.21,0.31-9.11,6.26-10.88c0.34-0.11,0.71-0.14,1.05-0.25l0.94-0.31
		c1.28-0.42,2.93-0.87,4.24-1.21c2.68-0.5,5.04,0.04,6.91,1.7l3.98,2C658.16,659.71,658.7,660.19,659.18,660.79z M704.68,694.96
		c-0.65-0.83-1.39-1.63-2.07-2.54c-1.11-1.63-2.13-3.28-3.32-4.88c-3.77-5.39-7.34-10.75-10.71-16.37l-5.47-9.09
		c-1.79-2.82-3.83-5.56-5.98-8.07c-1.39-1.63-2.98-2.14-5-1.66c-1.22,0.31-2.56,0.56-3.84,0.99c-0.88,0.2-1.82,0.51-2.76,0.82
		c-1.25,0.51-1.97,1.5-2.09,2.87c-0.09,0.6-0.03,1.05,0.05,1.59l1.54,10.68l1.62,11.79c0.7,4.7,1.28,9.34,1.9,14.07l1.05,10.36
		c0.11,2.05-0.15,1.85-0.26,2.08c-0.51,0.17-0.99-0.71-1.16-1.23l-2.26-5.41l-4.13-10.77c-0.74-1.94-1.41-3.99-2.06-5.96
		c-1.7-4.56-3.31-9.15-4.92-13.73l-2.97-7.84c-0.14-0.43-0.45-0.8-0.65-1.11c-0.82-1.34-2.1-1.77-3.53-1.49
		c-2.02,0.48-3.9,1.1-5.9,1.66c-3.11,0.93-3.85,2.98-3.26,5.63c1.32,5.72,3.33,11.22,5.42,16.69c1.22,3.11,2.66,6.04,3.62,9.23
		c0.48,1.45,1.07,2.96,1.64,4.39c0.88,2.36,1.92,4.67,2.88,7.01c1.61,4.3,3.42,8.63,4.97,13.05c1.95,5.61,3.78,11.17,5.62,16.72
		l0.79,2.39c0.88,2.08,2.47,2.88,4.69,2.43l1.37-0.45l2.34-1.25c2.77-1.67,5.7-3.12,8.78-4.13c0.6-0.2,1.28-0.42,1.85-0.71
		c1.11-0.65,1.85-1.56,1.92-2.81c0.06-0.68,0.03-1.34,0-1.99l-0.57-11.19l-0.68-11.25c-0.03-0.94-0.08-1.96-0.28-2.85
		c-0.53-3.33-1.15-6.63-1.77-9.94c-0.14-0.71-0.31-1.51-0.28-2.28c-0.08-0.54-0.08-1.11,0.43-1.56c0.34,0.17,0.74,0.23,1.02,0.52
		c0.51,0.4,0.85,0.86,1.28,1.28c1.13,1.43,2.3,2.94,3.52,4.34c2.5,2.97,5.16,5.88,7.58,8.87l13.64,17.2
		c0.48,0.6,0.99,1.28,1.65,1.83c0.96,0.91,2.07,1.12,3.38,0.78l7.52-2.48c1.71-0.56,3.36-1.3,4.9-2.09c2.05-0.96,2.97-2.5,2.29-4.83
		c-0.93-3.67-1.86-7.35-2.87-10.99c-0.93-3.1-1.95-6.18-2.96-9.26c-0.17-0.51-0.37-1.11-0.48-1.74c-0.39-1.2-0.73-2.51-1.24-3.76
		c-1.24-3.48-2.6-7.01-3.96-10.54l-1.36-3.53c-0.99-2.42-2.18-4.87-3.08-7.32c-1.55-4.13-2.94-8.32-4.52-12.54l-2.83-7.69
		c-0.93-2.25-2.24-3.05-4.66-2.63c-1.82,0.22-3.59,0.62-5.35,1.01c-0.71,0.14-1.37,0.45-2.05,0.68c-1.31,0.62-2,1.7-1.77,3.24
		c0.17,0.8,0.39,1.77,0.73,2.51c2.15,5.36,4.1,10.68,5.88,16.07c2.2,6.38,4.26,12.9,6.29,19.34c0.71,2.14,1.21,4.24,1.83,6.41
		c0.2,0.6,0.48,1.74,0.14,1.85C705.17,695.56,704.94,695.16,704.68,694.96z M688.54,729.86c-0.06,0.11-0.11,0.23-0.09,0.31
		l0.11,0.06C688.54,730.15,688.59,730.04,688.54,729.86z"/>
	<path fill="currentColor" d="M767.86,661.72l0.15-0.1l-1.77-2.49c-2.04-2.86-4.07-5.72-6.18-8.53l-0.88,0.63l5.32,7.48
		c1.01,1.27,2.44,3.12,3.33,4.37c0.57,0.81,1.15,1.61,1.8,2.37c2.99,3.73,5.97,7.46,8.98,11.06c1.07,1.34,2.17,2.43,3.31,3.72
		l1.52,1.68c0.65,0.75,1.38,1.78,1.83,2.57c1.66,2.8,1.25,5.63-0.49,8.31c-0.43,0.64-0.91,1.2-1.69,1.97l-0.12-0.02
		c-1.96,2.06-4.15,3.95-6.47,5.49c-1.67,1.08-3.28,1.45-4.91,1.17l-4.52-0.76c-1.79,0.28-3.56-0.34-5.34-1.61
		c-0.69-0.5-1.51-1.35-1.98-2.01c-0.65-0.75-1.64-2.15-2.27-3.03c-3.5-4.91-7.05-9.9-10.52-14.94c-0.94-1.32-2.69-3.94-3.3-4.94
		l-0.83-1.17c-0.26-0.37-0.5-0.86-0.81-1.3l-5.02-7.36c-2.69-3.94-5.49-8.02-8.06-11.94l-1.98-2.79c-0.57-0.81-1.08-1.67-1.65-2.47
		c-2.24-3.15-4.47-6.43-6.64-9.64c-0.63-0.88-1.63-2.6-2.11-3.58c-2.11-4.36-1.19-7.88,2.62-10.59c1.47-1.04,2.99-2.01,4.73-2.82
		c2.29-0.97,4.5-1.44,6.76-0.28l4.59,0.71c1.51,0.25,2.93,1.01,4.38,2.74c0.49,0.53,1.12,1.41,1.64,2.15
		c0.26,0.37,0.45,0.79,0.71,1.15l3.08,4.33c0.37-0.26,0.79-0.45,1.22-0.76c-2.02-3.31-4.15-6.77-6.25-10.02
		c-2.37-3.95-3.45-7.49,2.34-11.61l2.64-1.88c2.67-1.68,5.16-1.91,7.47-0.68l4.22,0.64c1.51,0.25,3.05,1.03,4.55,2.51l0.42,0.59
		c2.91,3.78,6.4,8.37,9.24,12.2l2.77,3.89c0.94,1.32,1.65,2.47,2.66,3.74c3.7,4.88,7.34,9.69,11.13,14.39
		c4.16,5.22,8.47,10.65,12.21,16.06c1.25,1.76,2.88,3.58,4.56,5.48c0.49,0.54,1.19,1.36,1.92,2.39c1.82,3.02,1.49,6.12-0.58,8.81
		c-0.41,0.51-0.85,0.83-1.22,1.09c-0.51,0.37-1.03,0.73-1.63,1.27c-1.41,1.12-2.75,2.18-4.33,3.08c-1.92,1.03-3.65,1.39-5.29,1.11
		l-4.64-0.78c-2.29,0.2-4.22-0.65-6.12-2.38c-1.46-1.28-2.72-3.04-3.86-4.65c-1.51-2.13-2.92-4.11-4.56-6.25
		S769.52,663.75,767.86,661.72z M772.54,660.38c1.66,2.02,3.3,4.17,4.94,6.32s3.15,4.27,4.67,6.4c0.99,1.39,1.98,2.79,3.22,3.9
		c1.44,1.4,2.9,1.58,4.74,0.6c2.06-1.14,3.69-2.74,5.52-4.04c0.15-0.1,0.29-0.21,0.39-0.39c1.04-1.18,1.12-2.46,0.31-3.76
		c-0.47-0.66-1.01-1.27-1.5-1.8c-1.73-1.97-3.42-3.87-4.93-5.99c-3.74-5.4-7.84-10.55-12-15.76c-3.79-4.7-7.49-9.58-11.18-14.47
		c-1.95-2.59-3.63-5.26-5.53-7.77c-3-4.05-6.07-8.05-9.14-12.06l-0.31-0.44c-1.34-1.26-2.67-1.42-4.26-0.39
		c-0.86,0.5-1.61,1.15-2.49,1.77c-2.71,1.93-2.23,3.69-1.13,5.55c2.2,3.4,4.33,6.86,6.46,10.32c0.21,0.29,0.42,0.59,0.55,0.93
		c1.01,2.04,0.59,3-0.88,4.05l-0.29,0.21c-2.03,1.34-4.01,2.75-5.92,4.1c-0.44,0.31-0.93,0.55-1.42,0.79
		c-1.53,0.65-2.41,0.5-3.47-0.84c-0.33-0.31-0.65-0.75-0.91-1.12c-0.57-0.81-1.13-1.74-1.7-2.55l-3.34-4.69
		c-0.47-0.66-0.87-1.37-1.39-2.1c-0.42-0.59-0.83-1.17-1.33-1.71c-1.5-1.8-2.9-1.58-4.5-0.89c-1.4,0.67-2.7,1.48-3.95,2.37
		c-1.83,1.3-2.23,2.92-1.27,4.88c0.53,1.06,1.19,2.14,1.87,3.09c3.19,4.8,6.59,9.56,9.91,14.38l0.42,0.59
		c2.57,3.92,5.26,7.86,7.95,11.79l5.02,7.36c1.7,2.54,3.28,5.07,5,7.49c3.48,5.04,6.97,9.95,10.47,14.86
		c0.68,0.95,1.36,1.91,2.06,2.73c0.37,0.51,0.75,0.9,1.26,1.31c1.15,0.84,2.3,0.9,3.53,0.14c2.11-1.39,4.08-3.12,5.87-4.95
		c0.46-0.44,0.8-0.9,1.13-1.36c0.86-1.28,1.02-2.6,0.21-3.9c-0.29-0.57-0.66-1.08-1.15-1.61c-1.63-1.82-3.38-3.67-4.99-5.62
		c-3.01-3.6-5.99-7.33-8.98-11.06c-0.65-0.75-1.33-1.71-1.95-2.59c-0.99-1.39-2.11-2.81-3.23-4.22l-4.28-6.01
		c-0.73-1.03-1.41-1.98-2.01-2.98c-0.81-1.3-0.67-2.18,0.3-3.31c0.31-0.33,0.68-0.6,1.12-0.91l3.52-2.5
		c0.79-0.45,1.59-1.02,2.43-1.4c1.79-1.05,3.17-0.82,4.54,0.63c0.44,0.46,0.88,0.92,1.29,1.51c2.74,3.69,5.4,7.43,8.11,11.24
		l2.66,3.74L772.54,660.38z"/>
	<path fill="currentColor" d="M825.58,651.84c-1.96,0.37-3.95-0.03-6.08-1.31c-1.23-0.8-2.21-1.73-2.99-2.47l-9.91-9.43l-7.84-7.83
		l-8.24-8.71c-0.65-0.62-1.57-1.49-2.16-2.17c-0.59-0.56-1.7-1.74-2.22-2.24c-1.89-1.93-3.86-4.04-5.69-6.03l-7.06-7.46
		c-0.46-0.43-1.11-1.05-1.5-1.55c-0.39-0.37-1.11-1.18-1.5-1.55c-1.04-0.99-2.29-2.3-3.27-3.36c-0.79-0.87-1.51-1.81-1.92-2.94
		c-1.08-2.26-0.95-4.75,0.4-7.08l-0.07-0.06c0.92-1.61,2.52-3.56,4.14-4.88c2.18-1.9,4.27-2.53,6.25-2.26l5.22-0.13
		c1.65-0.04,3.26,0.75,5.08,1.97l-0.13,0c1.49,1.04,2.27,1.79,3.12,2.6l10.05,9.81l1.63,1.55l6.01,6.09l1.96,1.86
		c1.3,1.24,2.93,2.66,4.17,3.97l6.54,6.97c0.85,0.81,1.57,1.74,2.42,2.55l5.3,5.79c1.05,1.12,2.3,2.68,3.34,3.8
		c2.49,2.87,4.99,5.86,7.4,8.15c0.65,0.62,1.25,1.43,1.98,2.62c1.4,2.7,1.29,5.57-0.69,7.91c-1.23,1.69-2.91,3.19-4.6,4.32
		c-1.38,0.8-2.77,1.34-4.17,1.38L825.58,651.84z M789.98,597.99l-10.05-9.81c-0.85-0.81-1.63-1.55-2.6-2.23
		c-1.62-1.17-2.96-1.33-4.71,0.25c-1.25,1.05-2.3,2.29-3.09,3.64c-0.68,0.97-0.71,2.06-0.24,3.13c0.27,0.63,0.73,1.19,1.19,1.75
		c1.96,2.12,4.05,4.1,6.01,6.21l7.26,7.65c1.83,1.99,3.67,3.98,5.56,5.91l4.31,4.35l8.3,8.77l7.83,7.82
		c1.76,1.8,3.59,3.41,5.35,5.09l3.91,3.72c0.98,0.93,1.83,1.86,2.99,2.6c1.36,0.92,2.69,0.82,4.08,0.03
		c1.38-0.93,2.5-1.97,3.48-3.27c0.93-0.98,0.96-2.19,0.36-3.38c-0.33-0.56-0.73-1.06-1.18-1.5c-3.98-3.78-7.33-8.09-10.94-12.14
		l-5.24-5.73l-2.49-2.61l-6.54-6.97c-1.89-1.93-3.98-3.78-5.93-5.64l-6.08-6.15L789.98,597.99z"/>
	<path fill="currentColor" d="M829.98,589.91c-2.38-1.46-5.86-3.54-9.01-5.62c-2.48-1.64-4.98-3.4-7.41-5.11l-1.8-1.19
		c-0.38-0.25-0.75-0.5-1.08-0.82c-0.1,0.15-0.27,0.25-0.4,0.28c-1.09,1-2.26,1.63-3.51,1.89l-4.24,0.87
		c-1.92,1.11-4.11,1.17-6.66,0.13c-0.58-0.27-1.3-0.64-2.5-1.44c-1.35-0.89-3.15-2.08-4.33-3.08c-4.01-3.08-4.62-6.39-1.85-10.92
		c0.89-1.35,1.93-2.93,3.32-4.38c0.92-1.23,1.74-2.3,2.36-3.41l8.8-13.82c0.69-1.05,1.51-2.13,2.38-2.96
		c1.66-1.71,3.58-2.49,5.71-2.27l4.29-0.94c1.37-0.28,2.97-0.09,4.52,0.5c0.42,0.17,1.12,0.42,1.73,0.82l4.36,2.88
		c0.75,0.5,1.33,1.09,1.85,1.76c1.88,2.21,2.14,4.76,1.01,7.78l-1.58,2.73l-0.79,1.2l8.09,5.55l7.14,5.03
		c2.05,1.46,4.13,3.05,6.06,4.54l5.66,4.17l9.92,6.87c0.45,0.3,1.15,0.87,1.6,1.17l1.73,1.14c2.25,1.49,4.48,2.85,6.78,4.26
		c0.6,0.4,1.2,0.79,2.3,1.74c2.66,2.51,3.25,6.03,1.49,9.18c-1.16,1.93-2.5,3.96-4.19,5.54l-0.12,0.03
		c-1.37,1.25-2.76,2.06-4.13,2.34l-4.86,1c-2.09,0.88-4.39,0.77-6.84-0.42c-2.05-1.14-4.3-2.63-6.26-3.91l-1.88-1.24
		c-0.55-0.47-0.93-0.72-1.3-0.97c-4.31-2.95-8.66-5.83-14.82-9.89L829.98,589.91z M848.79,597.04c0.6,0.4,1.2,0.79,1.75,1.27
		c2.4,1.59,4.76,3.25,7.31,4.61c1.8,0.87,3.25,0.63,4.71-0.77c1.42-1.33,2.51-2.98,3.47-4.61c0.77-1.33,0.46-2.82-0.67-3.89
		c-0.55-0.47-1.15-0.87-1.75-1.27c-2.3-1.41-4.61-2.82-6.86-4.31c-1.13-0.74-2.28-1.61-3.4-2.36l-9.92-6.87l-5.81-4.27
		c-1.93-1.49-3.93-3.03-5.99-4.49l-7.06-4.98l-8.01-5.5c-0.53-0.35-0.98-0.64-1.45-1.07c-0.9-0.92-1.26-2.02-0.59-3.19
		c0.45-1,1.04-1.9,1.63-2.8l1.34-2.35c0.47-1.2,0.31-2.27-0.51-3.14c-0.28-0.4-0.6-0.72-0.9-0.92l-4.36-2.88
		c-0.38-0.25-0.73-0.37-1.15-0.54c-1.2-0.47-2.4-0.29-3.29,0.74c-0.65,0.65-1.27,1.43-1.81,2.25l-8.75,13.74
		c-0.87,1.48-1.83,2.78-2.93,4.11c-1.07,1.13-1.96,2.48-2.8,3.76c-1.26,2.08-1.03,3.52,0.9,5.01c1.25,1.04,2.6,1.94,3.96,2.83
		c0.6,0.4,1.25,0.72,1.83,0.99c1.35,0.57,2.47,0.34,3.52-0.59c1-0.85,1.66-2.03,2.36-3.08c0.45-0.68,0.89-1.35,1.36-1.9
		c0.79-0.88,1.74-1.01,2.79-0.64c0.55,0.15,1,0.44,1.45,0.74c1.05,0.69,2.13,1.51,3.25,2.26c3.71,2.55,7.29,5.13,11.04,7.61
		c4.06,2.68,8.21,5.2,10.51,6.62C840.12,591.22,844.48,594.09,848.79,597.04z"/>
	<path fill="currentColor" d="M865.88,548.02l-9.45-3.51c-0.08-0.03-0.2,0.02-0.28-0.02l-0.58-0.23c-4.46-1.69-8.75-3.32-13.25-4.93
		c-4.86-1.66-10.71-4.01-15.47-5.92c-2.5-1.01-5.14-2.16-7.62-3.25c-0.83-0.33-1.89-0.85-2.35-1.14c-3.16-2.04-5.24-5.3-3.56-9.96
		c0.35-1.12,0.87-2.17,1.31-3.26l1.71-4.26l1.39-2.74l0.24-0.58c0.69-1.47,1.44-3.11,2.21-4.54c0.42-0.8,1-1.54,1.64-2.15
		c1.26-1.44,2.88-2.34,4.63-2.6l4.21-1.8c1.29-0.55,2.69-0.67,4.29-0.31c1.35,0.25,2.72,0.71,3.73,1.11
		c1.17,0.47,2.47,1.09,3.87,1.94c2.42,1.46,3.5,3.83,3.43,6.42c-0.03,1.05-0.15,2.07-0.49,3.39l-0.67,3.61l0.17,0.07l6.75,2.52
		c1.29-1.52,2.83-2.45,4.58-2.72l4.21-1.8c1.37-0.52,3.01-0.73,4.7-0.34c1.35,0.25,2.27,0.62,3.19,0.99c1.5,0.6,3.26,1.31,4.73,2
		l0.92,0.37c3.26,1.31,5.17,4.5,4.38,8.65c-0.03,0.57-0.27,1.15-0.47,1.65l-0.37,0.92l4.84,1.95c0.17-0.42,0.54-0.85,0.82-1.32
		c1.22-1.84,3.1-3.12,5.45-3.44l3.86-1.65c1.29-0.55,2.92-0.76,4.68-0.54l2.26,0.42c0.99,0.2,2.3,0.54,3.34,0.86l0.15-0.13
		c5.41,1.49,7.41,4.72,5.92,9.65c-0.45,1.37-1.07,2.67-1.66,3.89c-0.82,1.32-1.36,2.66-1.73,4.06c-0.79,2.69-1.54,5.29-1.83,7.7
		c-0.24,1.07-0.47,1.65-0.77,2.41l-0.33,0.83c-0.84,1.6-1.84,2.66-3.25,3.25l-4.21,1.8c-1.59,1.3-3.53,1.78-5.73,1.48
		c-0.74-0.1-2.56-0.64-3.47-1.01L865.88,548.02z M887.53,551.57c0.83,0.33,1.79,0.62,2.61,0.76c1.27,0.22,2.24-0.26,2.79-1.4
		c0.3-0.75,0.69-1.47,0.79-2.2c0.34-2.77,1.09-5.38,1.88-8.07c0.5-1.74,1.17-3.41,2.1-4.98c0.49-0.97,1-2.02,1.32-3.06
		c0.67-2.15-0.13-3.54-2.32-4.13c-0.2,0.02-0.45-0.08-0.62-0.15c-1.15-0.27-2.22-0.5-3.41-0.69c-0.79-0.22-1.6-0.35-2.42-0.49
		c-1.39-0.17-2.47,0.36-3.23,1.52c-0.62,0.82-0.95,1.65-1.24,2.61c-0.34,1.32-0.84,2.57-1.59,3.72c-0.79,1.24-1.84,1.68-3.24,1.32
		c-0.62-0.15-1.25-0.5-1.84-0.74l-7.35-2.95c-0.92-0.37-1.95-0.69-2.84-1.14c-1.39-0.65-1.9-1.54-1.58-3.06
		c0.1-0.74,0.4-1.49,0.59-2.19c0.12-0.54,0.37-0.92,0.45-1.37c0.52-2.02-0.33-3.53-1.75-4.1l-1.17-0.47
		c-1.47-0.69-2.97-1.29-4.48-1.89c-0.75-0.3-1.5-0.6-2.41-0.77c-1.69-0.39-3.01,0.25-3.85,1.85l-1.11,2.27
		c-0.2,0.5-0.49,0.97-0.77,1.44c-0.42,0.8-1.21,1.07-2.09,1.1l-1.6-0.35c-0.79-0.22-1.62-0.55-2.46-0.89
		c-3.07-1.04-6.11-2.16-9.15-3.29c-0.5-0.2-0.92-0.37-1.3-0.62c-0.94-0.57-1.49-1.37-1.62-2.49c0-0.48,0.04-1.05,0.15-1.59
		l0.76-4.06c0.22-0.79,0.27-1.64,0.32-2.49c0.04-1.05-0.45-2.02-1.38-2.59c-1.99-1.09-4.04-2.01-6.26-2.52
		c-1.15-0.27-2.21,0.18-2.94,1.05c-0.45,0.4-0.82,0.83-1.14,1.38c-0.84,1.6-1.63,3.32-2.38,4.96l-1.39,2.74
		c-0.94,2.34-2.04,4.61-2.82,7.01c-0.75,2.12,0.21,3.58,1.66,4.55c0.55,0.32,1.19,0.67,1.85,0.94c2.47,1.09,4.94,2.18,7.45,3.19
		c5.09,2.05,10.11,4.06,15.3,5.85c4.49,1.61,8.87,3.27,13.33,4.97c0.25,0.1,0.53,0.12,0.87,0.25l9.45,3.51L887.53,551.57z"/>
</g>
</svg>
