<?xml version="1.0" encoding="utf-8"?>
<!-- Generator: Adobe Illustrator 28.0.0, SVG Export Plug-In . SVG Version: 6.00 Build 0)  -->
<svg version="1.1" id="Layer_2_00000038403146563295320570000015386308703242720163_"
	 xmlns="http://www.w3.org/2000/svg" xmlns:xlink="http://www.w3.org/1999/xlink" x="0px" y="0px" viewBox="0 0 720 720"
	 style="enable-background:new 0 0 720 720;" xml:space="preserve">
<style type="text/css">
	.st0{fill:#262626;}
</style>
<g>
	<g>
		<path class="st0" d="M294.7,244.9c0.8,0,1.7,0.2,2.4,0.2c2,0.2,3.6,1.3,4.7,2.9l3,3c0.7,0.7,1.3,1.7,1.6,2.6c0.3,1,0.5,2,0.6,2.8
			c0.2,1.7,0.2,3.8,0.3,5.4c0,1-0.2,2-0.4,3c-0.8,2.4-2.4,3.9-4.9,4.3c-0.6,0.2-1.3,0.2-2,0.2l-12.8,0.2h-0.2
			c-1.4,0.1-2.7,0.2-4.1,0.3l-2.5,0.2h-0.2l-4.7,0.2c-1.8-0.2-3.2-0.6-4.3-1.7l-3.1-3.1c-1.3-0.8-2.1-2-2.6-3.7
			c-0.3-0.9-0.4-1.8-0.3-2.8c0-0.3,0-1,0.1-1.3c0-0.3,0.1-0.8,0.1-1.1c0.1-1.8,0.3-3.6,0.6-5.7c0.5-2.4,1.3-5,2.1-6.9
			c0.9-2.2,2.4-4.8,4-7.4l-0.1-0.1l1.2-1.9v0.1c0.5-0.9,1.1-1.7,1.6-2.6l1.8-2.8v0.1l0.3-0.5l3.5-4.7l0.4-0.6
			c-0.6,0.1-1.1,0.2-1.7,0.2h-2.8c-0.9,0-1.8-0.1-2.7-0.1c-0.5,0-0.9,0-1.6-0.2c-1.5-0.3-2.7-0.9-3.5-1.8l-2.9-2.8
			c-1.6-1-2.5-2.5-3-4.3c-0.3-1.2-0.5-2.5-0.5-4c0-3,0.2-6.1,0.7-9.2c0.5-2.9,1.8-5.7,3.3-8h-0.1c0.3-0.5,0.9-1.1,1.7-1.9
			c4.5-4.5,9.9-6.7,16.7-6.4l1.7,0.4c2.5,0.5,5.4,1.4,7.3,2.3c3,1.2,5.6,3.2,7.4,5.9l2,1.9c0.8,0.8,1.5,1.7,2.1,2.6
			c3,4.6,4.7,9.4,4.7,14.7c0,1,0,2-0.2,3.3h0.1c-0.8,6.5-3.1,12.4-6.7,17.7c-1.9,2.8-3.7,5.4-6.4,8.4
			C296,243.3,295.3,244.1,294.7,244.9z M276.4,262.4c2.3-0.2,4.5-0.4,6.8-0.5l12.9-0.2c0.5,0,0.9-0.1,1.3-0.2c1-0.2,1.7-0.8,2-1.8
			c0.2-0.6,0.2-1.2,0.2-1.8c-0.1-1.7-0.2-3.5-0.3-5.2c0-0.6-0.1-1.2-0.3-1.7c-0.3-1.1-1.2-1.8-2.4-2c-1.2-0.2-2.4-0.3-3.7-0.3
			c-1.6,0.1-3.2,0.3-4.7,0.5c-0.8,0.1-1.6,0.1-2.4,0.1c-0.3,0-0.7-0.1-1.1-0.2c-1.3-0.4-1.7-1.2-1.3-2.4c0.2-0.7,0.5-1.4,0.8-2
			c1.4-3.2,3.3-6,5.5-8.6c2.3-2.6,4.2-5.4,6.1-8.2c3.3-4.9,5.4-10.2,6.1-16.1c0.7-5.7-0.7-10.8-3.9-15.5c-1.5-2.2-3.5-3.9-6-4.9
			c-2-0.9-4.3-1.6-6.5-2l-1.8-0.3c-5.2-0.2-9.5,1.6-13.2,5.2c-0.4,0.4-0.8,0.9-1.1,1.3c-1.3,2-2.3,4.1-2.7,6.5
			c-0.5,2.8-0.6,5.7-0.6,8.5c0,1,0.2,2,0.4,3.1c0.2,1.3,1,2,2.3,2.3c0.3,0,0.6,0.2,0.9,0.2c1.8,0,3.5,0.1,5.4,0.1
			c1.7-0.1,2.7-1.1,2.8-2.8c0.1-0.4,0-0.8,0.1-1.3c0.1-1.3,0.1-2.5,0.2-3.7c0.2-1.3,0.6-2.4,1.1-3.6c1.4-2.7,4.4-3,6.5-2
			c1.7,0.8,2.7,2.3,3.1,4.1c0.5,2.7,0.5,5.4-0.2,8c-1,4.2-2.7,8.1-5,11.7l-3.3,4.6l-2.2,3.2c-0.9,1.4-1.7,2.8-2.6,4.2
			c-1.5,2.2-2.8,4.6-3.8,7c-0.9,2-1.5,3.9-1.9,6c-0.5,2.6-0.5,5.1-0.7,7.7c-0.1,0.4,0,0.8,0.2,1.3c0.2,1.3,1.1,2,2.4,2L276.4,262.4z
			"/>
		<path class="st0" d="M317.7,262.8c-2.5-1.7-4.5-4.1-6-6.5c-0.9-1.5-1.4-3.1-1.8-4.8l-1.4-7.3c-0.3-1.4-0.4-2.7-0.5-4.1l-0.3-5
			c-0.2-3.5-0.4-7.8-0.3-11.3v-0.6c0.1-1.7,0.2-3.6,0.3-5.4c0.2-3.6,0.8-7.5,1.6-10.7c0-0.2,0.1-0.4,0.1-0.5l0.4-1.3
			c1-2.5,2.3-5.4,3.5-7.7c1.6-3.1,3.9-5.3,6.5-6.9c1.9-1.1,3.8-1.5,5.8-1.8c0.8-0.2,1.9-0.2,2.8-0.2c1.9,0,3.6,0.3,5.3,0.7
			c3.8,0.9,6.8,3.2,8.9,6.3l1.7,1.7l-0.2-0.2l0.5,0.4c1.5,1.5,2.7,3.2,3.5,5.2c1.4,3.2,2.2,7.2,2.4,10.6c0.2,2.8,0.3,6,0.3,9v4.8
			c0,1.4,0.1,3.2,0,4.6l-0.8,11.9c-0.1,1.3-0.1,2.3-0.1,3.5c-0.1,3.2-0.6,6.2-1.5,9.1c-1.1,3.7-3.4,6.8-6.3,9.3
			c-2.5,2.1-5.4,3.2-8.4,3.5l-2.9,0.2h-0.2c-3.2,0-6.1-0.9-8.6-2.7c-0.9-0.7-1.8-1.4-2.7-2.3L317.7,262.8z M342.7,210
			c-0.2-3.2-0.8-6.5-2.1-9.5c-1.6-3.6-4.2-6.1-8-7.1c-2.1-0.6-4.2-0.9-6.4-0.5c-1.5,0.2-3,0.6-4.3,1.3c-2.1,1.3-3.9,3-5.1,5.3
			c-1.2,2.4-2.2,4.8-3.2,7.3c-0.2,0.4-0.2,0.9-0.4,1.3c-0.7,3.3-1.3,6.7-1.5,10.1c-0.2,1.9-0.2,3.8-0.3,5.7
			c-0.2,5.4,0.4,10.6,0.6,16c0.1,1.2,0.2,2.4,0.4,3.5l1.4,7.2c0.3,1.3,0.7,2.4,1.3,3.5c1.4,2.1,3.2,4.1,5.2,5.6c1.9,1.3,4,2,6.4,2
			l2.7-0.2c2.4-0.2,4.5-1.1,6.4-2.7c2.4-2,4.2-4.7,5.1-7.6c0.9-2.6,1.3-5.3,1.3-8c0-1.2,0-2.4,0.1-3.6l0.8-11.9c0.1-2.1,0-4.3,0-6.5
			C343.1,217.5,343,213.7,342.7,210z M332.6,234.2c-0.1,1.7-0.2,3.5-0.3,5.4c-0.1,0.9-0.3,1.9-0.6,2.9c-0.2,0.7-0.6,1.3-1.1,1.8
			c-0.9,0.9-1.9,1.2-3,1c-0.8-0.2-1.3-0.7-1.7-1.3c-0.6-0.9-0.9-2-1.1-3.1c-0.2-1-0.2-2-0.3-3.2c-0.1-1.2-0.2-2.4-0.3-3.5
			c-0.2-1.5-0.3-3-0.3-4.6c-0.1-4.1-0.1-8.2,0.3-12.2c0.2-2.1,0.6-4.3,0.9-6.4c0.2-0.8,0.5-1.5,0.9-2.2c0.2-0.6,0.6-1,1-1.3
			c1.3-1.2,2.8-0.9,3.8,0.4c0.6,0.7,0.8,1.5,1,2.3c0.6,2.3,0.8,4.6,0.9,6.9v8.5h0.1C332.7,228.5,332.6,231.3,332.6,234.2z
			 M332.9,246c-0.1,0-0.1-0.1-0.1-0.2C332.8,245.9,332.8,245.9,332.9,246L332.9,246z"/>
		<path class="st0" d="M380.3,244.9c0.8,0,1.7,0.2,2.4,0.2c2,0.2,3.6,1.3,4.7,2.9l3,3c0.7,0.7,1.3,1.7,1.6,2.6c0.3,1,0.5,2,0.6,2.8
			c0.2,1.7,0.2,3.8,0.3,5.4c0,1-0.2,2-0.4,3c-0.8,2.4-2.4,3.9-4.9,4.3c-0.6,0.2-1.3,0.2-2,0.2l-12.8,0.2h-0.2
			c-1.4,0.1-2.7,0.2-4.1,0.3l-2.5,0.2h-0.2l-4.7,0.2c-1.8-0.2-3.2-0.6-4.3-1.7l-3.1-3.1c-1.3-0.8-2.1-2-2.6-3.7
			c-0.3-0.9-0.4-1.8-0.3-2.8c0-0.3,0-1,0.1-1.3c0-0.3,0.1-0.8,0.1-1.1c0.1-1.8,0.3-3.6,0.6-5.7c0.5-2.4,1.3-5,2.1-6.9
			c0.9-2.2,2.4-4.8,4-7.4l-0.1-0.1l1.2-1.9v0.1c0.5-0.9,1.1-1.7,1.6-2.6l1.8-2.8v0.1l0.3-0.5l3.5-4.7l0.4-0.6
			c-0.6,0.1-1.1,0.2-1.7,0.2h-2.8c-0.9,0-1.8-0.1-2.7-0.1c-0.5,0-0.9,0-1.6-0.2c-1.5-0.3-2.7-0.9-3.5-1.8l-2.9-2.8
			c-1.6-1-2.5-2.5-3-4.3c-0.3-1.2-0.5-2.5-0.5-4c0-3,0.2-6.1,0.7-9.2c0.5-2.9,1.8-5.7,3.3-8h-0.1c0.3-0.5,0.9-1.1,1.7-1.9
			c4.5-4.5,9.9-6.7,16.7-6.4l1.7,0.4c2.5,0.5,5.4,1.4,7.3,2.3c3,1.2,5.6,3.2,7.4,5.9l2,1.9c0.8,0.8,1.5,1.7,2.1,2.6
			c3,4.6,4.7,9.4,4.7,14.7c0,1,0,2-0.2,3.3h0.1c-0.8,6.5-3.1,12.4-6.7,17.7c-1.9,2.8-3.7,5.4-6.4,8.4
			C381.6,243.3,380.9,244.1,380.3,244.9z M361.9,262.4c2.3-0.2,4.5-0.4,6.8-0.5l12.9-0.2c0.5,0,0.9-0.1,1.3-0.2c1-0.2,1.7-0.8,2-1.8
			c0.2-0.6,0.2-1.2,0.2-1.8c-0.1-1.7-0.2-3.5-0.3-5.2c0-0.6-0.1-1.2-0.3-1.7c-0.3-1.1-1.2-1.8-2.4-2c-1.2-0.2-2.4-0.3-3.7-0.3
			c-1.6,0.1-3.2,0.3-4.7,0.5c-0.8,0.1-1.6,0.1-2.4,0.1c-0.3,0-0.7-0.1-1.1-0.2c-1.3-0.4-1.7-1.2-1.3-2.4c0.2-0.7,0.5-1.4,0.8-2
			c1.4-3.2,3.3-6,5.5-8.6c2.3-2.6,4.2-5.4,6.1-8.2c3.3-4.9,5.4-10.2,6.1-16.1c0.7-5.7-0.7-10.8-3.9-15.5c-1.5-2.2-3.5-3.9-6-4.9
			c-2-0.9-4.3-1.6-6.5-2l-1.8-0.3c-5.2-0.2-9.5,1.6-13.2,5.2c-0.4,0.4-0.8,0.9-1.1,1.3c-1.3,2-2.3,4.1-2.7,6.5
			c-0.5,2.8-0.6,5.7-0.6,8.5c0,1,0.2,2,0.4,3.1c0.2,1.3,1,2,2.3,2.3c0.3,0,0.6,0.2,0.9,0.2c1.8,0,3.5,0.1,5.4,0.1
			c1.7-0.1,2.7-1.1,2.8-2.8c0.1-0.4,0-0.8,0.1-1.3c0.1-1.3,0.1-2.5,0.2-3.7c0.2-1.3,0.6-2.4,1.1-3.6c1.4-2.7,4.4-3,6.5-2
			c1.7,0.8,2.7,2.3,3.1,4.1c0.5,2.7,0.5,5.4-0.2,8c-1,4.2-2.7,8.1-5,11.7l-3.3,4.6l-2.2,3.2c-0.9,1.4-1.7,2.8-2.6,4.2
			c-1.5,2.2-2.8,4.6-3.8,7c-0.9,2-1.5,3.9-1.9,6c-0.5,2.6-0.5,5.1-0.7,7.7c-0.1,0.4,0,0.8,0.2,1.3c0.2,1.3,1.1,2,2.4,2L361.9,262.4z
			"/>
		<path class="st0" d="M392.5,239.7l0.2-1.8c0.4-3.5,2.7-6,6.5-6.1l3.6-0.3c0.5,0,1,0,1.3-0.1c1.5-0.3,2.8-0.1,3.9,0.2l0.7,0.2
			c-1-0.9-1.8-2.2-2.2-3.9c-0.2-0.5-0.2-0.9-0.2-2v-3.3l-0.7,0.1h-0.4c-2.7,0.2-4.7-0.6-6.1-2l-2.8-2.8c-2-1.3-3.2-3.4-3.5-6.5
			c0-0.8,0-2,0.1-2.6c0-0.1,0.1-0.3,0.1-0.4c0.2-0.6,0.2-0.9,0.3-1.4c0.2-1.3,0.6-3.2,0.9-4.5c0.9-3.4,2.8-6.2,5.1-8.9
			c2-2.3,4.4-3.8,7.1-4.6c3.3-0.9,6.6-1.5,10.2-1.3c1.3,0.1,2.8,0.2,4.1,0.5c3.5,0.7,6.8,2.6,9.1,4.8c0.6,0.6,1.2,1.3,1.7,2l2.2,2.1
			h-0.1l0.6,0.6c1.7,1.7,2.7,3.6,3.3,5.7h0.1c0.5,1.4,0.8,2.8,0.9,4.7c0,0.5,0.1,0.8,0.1,1.3c0.1,1.4,0.2,3.4-0.2,5.1l0.1,0.1
			c-0.6,4.1-1.7,7.9-4.3,11.4l1.3,1.3c1.3,1.3,2.3,2.8,3.1,4.4c1,2.3,1.6,4.5,1.8,6.9c0.1,0.8,0.2,1.4,0.2,2.7
			c0,4.1-1.2,8.2-2.5,11.9c-0.9,2.7-2.3,5.3-4,7.9c-1.1,1.6-2.3,3-3.7,4.3c-2.5,2.2-5.4,3.6-8.7,4.1c-1.3,0.2-2.6,0.3-3.6,0.3
			c-4.2,0-8.4-1.4-12.1-3.8c-1-0.6-1.9-1.3-2.8-2.2l-1.9-1.8c-2.5-1.9-4.9-4.8-5.9-7.7c-1.7-3.8-2.6-8-2.8-12.1L392.5,239.7
			L392.5,239.7z M398.9,252.4c1,2.6,2.8,4.7,5,6.2c4,2.8,8.4,3.6,13.2,2.9c2.6-0.4,4.8-1.5,6.8-3.2c1.2-1.1,2.2-2.3,3.2-3.6
			c1.5-2.2,2.7-4.6,3.5-7c1.5-4.2,2.7-8.4,2.1-12.9c-0.2-2-0.7-3.9-1.5-5.8c-0.9-1.9-2.1-3.5-3.9-4.7c-0.4-0.3-0.9-0.6-1.2-1
			c-0.5-0.6-0.6-1.1-0.2-1.7c0.2-0.5,0.6-0.9,0.9-1.3c2.4-3.1,3.5-6.6,4-10.4c0.3-2,0.1-3.9,0-5.8c-0.1-1.3-0.3-2.4-0.7-3.5
			c-0.6-1.7-1.4-3.4-2.8-4.7c-2-1.9-4.4-3.4-7.3-3.9c-1.2-0.2-2.4-0.3-3.5-0.4c-3.1-0.2-6,0.3-8.9,1.2c-2,0.6-3.9,1.7-5.4,3.4
			c-1.9,2.1-3.4,4.5-4.2,7.3c-0.5,1.9-0.8,3.9-1.2,5.8c-0.1,0.6-0.1,1.2-0.1,1.7c0.2,2.6,1.9,4,4.6,3.9h0.3l4.8-0.4l0.9-0.2
			c1.1-0.2,1.7-0.9,1.8-2c0.1-0.6,0.1-1.3,0-1.9c-0.2-1,0-2,0.2-3c0.6-2.8,3.2-4.3,6-3.6c1.5,0.3,2.5,1.2,3.3,2.4
			c1.1,1.8,1.5,3.8,1.5,5.8c-0.1,2.8-1.3,4.4-4.1,5.4c-0.6,0.2-1,0.2-1.6,0.3c-0.5,0.2-1,0.2-1.5,0.3c-2,0.5-2.7,1.3-2.7,3.3
			c-0.1,1.5,0,3,0,4.5c0,0.5,0.2,0.9,0.2,1.4c0.2,1.2,0.9,1.9,2,2.1c0.7,0.2,1.3,0.2,2,0.3c2.7,0.4,4.4,1.7,5.2,4.3l0.2,1.1
			c0.5,2.4,0.2,4.8-0.2,7.2c-0.2,1.1-0.6,2.1-1.1,3.2c-1.2,1.9-2.9,2.4-5,2.3c-1.9-0.2-3-1.4-3.6-3.2c-0.2-0.4-0.2-0.9-0.3-1.3
			l-0.2-3.3c-0.2-0.9-0.2-1.7-0.4-2.6c-0.3-1-0.9-1.7-2-2c-0.7-0.2-1.4-0.3-2.2-0.2c-0.6,0.2-1.3,0.2-2,0.2l-3.5,0.3
			c-1.7,0.1-2.7,1.1-2.8,2.6l-0.2,1.4v2C396.6,245.4,397.5,249,398.9,252.4z M416.3,239.1c0.1-0.4,0.1-0.8,0.1-1.2v-0.9l-0.6-0.2
			c-0.7-0.2-1.3-0.4-1.9-0.8l1.1,1.2c0-0.1-0.1-0.1-0.1-0.2l0.2,0.2C415.6,237.9,416,238.5,416.3,239.1z M429.1,221.1L429.1,221.1
			C429,221.1,429,221.1,429.1,221.1z"/>
	</g>
	<g>
		<path class="st0" d="M91.2,353.2c-1.2,1.5-2.5,2.6-3.8,3.6c-4.4,3.1-9.1,4.4-14,4.1c-2.2-0.1-4.5-0.6-6.7-1.4l-2.3-1
			c-2.3-1.3-4.4-3-6.1-5.1c-2.2-2.9-3.6-6.1-4.6-9.2c-0.5-1.7-0.7-3.6-0.6-5.3c0.1-1.6,0.5-3,1-4.7c0.1-0.3,0.2-0.4,0.2-0.6
			c0.1-0.4-0.5,0,0.3-1c1.7-4.4,4.4-7.5,7.8-9.5l2.2-1.9l-0.3,0.2l0.5-0.5c2.8-2.5,6.1-3.9,10.1-4.5c1.6-0.3,3.7-0.4,5.4-0.4
			c1.8,0,4.2,0.5,5.9,1.1c2.8,0.9,5.5,2.1,7.8,4v0.1c4.6,3.8,6.9,8.7,6.5,14.6v0.1c-0.3,4.2-1.7,8-3.7,11.4l-0.2,0.2
			c-0.9,1.6-2,2.7-3.1,3.7L91.2,353.2z M86.5,328.4c-1.9-1.5-4.1-2.5-6.4-3.3c-1.4-0.4-3-0.8-4.6-0.8c-1.6,0-3.2,0.1-4.8,0.4
			c-5.7,0.9-9.9,3.7-11.9,9.4c-0.2,0.5-0.4,1-0.5,1.5c-0.9,2.4-1.1,4.8-0.3,7.2c0.9,2.9,2.1,5.5,3.9,7.9c1.2,1.6,2.6,2.8,4.4,3.7
			l2.1,0.9c5.8,2.1,11.3,1.3,16.4-2.2c1.5-1.1,2.8-2.3,3.8-3.9c1.7-2.9,2.8-6,3.1-9.5C91.8,335.1,90.1,331.3,86.5,328.4z"/>
		<path class="st0" d="M71,223.4l7.7,2.1l4,1.2l-5.7-4.1c-1.2-0.9-2.4-1.6-3.6-2.3l-1.8-1.1c-0.1,0-0.2-0.2-0.3-0.2l-3.6-2.4
			c-3.8-2.6-4.9-6.3-3.7-10.2c0.6-2.3,1.5-4.8,2.5-6.5l0.3-0.6c1.7-2.4,3.8-3.8,6.2-3.9l4.2-1.6c1.6-0.6,3.3-0.5,5.2,0.2
			c1.1,0.5,2.2,1,3.6,2l0-0.1c1.8,1.2,3.2,2.3,5,3.5c0.4,0.2,1,0.7,1.3,0.8l2.3,1.7c1.6,1.2,3.3,2.3,4.9,3.3
			c5.2,3.5,10.1,7.2,14.9,11.2c1.9,1.6,3.9,2.9,5.8,4.4l5.8,4.5c2,1.5,3.9,3,5.7,4.6c1.1,0.8,2.1,1.8,3.2,2.6l8.5,6.6
			c0.9,0.7,2.1,2,3.2,3.2c1.8,2.3,2.5,5.1,1.8,7.9c-0.4,2.1-1.5,4.5-2.6,6.3c-0.9,1.8-2.2,2.8-3.8,3.4l-4.7,1.7
			c-1.4,0.9-3.1,1.3-4.9,1.3c-1.5,0-3.4-0.2-4.3-0.4c-4.3-0.6-9.1-1.7-13.2-2.6l-17.2-3.8c-3.2-0.7-6.6-1.6-9.9-2.5l-1.3-0.3
			c-1.6-0.4-3-0.8-4.5-1.1l-1.5-0.3c-3.8-0.9-7.9-1.9-11.4-2.9l-2.4-0.6c-2.2-0.6-4.7-1.3-6.9-2l-1.1-0.4c-1.1-0.2-2.2-0.5-3.5-1.1
			c-4.2-1.9-5.5-4.9-4-9.4c0.4-1.2,1.1-3,1.8-4.4c0.6-1.2,1-2,1.7-2.9c1.3-1.8,3.7-2.9,5.9-3.3l4.1-1.6c1-0.3,2-0.5,3.2-0.4l0-0.1
			c1.2,0.1,2.3,0.3,3,0.5L71,223.4z M110.3,241.5c-0.7,0-1.4-0.1-2.1-0.2c-1.8-0.4-3.6-0.8-5.5-1.3c-2.6-0.6-5.2-1.2-7.8-1.8
			c-3.2-0.7-6.2-1.7-9.2-2.6c-7.2-2.1-14.5-4-21.8-6.1c-0.6-0.2-1.3-0.3-2.1-0.4c-1.3-0.1-2.5,0.4-3.2,1.6c-0.5,0.7-0.9,1.4-1.3,2.2
			c-0.6,1.3-1.1,2.6-1.6,3.9c-0.7,1.9-0.2,3.1,1.6,3.9c0.9,0.4,1.8,0.6,2.8,0.9c3.4,1,6.9,2.1,10.3,3c3.7,1,7.4,1.9,11.2,2.8
			c5.7,1.4,11.5,2.9,17.2,4.2l17.2,3.8c4.3,1,8.5,1.9,12.9,2.6c1.1,0.2,2.3,0.4,3.5,0.4c1.6,0.1,3-0.5,3.8-1.9
			c0.9-1.6,1.7-3.2,2.1-5c0.4-1.6,0.1-3.1-0.9-4.4c-0.8-0.9-1.6-1.8-2.6-2.5l-8.4-6.6c-3-2.4-6-4.9-9-7.2c-3.8-3.1-7.8-5.9-11.6-9
			c-4.7-3.9-9.5-7.5-14.6-10.9c-2.4-1.5-4.8-3.2-7.1-4.8c-2.2-1.5-4.3-3-6.4-4.4c-1-0.7-2-1.1-3-1.6c-1.6-0.6-2.9-0.2-3.9,1.3
			l-0.2,0.5c-1,1.8-1.7,3.8-2.2,5.7c-0.7,2.1-0.2,3.9,1.7,5.2l3.6,2.4c1.9,1.2,3.9,2.4,5.8,3.8c4.6,3.2,9.1,6.4,13.8,9.3l13.6,8.5
			c1.1,0.7,2,1.4,3,2.3c0.6,0.5,1.2,1,1.3,2C111,241.2,110.7,241.5,110.3,241.5z"/>
		<path class="st0" d="M161.4,218.4c-1.9,0.6-3.9,0.4-6.2-0.6c-1.3-0.7-2.4-1.5-3.2-2.1l-10.9-8.3l-8.7-6.9l-9.2-7.7
			c-0.7-0.5-1.7-1.3-2.4-1.9c-0.7-0.5-1.9-1.5-2.5-2c-2.1-1.7-4.3-3.6-6.3-5.4l-7.8-6.6c-0.5-0.4-1.2-0.9-1.7-1.4
			c-0.4-0.3-1.2-1.1-1.7-1.4c-1.2-0.9-2.5-2-3.6-3c-0.9-0.8-1.7-1.6-2.2-2.7c-1.3-2.1-1.5-4.6-0.4-7.1l-0.1-0.1
			c0.7-1.7,2.1-3.8,3.6-5.3c2-2.1,4-3,6-2.9l5.2-0.7c1.6-0.2,3.3,0.4,5.3,1.4l-0.1,0c1.6,0.9,2.5,1.5,3.4,2.2l11.1,8.6l1.8,1.4
			l6.6,5.4l2.1,1.6c1.4,1.1,3.2,2.3,4.6,3.5l7.3,6.2c0.9,0.7,1.8,1.6,2.7,2.3l5.9,5.2c1.2,1,2.6,2.4,3.7,3.4
			c2.8,2.6,5.6,5.3,8.3,7.3c0.7,0.5,1.4,1.3,2.2,2.4c1.7,2.5,1.9,5.4,0.2,7.9c-1,1.8-2.5,3.5-4.1,4.8c-1.3,0.9-2.6,1.6-4,1.8
			L161.4,218.4z M120.1,168.9l-11.1-8.6c-0.9-0.7-1.8-1.4-2.8-1.9c-1.7-1-3.1-1-4.7,0.8c-1.1,1.2-2,2.5-2.7,4
			c-0.6,1-0.5,2.1,0.1,3.1c0.3,0.6,0.9,1.1,1.4,1.6c2.2,1.9,4.5,3.6,6.7,5.5l8.1,6.8c2,1.8,4.1,3.6,6.2,5.2l4.8,3.8l9.2,7.8l8.7,6.9
			c1.9,1.6,3.9,3,5.9,4.5l4.3,3.3c1.1,0.8,2,1.6,3.3,2.2c1.4,0.8,2.8,0.5,4.1-0.4c1.3-1.1,2.3-2.2,3.1-3.6c0.8-1.1,0.7-2.3,0-3.4
			c-0.4-0.5-0.8-1-1.3-1.4c-4.4-3.3-8.2-7.2-12.2-10.9l-5.8-5.1l-2.8-2.3l-7.3-6.2c-2.1-1.7-4.4-3.3-6.5-4.9l-6.7-5.4L120.1,168.9z"
			/>
		<path class="st0" d="M164.1,171.2l-7-7.2c-0.1-0.1-0.2-0.1-0.2-0.1l-0.4-0.5c-3.3-3.4-6.5-6.8-9.8-10.1c-3.7-3.6-7.9-8.2-11.4-12
			c-1.8-2-3.7-4.2-5.5-6.2c-0.6-0.7-1.3-1.6-1.6-2c-2-3.2-2.4-7,1.1-10.5c0.8-0.9,1.7-1.6,2.6-2.4l3.4-3.1l2.4-1.9l0.5-0.4
			c1.2-1,2.6-2.2,3.9-3.2c0.7-0.5,1.6-1,2.4-1.2c1.8-0.8,3.6-0.9,5.3-0.4l4.6,0.2c1.4,0.1,2.7,0.6,4,1.6c1.1,0.8,2.2,1.8,2.9,2.6
			c0.9,0.9,1.8,2.1,2.7,3.4c1.6,2.4,1.5,5,0.3,7.3c-0.5,0.9-1,1.8-1.9,2.8l-2.2,3l0.1,0.1l5,5.2c1.8-0.8,3.6-1,5.3-0.5l4.6,0.2
			c1.5,0.1,3,0.6,4.4,1.7c1.1,0.8,1.8,1.5,2.5,2.3c1.1,1.2,2.4,2.6,3.4,3.8l0.7,0.7c2.4,2.6,2.7,6.3,0.2,9.7
			c-0.3,0.5-0.7,0.9-1.1,1.3l-0.7,0.7l3.5,3.8c0.3-0.3,0.9-0.5,1.3-0.8c1.9-1.1,4.1-1.5,6.4-0.8l4.2,0.2c1.4,0.1,3,0.6,4.5,1.5
			l1.9,1.4c0.8,0.6,1.9,1.5,2.6,2.2l0.2-0.1c4.2,3.7,4.7,7.4,1.2,11.3c-1,1-2.1,1.9-3.2,2.8c-1.3,0.8-2.4,1.8-3.3,2.9
			c-1.9,2.1-3.7,4.1-5,6.2c-0.7,0.9-1.1,1.3-1.7,1.8l-0.7,0.6c-1.4,1.1-2.8,1.6-4.3,1.5l-4.6-0.2c-2,0.5-3.9,0.1-5.8-1.1
			c-0.6-0.4-2-1.7-2.7-2.4L164.1,171.2z M182.1,183.7c0.6,0.7,1.4,1.3,2,1.8c1.1,0.7,2.1,0.7,3.1-0.1c0.6-0.6,1.2-1,1.7-1.6
			c1.5-2.4,3.3-4.4,5.2-6.5c1.2-1.4,2.5-2.6,4-3.6c0.9-0.7,1.8-1.4,2.5-2.2c1.5-1.7,1.4-3.2-0.3-4.7c-0.2-0.1-0.4-0.3-0.5-0.4
			c-0.9-0.7-1.8-1.4-2.8-2.1c-0.6-0.5-1.3-1-2-1.5c-1.2-0.8-2.4-0.7-3.6,0c-0.9,0.5-1.6,1.1-2.2,1.8c-0.9,1.1-1.9,2-3,2.7
			c-1.2,0.8-2.4,0.7-3.5-0.2c-0.5-0.4-0.9-1-1.3-1.5l-5.4-5.8c-0.7-0.7-1.5-1.5-2.1-2.2c-1-1.2-1.1-2.2-0.1-3.4
			c0.4-0.6,1-1.2,1.5-1.7c0.3-0.4,0.7-0.7,1-1c1.3-1.6,1.2-3.3,0.2-4.4l-0.9-0.9c-1-1.2-2.1-2.4-3.2-3.6c-0.6-0.6-1.1-1.2-1.8-1.7
			c-1.4-1.1-2.8-1.1-4.3,0l-2,1.6c-0.4,0.4-0.9,0.7-1.3,1c-0.7,0.5-1.6,0.4-2.4,0.1l-1.3-1c-0.6-0.5-1.2-1.2-1.8-1.9
			c-2.3-2.3-4.6-4.6-6.9-6.9c-0.4-0.4-0.7-0.7-0.9-1.1c-0.6-0.9-0.8-1.9-0.4-2.9c0.2-0.4,0.5-0.9,0.8-1.4l2.4-3.3
			c0.5-0.6,0.9-1.4,1.4-2.1c0.5-0.9,0.5-2-0.1-2.9c-1.3-1.8-2.8-3.6-4.6-5c-0.9-0.7-2.1-0.8-3.1-0.3c-0.6,0.2-1.1,0.4-1.6,0.8
			c-1.4,1.1-2.9,2.3-4.3,3.5l-2.4,1.9c-1.9,1.7-3.8,3.3-5.6,5.1c-1.6,1.6-1.4,3.3-0.4,4.8c0.4,0.5,0.8,1.1,1.3,1.6
			c1.8,2.1,3.5,4.1,5.4,6.1c3.7,4,7.4,8,11.3,11.9c3.4,3.4,6.6,6.8,9.9,10.2c0.2,0.2,0.4,0.3,0.7,0.6l7,7.2L182.1,183.7z"/>
		<path class="st0" d="M208.3,122.9c-1.5-2.4-3.7-5.8-5.6-9c-1.5-2.6-3-5.2-4.4-7.9l-1.1-1.9c-0.2-0.4-0.4-0.8-0.6-1.2
			c-0.2,0.1-0.4,0.1-0.5,0.1c-1.4,0.4-2.8,0.5-4,0.1l-4.2-1.1c-2.2,0.1-4.2-0.8-6-2.8c-0.4-0.5-0.9-1.2-1.6-2.4
			c-0.8-1.4-1.9-3.3-2.5-4.7c-2.2-4.5-1.3-7.8,3.2-10.6c1.4-0.8,3-1.8,4.9-2.5c1.4-0.7,2.6-1.3,3.6-2l14-8.5
			c1.1-0.6,2.3-1.2,3.4-1.6c2.2-0.8,4.3-0.6,6.1,0.5l4.3,1.1c1.4,0.4,2.7,1.2,3.8,2.4c0.3,0.3,0.8,0.9,1.2,1.5L225,77
			c0.4,0.8,0.7,1.6,0.9,2.4c0.7,2.8-0.2,5.2-2.5,7.4l-2.6,1.7l-1.2,0.7l4.8,8.6l4.2,7.7c1.2,2.2,2.4,4.6,3.4,6.8l3.2,6.2l5.9,10.5
			c0.3,0.5,0.6,1.3,0.9,1.8l1,1.8c1.4,2.3,2.8,4.5,4.2,6.8c0.4,0.6,0.7,1.2,1.3,2.6c1.3,3.4,0.2,6.8-2.7,8.9c-1.9,1.2-4,2.4-6.2,3.1
			l-0.1,0c-1.8,0.5-3.4,0.6-4.7,0.3l-4.8-1.3c-2.3-0.1-4.3-1.3-5.9-3.4c-1.3-1.9-2.7-4.3-3.9-6.3l-1.1-1.9c-0.3-0.7-0.5-1.1-0.7-1.4
			c-2.6-4.6-5.2-9.1-8.9-15.4L208.3,122.9z M222,137.6c0.4,0.6,0.7,1.2,1,1.9c1.4,2.5,2.8,5,4.5,7.4c1.2,1.6,2.6,2,4.6,1.4
			c1.9-0.6,3.6-1.6,5.2-2.6c1.3-0.9,1.7-2.3,1.1-3.8c-0.3-0.7-0.6-1.3-1-1.9c-1.4-2.3-2.9-4.6-4.2-6.9c-0.7-1.2-1.3-2.5-2-3.6
			l-5.9-10.5l-3.3-6.4c-1.1-2.2-2.2-4.5-3.4-6.7l-4.1-7.6l-4.7-8.5c-0.3-0.5-0.6-1-0.8-1.6c-0.4-1.2-0.2-2.4,0.9-3.1
			c0.8-0.7,1.8-1.2,2.7-1.8l2.2-1.5c0.9-0.9,1.3-1.9,0.9-3c-0.1-0.5-0.2-0.9-0.4-1.2l-2.6-4.5c-0.2-0.4-0.5-0.7-0.8-1
			c-0.9-0.9-2-1.3-3.3-0.8c-0.9,0.3-1.8,0.7-2.6,1.2L192,80.9c-1.4,0.9-2.9,1.7-4.4,2.4c-1.5,0.5-2.9,1.3-4.2,2.1
			c-2.1,1.3-2.5,2.7-1.4,4.9c0.7,1.5,1.5,2.9,2.3,4.3c0.4,0.6,0.8,1.2,1.2,1.7c1,1.1,2.1,1.4,3.4,1c1.3-0.3,2.4-1.1,3.5-1.7
			c0.7-0.4,1.4-0.8,2.1-1.1c1.1-0.4,2-0.1,2.8,0.7c0.4,0.4,0.7,0.8,1,1.3c0.6,1.1,1.2,2.3,1.9,3.5c2.2,3.9,4.3,7.8,6.5,11.7
			c2.4,4.2,5.1,8.3,6.5,10.6C216.8,128.6,219.4,133.1,222,137.6z"/>
		<path class="st0" d="M272.2,132.9c-1.8-0.4-3.5-1.6-4.6-3.6c-0.5-0.7-0.7-1.5-0.9-2.4l-0.2-0.9c-1.3-4.6-2.6-9-4.1-13.5l-4.5-13.2
			c-0.7-1.9-1.4-4.6-2-6.6c-0.2-0.8-0.5-1.6-0.8-2.4l-0.7-2.4c-0.9-2.9-2.2-7.2-2.9-10c-0.4-1.4-0.8-3-1.1-4.4l-0.5-1.9
			c-0.2-0.6-0.3-1.3-0.5-2l-0.7-2.7c-0.1-0.4-0.3-0.8-0.4-1.3l-0.4-1.4c-0.6-1.8-1.4-4.8-1.8-6.4c-0.2-0.8-0.3-1.8-0.4-2.4
			c-0.5-3.5,1-5.9,4-7.5c0.3-0.1,0.6-0.2,0.8-0.3c0.4-0.2,1.1-0.5,1.5-0.6l6.1-1.7c1.9-0.5,3.6-0.6,5.3-0.8c0.4-0.1,0.8,0,1.2-0.1
			c3-0.1,5.3,0.7,7.3,2.7l3.5,1.9c1.1,0.6,2.1,1.5,3,2.6l1.7,2.6l0.7,1.2l0.1,0c0.4,0.7,0.8,1.4,1.2,2c-0.4-1.4-0.9-2.8-1.3-4.3
			c0,0,0-0.1-0.2-0.4c-0.6-1.5-0.9-3.2-1.1-5.4c0-3.1,1.5-5.9,4.8-7.2c1.8-0.7,4-1.3,6.4-1.4c2.8,0,5,0.7,6.4,2.3l3.8,2.1
			c1.4,0.8,2.6,2.2,3.2,4.1c0.5,1.2,1,2.7,1.4,3.7l3.4,9.5l0.5,1.7c0.1,0.5,0.3,0.8,0.5,1.4c1.2,3.8,2.5,8.1,3.6,11.9
			c1.2,3.9,2.5,8.3,3.7,12.2l1.5,4.4c0.8,2.2,1.6,4.8,2.3,7c0.7,2.4,1.4,4.9,2.1,7.4c0.7,2.4,1.2,4.9,1.9,7.3
			c0.3,1.1,0.5,2.4,0.3,3.8c-0.3,3.2-2.1,5.2-5,6.1c-1,0.3-2.7,0.7-3.8,0.9l-2.6,0.7c-1,0.3-1.9,0.4-2.9,0.7l-2,0.3
			c-1.9,0.4-3.7,0.1-5.4-0.9l-3.8-2.2c-1.4-0.4-2.7-1.1-3.9-2.2c-0.2-0.1-0.5-0.3-0.6-0.6l0-0.2c-0.4-0.4-0.7-0.8-1-1.4
			c-2.7-4.3-5.4-8.4-8.3-12.6l1.3,3.9c0.8,3,1.8,6.1,2.8,9l1.1,3.2c0.3,1,0.6,2.1,0.7,3.7c0.4,3.7-1.1,6.5-4.7,7.7
			c-1.7,0.6-3.5,1.3-6.1,1.7l0.1,0.1c-1.7,0.3-3.4,0.1-5-0.8L272.2,132.9z M294.1,87.5l-4-5.3c-2-3.1-4.1-6.2-6.3-9.4
			c-1.3-2-2.8-3.8-4.1-5.9c-2.7-4.1-5.3-8.2-8-12.4c-0.8-1.2-1.5-2.4-2.4-3.5c-1.2-1.5-2.6-2.2-4.6-2.1c-1.8,0.1-3.7,0.2-5.5,0.8
			l-6.1,1.7c-0.5,0.1-1,0.4-1.5,0.6c-1.1,0.6-1.7,1.5-1.6,2.8c0.1,0.6,0.1,1.3,0.2,1.8c0.6,2.1,1.1,4.2,1.8,6.2
			c0.5,1.9,1.1,3.7,1.6,5.5c0.8,2.8,1.3,5.6,2.1,8.4c1.3,4.9,2.9,9.9,4.3,14.9c0.6,2.1,1.1,4.2,1.9,6.2l4.6,13.4
			c1.4,4.6,2.8,9,4.1,13.6c0.2,0.6,0.4,1.3,0.6,1.9c0.8,1.6,2.2,2.1,3.7,1.9c1.8-0.2,3.4-0.8,5-1.5c1.5-0.5,2.2-1.7,2.1-3.4
			c-0.1-1.1-0.4-2-0.6-3c-1.3-4.1-2.7-8.1-3.8-12.2c-1.6-5.2-3-10.5-4.5-15.8c-0.1-0.3-0.2-0.7-0.4-1c-1.2-3.4-2.2-7-3.1-10.5
			c-0.3-1-0.3-2.2-0.4-3.3c-0.1-0.3,0-0.7,0.5-0.9c0.6,0.2,0.9,0.7,1.3,1.1l1.6,2.2l3.9,5.2c2.2,2.7,4.2,5.6,6.1,8.4
			c0.7,1.1,1.5,2.2,2.2,3.3c4.5,6.4,9.1,12.7,13.1,19.5c0.3,0.6,0.9,1.1,1.3,1.5c0.9,0.9,1.9,1.2,3.2,1l1.8-0.3
			c1.9-0.5,3.9-1,5.8-1.5c1.1-0.2,2.3-0.5,3.3-0.8c1.3-0.4,2.1-1.3,2.1-2.7c0.1-0.7,0-1.4-0.2-2.1c-1.2-4.9-2.6-9.8-4-14.6
			c-1.1-3.8-2.5-7.5-3.7-11.3c-1.2-4.1-2.4-8.2-3.7-12.3c-1.2-4-2.4-7.9-3.6-11.9c-0.3-1-0.7-2.1-0.9-3.1l-3.3-9.4
			c-0.4-1.1-0.8-2.2-1.3-3.4c-0.7-1.8-1.9-2.6-4-2.6c-1.8,0.1-3.3,0.5-4.9,1.2c-1.3,0.4-1.9,1.6-1.9,3c0.1,1.2,0.3,2.2,0.7,3.3
			c0.2,0.3,0.3,0.8,0.4,1.2c1.9,6.2,3.5,12.5,5.6,18.6c0.9,2.5,1.5,5,2.3,7.5c0.8,2.8,1.6,5.5,2.4,8.3c0.2,0.7,0.4,1.4,0,2.1
			C294.7,88.5,294.4,88,294.1,87.5z"/>
		<path class="st0" d="M372.4,117.8c-1.8-1.2-3.1-2.9-3.5-5.3c-0.2-1.4-0.5-3.4-0.6-5c-0.3-2.7-0.6-5.9-0.8-8.7
			c-0.2-2.2-0.5-4.8-0.6-6.9l-0.1-0.6l-1.2,0c-0.7,0-1.2,0.1-1.5,0.1l-0.3,2.2c-0.4,3.1-1.3,6.6-2,9.8l-1.2,5.1
			c-0.4,1.9-0.8,4.2-1.3,6c-0.3,1-0.3,1.5-0.9,3.1c-1,2.8-3.3,4.6-6.3,5.1c-1.4,0.2-2.8,0.3-4,0.3c-1.2,0-2.5-0.1-3.9-0.4
			c-2-0.5-3.3-1.1-4.3-2.1l-3.2-3.3c-2.4-1.3-3.3-3.5-3.1-6.9c0-1.3,0.1-1.9,0.2-2.5v-0.1c0-0.3,0.1-0.5,0.1-0.7
			c0.6-3.9,1.4-8.1,2.3-11.9c0.1-0.3,0.2-0.5,0.2-0.6c0.1-1,0.3-1.7,0.5-2.5l0.6-2.5c1.2-5.4,2.5-12.2,3.4-17.5
			c0.6-3.8,1.4-7.6,2.1-11.4l0.4-2.6c0.2-1.4,0.4-3,0.7-4.5l0.7-4.4l0.3-2.2l0.3-1.2l0.3-1.8c0-0.3,0-0.7,0.1-1
			c0-0.4,0.1-0.8,0.1-1.2c0-1.2,0.1-2.2,0.2-3c0.1-0.7,0.3-2,0.5-2.7c0.9-3.3,3.1-5.4,6.5-5.9l1.1-0.2c1.2-0.2,2.7-0.4,3.8-0.6
			c1.7-0.1,3.4-0.3,5.6-0.3c1.1,0,2.7,0.1,3.7,0.2c0.4,0,1.2,0.1,1.6,0.1c0.5,0.1,1.1,0.1,1.6,0.1l2.4,0.3l0.6,0
			c2.8,0.7,4.8,2.1,6,4.3l3,3c1,1.1,1.7,2.4,2.1,4l0.6,2.3l-0.1-0.1c0.5,2.1,1,4.1,1.6,6.2c1,3.7,1.7,7.8,2.3,11.8
			c0.5,3.6,1,7.2,1.6,10.9l0.3,1.9l-0.1-0.1L391,76c0.7,5.3,1.4,10.8,1.5,15.6c0.1,4.9,0.3,9.9,0.5,14.8l0.4,6.9
			c0.1,1.2,0,2.9-0.2,4.3c-0.9,3.3-3.3,5.2-6.3,5.8c-1.1,0.2-2.6,0.3-3.6,0.3c-1.2,0-2.4-0.1-3.6-0.4c-1.6-0.4-3-1.1-4.1-2.2
			L372.4,117.8z M366.9,82.5c0.6,0,1.2,0.2,1.8,0.3c1,0.3,1.6,1,1.9,1.9c0.2,0.4,0.3,0.8,0.3,1.3l0.3,3.8c0.2,2.9,0.5,5.7,0.8,8.6
			c0.2,3,0.5,5.9,0.8,8.7c0.1,1.6,0.3,3.2,0.5,4.7c0.2,1.6,1.4,2.4,2.9,2.8c1.8,0.4,3.7,0.4,5.5,0.1c1.4-0.2,2.5-1.1,2.9-2.7
			c0.2-1,0.2-2,0.1-3.1l-0.4-6.9c-0.2-4.9-0.4-10-0.5-14.9c-0.2-5.7-1-11.4-1.7-16.9c-0.6-4.3-1.3-8.6-1.9-12.8
			c-0.6-3.8-1.2-7.6-2.2-11.3c-0.6-2.1-1.1-4.2-1.6-6.2l-0.5-2.3c-0.4-1.7-1.5-2.8-3.2-3.2c-0.8-0.1-1.7-0.3-2.5-0.3l-3.6-0.2
			c-2.8-0.3-5.6-0.3-8.5,0c-1.5,0.2-3.1,0.4-4.6,0.6s-2.5,1.1-2.8,2.7c-0.2,0.6-0.3,1.3-0.3,2c-0.2,1.7-0.2,3.3-0.4,5
			c-0.2,1.8-0.6,3.5-0.9,5.3l-1.4,8.9c-0.9,4.7-1.8,9.3-2.5,14c-1,5.9-2.2,11.8-3.5,17.8c-1.2,5.7-2.6,11.5-3.4,17.3
			c-0.1,0.9-0.3,1.9-0.3,2.8c-0.1,2.1,0.6,3.1,2.5,3.6c2.1,0.5,4.3,0.4,6.4,0.1c1.4-0.2,2.5-1,2.9-2.4c0.4-0.8,0.6-1.7,0.8-2.6
			c0.9-3.7,1.6-7.4,2.4-11.2c0.8-3.1,1.5-6.2,2-9.3c0.1-1.1,0.4-2.2,0.6-3.3c0.3-1.4,1.2-2.2,2.6-2.4c0.8-0.2,1.5-0.2,2.3-0.2
			c1-0.1,1.9,0,2.9,0.1C364.6,82.5,365.7,82.4,366.9,82.5z M359.8,71.2c-1.6-0.2-2.2-1.5-2.2-2.8c0-0.4,0.2-0.9,0.3-1.3
			c0.4-3.4,0.8-6.8,1.3-10.2c0.3-2.2,0.7-4.6,1.2-6.9c0-0.4,0.2-0.8,0.4-1.2c0.7-1.3,2.3-1.7,3.5-0.8c0.8,0.5,1.1,1.5,1.3,2.5
			c0.3,1.4,0.5,2.8,0.7,4.2l1.9,12.3l0.2,2.2c0,1.6-0.8,2.4-2.4,2.5L359.8,71.2z"/>
		<path class="st0" d="M454.9,136.5c-1-1.4-1.4-3.1-1.2-5.2c0-0.4,0.1-1.1,0.3-1.6c0.1-0.6,0.5-1.7,0.7-2.3l0.1-0.2l-2.2,3.7
			c-0.7,1.3-1.4,2.4-2.1,3.3c-0.7,1.1-1.6,2-2.5,2.8c-2,1.7-4.3,1.9-6.6,1.7l-0.9-0.3c-1-0.4-2.1-0.6-3.1-1
			c-1.5-0.5-3.3-1.1-4.8-1.7c-2.1-0.8-3.4-2-4.1-3.4l-2-4.1l-0.4-0.5c-1.8,2.4-4.4,3.1-7.4,2.8c-2.6-0.3-5.1-0.9-7.6-1.9
			c-1.8-0.8-3-1.9-3.8-3.4l-1.9-3.9c-1.4-1.4-2-3.4-1.8-5.6l-0.1,0c0-1.1,0.4-2.1,0.7-3.1c1.3-3.7,2.6-7.6,4.2-11.2
			c0.5-1.2,1.1-2.8,1.4-3.9l0.5-1.4c0.2-0.5,0.3-1.1,0.5-1.6l3.9-11.6l2.3-6.5c1.4-4.1,2.7-7.9,3.9-12.1c1.1-3.8,2.4-7.6,3.6-11.3
			c0.5-1.8,1.3-4.3,1.9-6.2c0.1-0.4,0.2-0.8,0.3-1.2l0.1-0.3c0.1-0.3,0.2-0.8,0.6-1.3c1.6-3.5,5-5.5,8.7-5.2
			c1.3,0.1,2.5,0.4,3.9,0.8l10.5,3.7c1.2,0.4,2,1,2.9,1.6c2,1.4,3.2,3.2,3.7,5.4l1.6,3.4l0,0.1l0.2,0.4c0.6,1.3,0.9,2.7,0.7,4.2
			c-0.2,1.3-0.2,2.6-0.2,2.6l0-0.1c-0.5,2.7-0.6,5.4-0.9,8.2l-0.2,0.5l0.1,0l-0.2,1.7l0.7-1.1l2.8-4.7c1.2-2.1,2.6-4.3,3.9-6.5
			c0.6-1,1.3-2,2-3c0.3-0.4,0.7-0.8,1-1.5l1-1.2c2.5-2.8,5.6-3.6,9-2.6c1.3,0.5,3,1.2,4.3,1.7c0.3,0.1,1,0.4,1.4,0.6
			c0.5,0.3,1,0.4,1.4,0.6c1.7,0.8,3.4,1.5,5.1,2.2c3.8,1.5,5.4,3.5,5.9,6l2,4.1c0.9,1.8,0.7,3.9,0.1,6.2c-0.9,3.5-1.9,7.7-2.9,11.3
			l-2.2,6.9c-1.1,3.6-2.5,8-3.7,11.7l-1.5,4.8c-1.3,4.1-2.5,8.1-3.6,12.4l0,0.1c-0.2,0.8-1,3.3-1.3,4.1c-1,3.2-2.5,7.5-3.6,10.6
			l-1.8,6.3c-0.3,0.9-0.6,1.8-0.9,2.4c-1.4,3.1-3.8,4.5-7.2,4.4l-0.2-0.1c-1.3,0-2.6-0.2-3.5-0.5c-1.6-0.3-3.6-0.8-5.2-1.6
			c-1.9-0.9-3.1-2-3.8-3.3L454.9,136.5z M437.3,77.4c-0.5,5.4-1.5,10.7-2.5,16c-0.8,3.6-1.6,7.2-2.1,10.9c-0.6,4.5-1.5,9.1-2.7,13.6
			c-0.4,1.4-0.6,2.8-0.8,4.2c-0.2,1.9,0.4,3.1,2.1,3.8c2.5,1,5.1,1.7,7.7,2.6l0.3,0.1c1.2,0.1,2.3,0,3.1-0.8
			c0.7-0.5,1.3-1.2,1.7-1.9c0.7-1,1.4-2,1.9-3c2.2-3.4,4.1-7.1,6.3-10.5c3.1-4.9,6.3-9.9,9.2-15c2-3.7,4.2-7.2,6.8-10.6
			c0.4-0.6,0.9-1.3,1.4-1.9c0.9-0.8,1.1,0,1,1.2c-0.1,0.8-0.2,1.7-0.4,2.4l-2,6.9c-0.7,2.4-1.3,4.9-1.9,7.3l-2.1,8.6
			c-0.4,1.8-0.9,3.6-1.5,5.4c-1.3,4-2.7,8-4.1,12.1c-0.2,0.5-0.4,1.1-0.5,1.7c-0.1,0.3-0.2,0.8-0.2,1.2c-0.2,1.6,0.3,2.6,1.9,3.3
			c1.4,0.7,2.9,1,4.4,1.4c1,0.2,1.9,0.4,2.9,0.4c1.5,0.1,2.6-0.7,3.2-2.1c0.3-0.6,0.5-1.1,0.7-1.7l1.8-6.2c1.2-3.6,2.5-7.1,3.7-10.7
			c0.5-1.3,0.9-2.6,1.3-3.9c1.5-5.9,3.4-11.7,5.2-17.5c1.3-3.8,2.5-7.7,3.6-11.5l2.3-7c1-3.7,1.9-7.3,2.8-10.9
			c0.6-2.3,0.5-4.1-2.7-5.3c-2.8-1.1-5.4-2.3-8.1-3.4c-1.2-0.5-2.6-1.1-3.9-1.5c-1.6-0.5-3-0.2-4.1,1.1l-0.6,0.6
			c-1.1,1.5-2.2,3-3.1,4.5c-2.3,3.7-4.4,7.5-6.7,11.1c-2.4,3.8-4.7,7.6-6.9,11.4c-1.3,2.3-2.6,4.5-4.1,6.8c-0.5,1-1.3,1.8-2,2.6
			c-0.3,0.4-0.6,0.7-1.3,0.6c-0.4-0.3-0.5-0.8-0.5-1.3c0-0.9,0.1-1.8,0.3-2.7c0.6-4.2,1.2-8.4,1.7-12.7c0.4-4.6,1-9.3,1.4-13.9
			c0.3-3,0.6-6,1-9c0.1-0.6,0.2-1.4,0.3-2.1c0.1-1.6-0.5-2.9-2-3.8c-0.5-0.4-1.2-0.8-1.8-1l-10.2-3.6c-1-0.3-2.1-0.5-3.2-0.7
			c-1.9-0.3-3.3,0.5-4.1,2.4c-0.3,0.5-0.4,0.9-0.6,1.3c-0.8,2.4-1.5,4.8-2.2,7.2c-1.2,3.8-2.5,7.5-3.6,11.3c-1.2,4.2-2.5,8.3-4,12.3
			c-0.8,2.1-1.5,4.2-2.3,6.5L415,95.8c-0.8,2.4-1.4,4.8-2.4,7.1c-1.6,3.7-2.9,7.3-4.1,10.9c-0.2,0.5-0.4,1-0.4,1.6
			c-0.2,1.5,0.4,2.7,1.8,3.3c2.1,0.8,4.3,1.3,6.5,1.6c2,0.3,3.5-0.3,4.5-2.6c0.4-1,0.8-1.9,1.1-2.9c1.4-4.1,2.8-8.2,4.2-12.3
			c0.6-1.7,1.1-3.3,1.6-5c0.7-2.3,1.3-4.6,2.2-6.8c1.4-3.9,2.9-7.8,4.5-11.6c0.3-0.8,1.5-4.5,2.6-4.1
			C437.7,75.2,437.3,76.7,437.3,77.4z M424.9,119.9L424.9,119.9l0-0.2L424.9,119.9z M456.7,54.3c-0.2,0.4-0.3,0.7-0.3,0.7l0.2,0
			l0-0.1l0,0.1l0.1,0C456.7,55,456.7,54.7,456.7,54.3z M458.7,53.4c0.1,0,0.1,0,0,0.1L458.7,53.4z"/>
		<path class="st0" d="M522.8,142.2l0.1,0.1l1.8-2.4c2.1-2.8,4.2-5.6,6.3-8.4l-0.9-0.6l-5.6,7.3c-0.9,1.3-2.2,3.3-3.2,4.5
			c-0.6,0.8-1.2,1.6-1.7,2.4c-2.7,4-5.3,7.9-7.9,11.9c-1,1.4-1.7,2.8-2.6,4.3l-1.1,2c-0.5,0.8-1.3,1.8-1.9,2.5c-2.2,2.4-5,2.9-8.1,2
			c-0.7-0.2-1.4-0.5-2.4-1l0-0.1c-2.5-1.3-5-2.8-7.2-4.6c-1.5-1.3-2.4-2.7-2.6-4.3l-0.6-4.5c-0.8-1.6-0.7-3.5,0-5.6
			c0.3-0.8,0.8-1.9,1.3-2.5c0.5-0.8,1.6-2.2,2.2-3.1c3.6-4.8,7.4-9.7,11.1-14.5c1-1.3,3-3.7,3.7-4.6l0.9-1.2c0.3-0.4,0.7-0.7,1-1.2
			l5.5-7c3-3.7,6-7.6,9-11.2l2.1-2.7c0.6-0.8,1.3-1.5,1.9-2.3c2.3-3.1,4.8-6.2,7.2-9.2c0.7-0.9,2-2.3,2.8-3.1
			c3.5-3.3,7.2-3.5,10.9-0.7c1.4,1.1,2.8,2.2,4.1,3.7c1.6,1.9,2.7,3.9,2.3,6.4l0.7,4.6c0.2,1.5-0.1,3.1-1.3,5
			c-0.4,0.6-1,1.5-1.6,2.2c-0.3,0.4-0.6,0.7-0.9,1l-3.2,4.2c0.4,0.3,0.7,0.6,1.1,0.9c2.6-2.9,5.2-6,7.7-8.9
			c3.1-3.4,6.1-5.5,11.8-1.2l2.6,2c2.4,2.1,3.4,4.4,2.9,6.9l0.6,4.2c0.2,1.5-0.1,3.2-1,5.1l-0.4,0.6c-2.7,3.9-6.1,8.6-8.9,12.4
			l-2.9,3.8c-1,1.3-1.9,2.3-2.8,3.6c-3.6,5-7.1,9.9-10.4,14.9c-3.7,5.5-7.7,11.2-11.7,16.4c-1.3,1.7-2.6,3.8-3.9,6
			c-0.4,0.6-1,1.5-1.7,2.5c-2.3,2.6-5.4,3.2-8.6,2.1c-0.6-0.2-1-0.6-1.4-0.8c-0.5-0.4-1-0.8-1.7-1.2c-1.5-1-2.9-2-4.2-3.2
			c-1.6-1.5-2.4-3.1-2.6-4.7l-0.6-4.7c-0.9-2.1-0.6-4.2,0.5-6.6c0.8-1.8,2.1-3.5,3.3-5.1c1.6-2.1,3-4,4.6-6.2
			C518.8,148.1,521.4,144.4,522.8,142.2z M525.5,146.3c-1.4,2.2-3,4.4-4.6,6.6s-3.1,4.3-4.7,6.4c-1,1.4-2.1,2.7-2.8,4.2
			c-0.9,1.8-0.7,3.2,0.8,4.7c1.7,1.6,3.7,2.7,5.5,4.1c0.1,0.1,0.3,0.2,0.5,0.2c1.4,0.6,2.7,0.3,3.7-0.8c0.5-0.6,0.9-1.3,1.3-2
			c1.4-2.2,2.7-4.4,4.2-6.5c4-5.2,7.7-10.6,11.5-16.1c3.4-5,6.9-10,10.5-15c1.9-2.6,3.9-5,5.8-7.6c3-4.1,5.9-8.2,8.8-12.3l0.3-0.4
			c0.8-1.7,0.6-3-0.9-4.2c-0.7-0.7-1.6-1.2-2.4-1.8c-2.7-2-4.2-1-5.6,0.6c-2.6,3.1-5.3,6.2-7.9,9.2c-0.2,0.3-0.4,0.6-0.7,0.8
			c-1.7,1.6-2.7,1.5-4.1,0.4l-0.3-0.2c-1.9-1.5-3.8-3-5.7-4.4c-0.4-0.3-0.8-0.7-1.2-1.1c-1.1-1.3-1.2-2.2-0.2-3.6
			c0.2-0.4,0.5-0.8,0.8-1.2c0.6-0.8,1.3-1.6,1.9-2.4l3.5-4.6c0.5-0.6,1-1.2,1.6-1.9c0.4-0.6,0.9-1.2,1.2-1.8c1.3-2,0.7-3.2-0.5-4.6
			c-1-1.1-2.2-2.1-3.4-3.1c-1.8-1.4-3.5-1.3-5,0.2c-0.8,0.8-1.7,1.8-2.4,2.7c-3.6,4.5-7.2,9.1-10.8,13.7l-0.4,0.6
			c-3,3.6-5.9,7.4-8.9,11.1l-5.5,7c-1.9,2.4-3.9,4.6-5.7,7c-3.8,4.8-7.4,9.6-11.1,14.4c-0.7,0.9-1.4,1.9-2,2.8
			c-0.4,0.5-0.6,1-0.9,1.6c-0.5,1.4-0.2,2.5,0.9,3.4c2,1.6,4.2,3,6.5,4.1c0.6,0.3,1.1,0.5,1.6,0.7c1.5,0.4,2.8,0.2,3.8-1
			c0.5-0.4,0.8-0.9,1.2-1.6c1.3-2.1,2.5-4.3,3.9-6.4c2.5-3.9,5.2-7.9,7.9-11.9c0.5-0.8,1.2-1.8,1.9-2.6c1-1.4,2-2.9,3.1-4.3l4.5-5.9
			c0.8-1,1.5-1.9,2.2-2.8c1-1.2,1.9-1.3,3.2-0.7c0.4,0.2,0.8,0.5,1.2,0.8l3.4,2.6c0.7,0.6,1.5,1.2,2.1,1.9c1.5,1.4,1.7,2.8,0.7,4.5
			c-0.3,0.6-0.6,1.1-1.1,1.7c-2.7,3.7-5.5,7.4-8.3,11.1l-2.8,3.6L525.5,146.3z"/>
		<path class="st0" d="M554.8,219.9c-0.2-2.1,0.4-4.2,2-6c1-1.1,2.4-2.5,3.5-3.6c1.9-1.9,4.3-4.2,6.3-6.1c1.5-1.5,3.5-3.3,5.1-4.8
			l0.5-0.4l-0.7-0.9c-0.4-0.6-0.8-0.9-1-1.2l-2,1.1c-2.7,1.6-5.9,3.1-9,4.4l-4.7,2.2c-1.7,0.9-3.8,2-5.5,2.7c-1,0.4-1.4,0.7-2.9,1.2
			c-2.8,0.9-5.7,0.3-7.9-1.8c-1.1-1-2-2-2.7-3c-0.7-0.9-1.5-2.1-2.1-3.3c-0.8-1.9-1.2-3.3-1-4.7l0.6-4.5c-0.5-2.7,0.7-4.7,3.5-6.7
			c1-0.8,1.6-1.1,2.1-1.4l0.1-0.1c0.2-0.2,0.5-0.2,0.6-0.4c3.4-1.9,7.2-3.9,10.8-5.6c0.3-0.1,0.5-0.2,0.6-0.2
			c0.8-0.5,1.5-0.8,2.3-1.2l2.3-1.1c5-2.4,11.2-5.6,15.8-8.2c3.3-1.9,6.8-3.6,10.2-5.4l2.3-1.3c1.2-0.7,2.6-1.5,4-2.2l3.9-2.2
			l1.9-1.1l1.1-0.5l1.6-0.9c0.2-0.2,0.6-0.4,0.8-0.5c0.3-0.2,0.7-0.4,1-0.6c0.9-0.7,1.8-1.2,2.5-1.7c0.6-0.4,1.7-1,2.4-1.3
			c3.1-1.4,6.2-0.9,8.7,1.4l0.8,0.8c0.9,0.8,2,1.9,2.8,2.6c1.2,1.2,2.4,2.5,3.7,4.2c0.7,0.9,1.6,2.2,2.1,3c0.2,0.3,0.6,1,0.9,1.3
			c0.3,0.5,0.6,0.9,0.9,1.3l1.3,2.1l0.4,0.5c1.2,2.6,1.3,5.1,0.3,7.4l-0.5,4.2c-0.3,1.4-0.8,2.8-1.8,4.1l-1.5,1.9l0-0.1
			c-1.3,1.7-2.6,3.3-3.8,5.1c-2.3,3.1-5.1,6.1-7.8,9.1c-2.5,2.6-5,5.3-7.6,8l-1.3,1.4l0-0.1l-1.3,1.4c-3.7,3.9-7.7,7.8-11.3,10.9
			c-3.8,3.1-7.6,6.4-11.3,9.5l-5.2,4.6c-0.9,0.8-2.2,1.8-3.5,2.5c-3.1,1.4-6.1,0.6-8.5-1.3c-0.9-0.7-1.9-1.9-2.5-2.6
			c-0.7-0.9-1.4-2-1.9-3.1c-0.7-1.5-1-3.1-0.8-4.6L554.8,219.9z M579.1,193.7c0.4,0.5,0.6,1,0.9,1.6c0.4,0.9,0.2,1.9-0.4,2.6
			c-0.2,0.4-0.5,0.7-0.8,1.1l-2.8,2.6c-2.1,2-4.2,3.9-6.3,5.9c-2.2,2-4.3,4.1-6.3,6.1c-1.2,1.1-2.3,2.2-3.3,3.3
			c-1.1,1.2-1.1,2.6-0.4,4.1c0.8,1.6,2,3.1,3.3,4.4c1.1,1,2.5,1.3,3.9,0.7c0.9-0.5,1.7-1.1,2.5-1.8l5.2-4.6
			c3.8-3.2,7.6-6.5,11.5-9.6c4.3-3.6,8.3-7.8,12.3-11.8c3-3.2,5.9-6.3,8.9-9.4c2.6-2.8,5.2-5.7,7.5-8.8c1.3-1.8,2.6-3.4,3.9-5.1
			l1.5-1.9c1.1-1.4,1.3-2.9,0.5-4.5c-0.4-0.7-0.8-1.5-1.3-2.2l-2-3c-1.5-2.4-3.2-4.6-5.3-6.6c-1.1-1.1-2.2-2.2-3.4-3.2
			c-1.1-1.1-2.5-1.3-3.9-0.5c-0.6,0.2-1.2,0.6-1.7,1c-1.5,0.9-2.8,1.9-4.2,2.8c-1.5,0.9-3.1,1.7-4.7,2.6l-7.8,4.4
			c-4.2,2.2-8.4,4.4-12.5,6.7c-5.3,2.9-10.7,5.6-16.1,8.3c-5.2,2.6-10.6,5.1-15.7,8c-0.8,0.5-1.7,0.9-2.4,1.5
			c-1.7,1.2-2,2.4-1.2,4.2c1,2,2.3,3.6,3.9,5.1c1.1,1,2.3,1.3,3.7,0.8c0.9-0.2,1.7-0.6,2.5-1c3.4-1.6,6.8-3.4,10.3-5
			c2.9-1.3,5.8-2.6,8.5-4.2c0.9-0.6,2-1.1,3-1.6c1.3-0.7,2.5-0.4,3.5,0.5c0.6,0.5,1.1,1.1,1.6,1.7c0.7,0.7,1.2,1.5,1.8,2.3
			C577.7,191.9,578.4,192.7,579.1,193.7z M583.5,181.1c-0.8-1.4-0.2-2.7,0.9-3.5c0.4-0.3,0.8-0.4,1.2-0.6c2.9-1.8,5.9-3.6,8.9-5.3
			c2-1.1,4-2.3,6.2-3.3c0.3-0.2,0.8-0.4,1.2-0.4c1.5-0.2,2.7,0.8,2.8,2.3c0.1,1-0.4,1.8-1.1,2.6c-0.9,1.1-1.9,2.1-2.9,3.2l-8.5,9.1
			l-1.5,1.5c-1.3,1-2.4,0.9-3.4-0.3L583.5,181.1z"/>
		<path class="st0" d="M609.9,238.6c2.5-1.2,6.2-2.9,9.7-4.4c2.7-1.1,5.6-2.2,8.4-3.3l2-0.8c0.4-0.2,0.8-0.4,1.3-0.4
			c-0.1-0.2-0.1-0.4,0-0.5c-0.2-1.5-0.1-2.8,0.4-4l1.6-4c0.2-2.2,1.3-4.1,3.6-5.6c0.5-0.3,1.3-0.7,2.6-1.3c1.5-0.6,3.5-1.5,5-1.9
			c4.8-1.6,7.9-0.3,10.1,4.6c0.6,1.5,1.3,3.2,1.8,5.2c0.5,1.4,1,2.7,1.5,3.9l6.6,15c0.5,1.2,0.9,2.4,1.1,3.6c0.5,2.3,0.1,4.4-1.3,6
			l-1.6,4.1c-0.5,1.3-1.6,2.5-2.9,3.5c-0.4,0.3-1,0.7-1.6,1l-4.8,2c-0.8,0.4-1.7,0.5-2.5,0.6c-2.9,0.3-5.2-0.9-7-3.5l-1.4-2.8
			l-0.6-1.3l-9.1,3.6l-8.2,3.1c-2.4,0.9-4.8,1.7-7.2,2.5l-6.6,2.4l-11.2,4.4c-0.5,0.2-1.4,0.5-1.9,0.7l-1.9,0.8
			c-2.5,1-4.9,2.1-7.3,3.3c-0.7,0.3-1.3,0.6-2.7,1c-3.6,0.8-6.8-0.7-8.5-3.9c-1-2-1.9-4.3-2.3-6.6l0-0.1c-0.3-1.8-0.2-3.4,0.4-4.7
			l1.9-4.6c0.4-2.2,1.8-4.1,4.2-5.4c2.1-1.1,4.6-2.1,6.7-3l2.1-0.9c0.7-0.2,1.1-0.4,1.5-0.5c4.8-1.9,9.7-3.9,16.5-6.8L609.9,238.6z
			 M593.5,250.3c-0.7,0.3-1.3,0.6-2,0.8c-2.7,1.1-5.3,2.1-7.9,3.5c-1.7,1-2.3,2.3-2,4.3c0.3,1.9,1.1,3.7,1.9,5.5
			c0.7,1.4,2.1,2,3.6,1.6c0.7-0.2,1.4-0.5,2-0.8c2.5-1.1,4.9-2.2,7.4-3.3c1.2-0.5,2.6-1,3.8-1.5l11.2-4.4l6.8-2.4
			c2.3-0.8,4.7-1.6,7.1-2.5l8.1-3.1l9-3.6c0.6-0.2,1.1-0.4,1.7-0.6c1.3-0.2,2.4,0.1,3,1.3c0.6,0.9,1,1.9,1.4,2.9l1.2,2.4
			c0.7,1.1,1.7,1.5,2.9,1.3c0.5,0,0.9-0.1,1.3-0.2l4.8-2c0.4-0.2,0.7-0.4,1.1-0.6c1.1-0.7,1.6-1.8,1.2-3.1c-0.2-0.9-0.5-1.9-0.9-2.8
			l-6.5-14.9c-0.7-1.5-1.3-3.1-1.8-4.7c-0.3-1.5-1-3-1.6-4.4c-1-2.2-2.3-2.8-4.7-2.1c-1.6,0.5-3.1,1.1-4.5,1.7
			c-0.7,0.3-1.3,0.6-1.8,1c-1.2,0.8-1.7,1.9-1.5,3.2c0.2,1.3,0.8,2.5,1.2,3.7c0.3,0.8,0.6,1.5,0.8,2.2c0.3,1.1-0.1,2-1,2.7
			c-0.4,0.4-0.9,0.6-1.4,0.8c-1.2,0.5-2.4,0.9-3.7,1.4c-4.2,1.6-8.3,3.2-12.5,4.9c-4.5,1.9-8.9,3.9-11.4,5
			C603.2,246.3,598.4,248.3,593.5,250.3z"/>
		<path class="st0" d="M624.8,335.1c1-1.6,2.2-2.9,3.5-3.9c4.1-3.5,8.7-5.2,13.6-5.4c2.2-0.1,4.5,0.2,6.8,0.8l2.4,0.8
			c2.4,1.1,4.7,2.5,6.5,4.5c2.4,2.7,4.2,5.7,5.4,8.7c0.7,1.7,1,3.5,1.1,5.2c0,1.6-0.2,3.1-0.6,4.8c-0.1,0.3-0.2,0.5-0.2,0.6
			c-0.1,0.4,0.5,0-0.2,1c-1.3,4.5-3.7,7.9-6.9,10.2l-2,2.1l0.3-0.3l-0.4,0.6c-2.5,2.7-5.7,4.4-9.6,5.5c-1.6,0.4-3.7,0.8-5.4,0.9
			c-1.8,0.1-4.2-0.1-6-0.5c-2.9-0.6-5.6-1.6-8.1-3.2v-0.1c-5-3.3-7.7-8-7.9-14v-0.1c0-4.2,0.9-8.1,2.6-11.7l0.2-0.2
			c0.8-1.6,1.7-2.9,2.8-4L624.8,335.1z M631.7,359.3c2,1.4,4.3,2.1,6.7,2.7c1.5,0.3,3.1,0.5,4.6,0.4c1.6-0.1,3.2-0.4,4.8-0.8
			c5.6-1.5,9.5-4.6,11-10.5c0.2-0.5,0.3-1,0.4-1.5c0.6-2.5,0.6-4.9-0.3-7.2c-1.2-2.8-2.6-5.3-4.6-7.5c-1.3-1.5-2.9-2.5-4.7-3.3
			l-2.2-0.7c-6-1.6-11.4-0.2-16.1,3.7c-1.4,1.2-2.6,2.5-3.4,4.3c-1.4,3-2.2,6.3-2.2,9.8C625.8,353.1,627.8,356.7,631.7,359.3z"/>
	</g>
	<g>
		<path class="st0" d="M98,442.1l4.9-2.1c0.9-0.5,2.4-1.1,3.4-1.6c0.9-0.4,2.5-1.1,3.5-1.4c1.1-0.5,2.8-1.3,3.9-2
			c0.2-0.1,0.4-0.3,0.6-0.4l2.6-1.3c0.8-0.4,1.9-1,2.9-1.5c0.2-0.1,0.4-0.1,0.5-0.1l1.7-0.8c4.3-1.2,7.6,0.8,9.3,4.4
			c1.1,2,2.1,3.8,3.2,5.7l0.6,1.1c0.1,0.2,0.3,0.5,0.4,0.7c0.3,0.4,0.6,1,0.8,1.3l2.6,6c1.4,3.6,2.1,7.4,2,11.1
			c-0.1,3.6-1,6.7-2.7,9.4l-1.2,3.1c-1.4,3.5-3.9,6.4-7.6,8.6c-1.3,0.8-2.8,1.6-4.7,2.4c-2.7,1.2-5.6,1.9-8.6,2.3
			c-3.2,0.4-6.3,0.3-9.4-0.5l-0.9,2.3c-0.7,1.8-1.8,3.5-3.2,5.2l-0.4,0.2l-0.8,0.8c-2.6,2.3-5.3,4.2-8.3,5.7l-1.7,0.8l-2.7,1
			c-2.4,0.8-4.8,1.7-7.7,2.3l-1.6,0.3c-1.6,0.3-3.3,0.6-4.8,0.8c-5.9,0.5-11.5-1.3-16-5.6c-3.3-3.2-5.9-6.8-7.6-10.8
			c-1.5-3.4-2.8-7.1-3.5-10.9l-0.2-1.7c-0.1-1.5,0.1-2.9,0.7-4.1l1.5-3.8c0.4-2.1,1.3-4.1,2.6-5.3c0.8-0.8,2.2-2,3.5-2.7
			c3-1.6,6.4-3.3,9.6-4.9c5.1-2.6,11.2-5.3,16.2-7.5L98,442.1z M83.3,453.1c-5.4,2.3-10.7,4.7-15.9,7.3c-3.2,1.6-6.3,3.2-9.5,4.9
			c-1,0.5-1.7,1.2-2.5,2c-1,0.9-1.5,2.1-1.4,3.4l0.2,1.4c0.7,3.5,1.9,6.8,3.2,10.1c1.6,3.6,3.8,6.8,6.6,9.5
			c3.6,3.4,7.8,4.9,12.7,4.4c2.1-0.2,4-0.6,6-1c3.3-0.6,6.4-2,9.6-3l1.7-0.7c2.7-1.3,5.1-3,7.3-5c0.5-0.4,0.9-0.9,1.4-1.4
			c1.3-1.7,2.3-3.5,2.6-5.7l0.2-1.6c0.3-1.3,1.1-1.8,2.3-1.6l2.1,0.6c2.8,0.8,5.6,0.9,8.4,0.5c4.2-0.5,8-2.1,11.6-4.2
			c4.4-2.6,6.6-6.5,6.8-11.6c0.1-3.2-0.6-6.4-1.7-9.5c-0.7-1.9-1.7-3.9-2.5-5.8c-0.2-0.6-0.5-1-0.9-1.6c-1.4-2.3-2.8-4.6-4-7
			c-0.8-1.7-2.3-2.5-4.1-2c-0.5,0.2-1.1,0.4-1.7,0.6c-0.8,0.4-1.7,0.8-2.6,1.3c-2.6,1.3-5.1,2.8-7.8,3.9c-2.1,0.8-4.2,1.7-6.3,2.7
			c-1.7,0.8-3.5,1.6-5.3,2.3L83.3,453.1z M79.5,481.2c-3.8-0.1-6.5-2.1-8.2-5.3c-0.9-1.6-0.5-3.1,1.1-4l5.8-2.8l7.1-3.5l2.3-1
			c0.5-0.1,1.2-0.3,1.7-0.3c1-0.1,1.8,0.3,2.4,1c1.4,1.9,2.3,5.6,0.7,8.3c-0.6,1.1-1.4,2.2-2.4,3.1c-1.6,1.4-3.2,2.5-5.2,3.3
			C83.1,480.8,81.3,481.2,79.5,481.2z M116.4,452.2c0.7-0.3,1.2-0.5,1.9-0.7c1.1-0.3,2.1,0.1,2.8,1c1.6,2.1,2,4.8,0.7,7.2
			c-0.6,0.9-1.2,1.8-2.1,2.5c-1.8,1.4-3.6,2.2-5.8,2.7c-2.1,0.3-4-0.1-5.6-1.5c-1.1-0.9-2.1-2-3-3.3c-0.8-1.1-0.5-2.5,0.7-3.2
			l5.9-2.6l0-0.1C113.3,453.5,114.9,452.8,116.4,452.2z"/>
		<path class="st0" d="M83.9,535.1c-0.1-1.9,0.4-3.8,1.6-5.3c0.4-0.6,1.2-1.4,1.9-1.9c1.9-1.6,4.4-3.6,6.5-5
			c2.1-1.5,3.9-2.9,5.9-4.4l0.6-0.4c2.1-1.6,4.9-3.8,6.9-5c0.3-0.2,0.6-0.5,0.9-0.8l3.8-2.7c3.4-2.3,6.8-4.7,10.2-6.9
			c0.6-0.4,2.1-1.5,2.5-1.7c0.6-0.4,1.9-1.2,2.5-1.7c2-1.5,4.4-3,6.6-4.5l0.4-0.3c1.9-1.2,3.8-2.5,5.7-3.6c0.3-0.2,1.1-0.8,1.4-0.9
			c0.4-0.3,1-0.6,1.4-0.9l0.5-0.4c1.5-1,3.2-2,4.8-2.9c3.3-1.8,6.8-1.4,9.6,0.6l0.7,0.3c1.5,1.5,3,3,4,4.5c0.8,1.1,1.1,2.1,1.4,2.9
			c0.4,1.7,0.5,3.4-0.2,4.9l-0.8,4.5c0.1,0,0-0.1,0.1-0.2l-0.1,0.4c-0.2,1-0.6,1.8-1.4,2.7c-0.6,0.8-1.6,1.8-2.3,2.3
			c-2.1,1.6-5.3,3.9-7,5.1l-0.2,0.2c-1.3,0.8-2.2,1.3-3.2,2l-3.6,2.3l-7,4.3c-3.5,2.1-7.3,4.5-10.7,6.8c-4.2,2.8-8.3,5.6-12.4,8.5
			c-1.3,0.9-2.6,1.8-3.9,2.8c0.3,0.4,0.6,0.7,0.8,1c0.6,0.9,1.9,2.8,2.2,3.8c0.5,1.8,0.4,4-0.4,5.9l-0.7,4.1c-0.2,0.9-0.4,1.9-1,2.7
			c-1.2,2-2.9,3.8-5.2,5.5c-2.7,1.6-5.1,1.7-7.7-0.2c-1.2-0.8-2-1.7-2.7-2.6c-1.5-2-3.5-4.3-5.5-6.5c-0.3-0.4-0.8-0.9-1-1.3
			c-0.9-1.1-2.2-2.8-2.9-4.1l-0.9-1.2c-0.5-0.7-1.2-1.6-1.4-2.2c-0.6-0.9-1-1.6-1.3-2.8c-0.3-1.1-0.4-2.3-0.2-3.4L83.9,535.1z
			 M157.5,499.1c0.6-0.4,1.1-0.9,1.4-1.4c0.6-0.6,0.7-1.4,0.4-2.2c-0.2-0.5-0.4-1.2-0.7-1.6c-0.8-1.3-1.9-2.3-3-3.4l-0.6-0.4
			c-1.5-1.1-3.1-1.4-4.7-0.4c-1.7,1-3.4,2.1-5.1,3.1c-3,1.9-6,3.7-8.9,5.7c-2.2,1.4-4.4,2.9-6.4,4.3c-5.2,3.5-10.3,6.8-15.4,10.3
			c-1.6,1-3,2.3-4.6,3.4c-4.6,3.2-8.8,6.7-13.4,9.9c-2.2,1.5-4.3,3.2-6.3,4.8c-0.4,0.3-0.8,0.7-1.2,1.2c-0.8,0.9-1,1.9-0.6,3
			c0.2,0.7,0.6,1.5,1,2c0.8,1.2,1.6,2.3,2.3,3.4c0.9,1.7,2.2,3.1,3.3,4.5c2,2.2,4,4.4,5.8,6.9c0.4,0.6,0.9,1.1,1.5,1.5
			c1,0.8,2.1,0.9,3.1,0.2c1.6-1.2,2.9-2.6,3.9-4.2c0.5-0.8,0.6-1.8,0.3-2.7c-0.3-0.9-0.8-1.8-1.4-2.5c-1.3-1.7-2.7-3.5-3.9-5.4
			c-1.1-1.5-0.8-3,0.6-4.3c0.2-0.2,0.4-0.4,0.7-0.6c2.6-2,5.2-4,7.9-6c4.1-2.9,8.3-5.8,12.5-8.6c3.6-2.4,7.2-4.7,10.8-6.9l6.9-4.3
			c2.1-1.3,4.1-2.7,6.8-4.4C152.5,502.8,155.1,500.9,157.5,499.1z"/>
		<path class="st0" d="M147.7,607.5c-0.6-2.1-0.4-4.2,0.8-6.3c0.8-1.2,1.9-2.9,2.8-4.2c1.5-2.2,3.4-4.9,5.1-7.2
			c1.2-1.8,2.8-3.9,4.1-5.7l0.4-0.5l-0.9-0.8c-0.5-0.5-0.9-0.7-1.2-1l-1.7,1.5c-2.4,2.1-5.2,4.1-7.9,6l-4.2,3.1
			c-1.5,1.2-3.4,2.7-4.9,3.7c-0.9,0.6-1.2,1-2.6,1.7c-2.6,1.4-5.5,1.3-8.1-0.2c-1.2-0.8-2.3-1.6-3.3-2.4c-0.9-0.8-1.8-1.8-2.7-2.8
			c-1.2-1.7-1.8-3-1.8-4.4l-0.3-4.6c-1-2.6-0.2-4.8,2.1-7.3c0.8-0.9,1.3-1.3,1.8-1.8l0.1-0.1c0.2-0.2,0.4-0.3,0.6-0.5
			c3-2.5,6.3-5.2,9.5-7.5c0.2-0.1,0.5-0.3,0.6-0.3c0.7-0.7,1.3-1.1,2-1.6l2.1-1.5c4.4-3.3,9.9-7.6,14-11c2.9-2.5,6-4.9,9-7.3l2-1.7
			c1.1-1,2.2-2,3.5-2.9l3.4-2.9l1.6-1.4l1-0.7l1.4-1.2c0.2-0.2,0.5-0.5,0.7-0.7c0.2-0.3,0.6-0.5,0.9-0.8c0.8-0.9,1.5-1.5,2.1-2.1
			c0.6-0.5,1.5-1.3,2.1-1.7c2.8-1.9,5.9-2,8.8-0.2l0.9,0.6c1.1,0.6,2.3,1.5,3.2,2c1.4,1,2.8,2,4.4,3.5c0.8,0.7,1.9,1.9,2.6,2.6
			c0.3,0.2,0.8,0.8,1.1,1.2c0.3,0.4,0.8,0.8,1.1,1.2l1.6,1.8l0.5,0.4c1.7,2.3,2.2,4.8,1.7,7.2l0.3,4.2c0,1.5-0.3,2.9-1,4.4l-1.1,2.2
			l0-0.1c-1,1.9-1.9,3.7-2.8,5.7c-1.6,3.5-3.8,7-6,10.5c-2,3-3.9,6.2-5.9,9.3l-1,1.7l0-0.1l-1.1,1.6c-2.9,4.5-6.1,9.1-9,12.8
			c-3.2,3.8-6.3,7.7-9.3,11.5l-4.2,5.5c-0.7,0.9-1.9,2.2-3,3.1c-2.8,1.9-5.9,1.7-8.6,0.3c-1-0.5-2.2-1.5-2.9-2.1
			c-0.9-0.8-1.8-1.7-2.4-2.7c-1-1.3-1.6-2.8-1.6-4.4L147.7,607.5z M166.6,577.2c0.5,0.4,0.8,0.9,1.2,1.4c0.6,0.9,0.6,1.8,0.1,2.7
			c-0.2,0.5-0.3,0.8-0.6,1.2l-2.2,3.1c-1.7,2.3-3.4,4.6-5,7c-1.8,2.4-3.4,4.8-5.1,7.2c-0.9,1.3-1.8,2.6-2.6,3.9
			c-0.9,1.4-0.6,2.8,0.4,4.1c1.1,1.5,2.5,2.7,4.1,3.7c1.2,0.8,2.7,0.8,3.9-0.1c0.8-0.6,1.4-1.4,2.1-2.2l4.2-5.5
			c3.1-3.9,6.3-7.8,9.4-11.6c3.6-4.4,6.7-9.2,9.8-13.9c2.3-3.7,4.6-7.3,7-10.9c2.1-3.2,4-6.5,5.7-10c0.9-2,1.9-3.9,2.9-5.8l1.2-2.1
			c0.8-1.6,0.7-3.1-0.3-4.5c-0.5-0.6-1.1-1.3-1.7-1.9l-2.6-2.5c-1.9-2.1-4-3.8-6.4-5.5c-1.3-0.9-2.6-1.7-3.9-2.5s-2.7-0.8-3.9,0.2
			c-0.6,0.3-1.1,0.8-1.5,1.3c-1.3,1.2-2.4,2.4-3.6,3.5c-1.3,1.2-2.7,2.3-4.1,3.4l-6.9,5.8c-3.7,3-7.4,5.9-11,9
			c-4.6,3.8-9.4,7.5-14.2,11.2c-4.6,3.6-9.5,7-13.9,10.8c-0.7,0.6-1.5,1.2-2.1,1.9c-1.4,1.5-1.6,2.7-0.4,4.4c1.3,1.8,3,3.2,4.8,4.3
			c1.2,0.8,2.5,0.8,3.8,0.1c0.8-0.4,1.5-0.9,2.3-1.5c3.1-2.2,6.1-4.6,9.2-6.9c2.6-1.8,5.2-3.7,7.6-5.8c0.8-0.8,1.8-1.4,2.6-2.1
			c1.2-0.9,2.4-0.9,3.5-0.1c0.7,0.4,1.3,0.8,1.9,1.4c0.8,0.6,1.4,1.3,2.1,1.9C164.9,575.7,165.8,576.4,166.6,577.2z M168.6,564
			c-1.1-1.2-0.7-2.6,0.2-3.6c0.3-0.3,0.7-0.5,1.1-0.8c2.6-2.3,5.1-4.6,7.7-6.9c1.7-1.5,3.5-3,5.4-4.5c0.2-0.3,0.7-0.5,1.1-0.6
			c1.4-0.5,2.8,0.2,3.2,1.7c0.2,0.9-0.1,1.8-0.6,2.7c-0.6,1.2-1.5,2.4-2.2,3.7l-6.6,10.5l-1.2,1.8c-1.1,1.2-2.2,1.3-3.4,0.3
			L168.6,564z"/>
		<path class="st0" d="M196.5,638.3c-1.1-2-1.7-4.1-1.9-6.4c-0.3-4.2,0.4-9.9,1.7-14.3c1-3.4,2.4-6.9,4.1-10.1
			c1.1-1.9,2-4.2,2.8-6.7c0.7-2,1.4-3.9,2.8-6.5c0.2-0.5,0.4-1,0.7-1.5l0.8-1.5c0.9-1.9,2.3-4.7,3.2-6.5c0.3-0.6,0.6-1.4,1-2l1.1-2
			c1.1-2.2,2.5-4.6,4.1-6.8c1.1-1.7,2.4-3.5,3.9-5c1.7-1.7,3.8-2.9,6.3-3.7c4-1.2,8.2-1.4,11.8-0.5c3.5,0.7,7,1.8,10.2,3.1
			c2.4,1.1,4.2,2.5,5.7,4.4c2.3,3,3.6,6.1,4.1,9.5l0.8,2.9l-0.1-0.4l0.3,0.7c0.7,2.3,1,4.8,0.8,7.4c-0.3,3.1-1.1,6.8-1.9,9.6
			c-0.9,3-2.1,5.7-3.4,8.5c-0.2,0.3-0.3,0.8-0.5,1.2l-0.5,0.9c-0.4,0.7-0.7,1.3-1.7,2.9c-2.3,3.2-5.2,4.1-8.8,3
			c-1.4-0.4-3.2-1-4.6-1.5l-0.1,0l-0.1,0c1.8,1.6,2.9,3.6,2.9,5.9l1.3,4c0.3,1.1,0.4,2.3,0.2,3.6l-0.1,0c-0.1,1.1-0.3,1.9-0.3,2.6
			c-1.2,4.3-2.8,8.7-5.3,13c-0.5,0.8-1.4,2.2-2.4,3.4c-1.7,2.1-3.7,3.5-5.9,4.5c-4.3,1.9-8.8,2.7-13.6,1.7l-5.5-1.5
			c-2.9-0.6-5.1-2.2-6.9-3.7c-1-1-2.2-2.3-3.3-3.7c-1.3-1.6-2.1-3.3-2.7-5.1L196.5,638.3z M226.1,592.9c0.8-1.6,1.8-3.1,3.1-4.5
			c1.6-1.6,3.4-2.6,5.7-2.7c1.9-0.1,3.4,0.8,4.4,2.3c1,1.5,1.3,3.3,0.9,5.1c-0.4,1.6-1,3.1-1.6,4.6s-1.4,3-1.8,4.4
			c-0.9,2.5-0.3,4,2.2,4.8c1.4,0.5,2.8,1,4.2,1.4c1.8,0.5,3.1,0.1,4.2-1.4c0.8-1,1.2-2.2,1.8-3.3c1.3-2.9,2.7-5.7,3.5-8.8
			c0.8-2.9,1.5-5.8,1.8-8.8c0.3-4-0.8-7.5-3.3-10.8c-1.1-1.4-2.4-2.4-4-3.1c-3-1.3-6.1-2.2-9.3-2.8c-3.2-0.8-6.4-0.6-9.6,0.4
			c-1.7,0.5-3.2,1.4-4.4,2.7s-2.4,2.7-3.4,4.2c-2.3,3.2-4.1,6.9-5.9,10.4c-1.7,3.2-3.1,6.4-4.7,9.5c-1,1.9-1.7,3.9-2.4,5.8
			c-0.8,2.5-1.8,5-3.2,7.4c-1.6,3-2.7,6-3.7,9.2c-1.2,4.1-1.7,8.3-1.5,12.7c0.2,2.3,1,4.6,2.5,6.5c0.9,1.1,1.8,2.2,2.8,3.1
			c1.4,1.2,2.9,2.3,4.9,2.8l5.6,1.4c3.9,0.8,7.4,0.2,10.9-1.4c1.7-0.7,3.2-1.8,4.3-3.2c0.7-1,1.4-2,2.1-3.1
			c2.2-3.7,3.6-7.8,4.8-11.8c0.1-0.6,0.3-1.3,0.3-2c0.2-1.5-0.4-2.8-1.6-3.8c-1.1-0.9-2.5-1.6-4-2c-2-0.4-3.2,0.1-4.1,1.9
			c-0.5,1-0.9,2-1.4,3c-1,2.2-2.1,4.3-3.5,6.3c-0.9,1.1-1.8,2-3.1,2.6c-1.5,0.7-3,0.8-4.5,0.1c-2.4-1.2-3.9-3.7-3.7-6.4
			c0.1-0.9,0.3-1.9,0.5-2.8c0.7-2,1.5-3.8,2.3-5.7c2.1-4.9,4.4-9.7,6.8-14.4L226.1,592.9z M232.8,608.4c-1.4-1.9-1.5-4.5-0.3-7.8
			l0.6-2c-0.6,0.7-1,1.5-1.4,2.3l-5,9.7c-2.4,4.7-4.6,9.3-6.6,14.2l-0.7,1.5c0.6-1,1.2-1.8,1.6-2.7c0.4-0.7,0.8-1.4,1.1-2.3
			c0.4-1,0.8-2,1.5-3.3c2.1-3.9,4.7-5.1,9.1-4.2c0.8,0.2,1.6,0.5,2.4,0.8c-0.5-0.6-0.9-1.3-1.1-2L232.8,608.4z"/>
		<path class="st0" d="M295.4,590.2l1.5,2.5l0.5-0.5l-0.1,0.1c2-2.2,5.2-3.2,8-2.4c1.2,0.2,2.4,0.6,3.5,0.9l4.5,1.1
			c0.4,0.1,1.1,0.5,1.7,0.8c2,1.2,3.4,2.7,3.9,4.5l2.4,4c1.1,1.9,0.9,4.2-0.7,6.7l-2.4,3c0,0.1-0.3,0.3-0.3,0.4l-13.2,16.9l-0.4,0.6
			c-0.4,0.6-0.7,1.3-0.8,1.9l-0.1,2.7l-0.1,0l0.2,4.1c0,2.9,0.1,5.7,0.2,8.6c0.1,4.6,0.6,9.5,1.3,14.8c0.4,3,0.5,6,0.8,9l0.1,0.1
			l0.5,4.5l0,0.8c-0.3,5-2.7,7.8-7.4,7.9c-1.9,0-3.9-0.1-6-0.3l0.1,0.1c-1.2,0-2-0.1-3-0.3c-2.5-0.3-4.3-1.6-5.4-3.5l-2.4-4
			c-0.6-0.6-1.1-1.3-1.4-2c-1.3,2.5-3.9,3.9-7.5,3.8c-2-0.1-4.2-0.2-6.3-0.5l-0.1-0.1c-0.7,0-1.4-0.1-2.1-0.4
			c-1.8-0.6-3.1-1.7-4-3.2l-2.3-3.8c-1.3-1.4-2.2-3.2-2.3-5.2c0-0.9,0.1-1.8,0.2-2.8l0.6-2.4c0.1-0.3,0.1-0.7,0.2-1.1l0.3-1
			c0.9-3,1.5-6.4,2.1-9.7c0.1-0.3,0.1-0.8,0.2-1.2l2.5-10c0.2-0.8,0.5-1.6,0.7-2.4c0.6-2.4,1.2-4.9,1.9-7.2l0.3-1.1
			c0.7-2.2,1.4-4.8,2.1-6.9c0.1-0.4,0.4-1.6,0.6-1.9c0.1-0.4,0.4-1.4,0.5-1.8l1.5-5.1l3.2-10.6c0.1-0.3,0.2-1,0.4-1.3
			c0.1-0.3,0.3-0.8,0.4-1.1l0.2-0.7c0.5-1.5,1-3.2,1.5-4.5c0.3-1,0.8-2.2,1.2-3c1.4-2.4,3.8-4,6.6-4.2c0.9,0,1.9,0,3.1,0.3l2.6,0.7
			c1,0.3,2.2,0.8,2.9,1.3l0,0.1C293.8,587.2,294.9,588.5,295.4,590.2z M285.6,613.3l0.9-3.5c0.7-2.3,1.4-4.7,2-7
			c0.5-2.2,1.2-4.3,1.8-6.4c0.3-1,0.6-2.1,0.8-3.1c0.3-1.7-0.2-2.8-1.7-3.6c-0.4-0.3-0.9-0.5-1.3-0.6l-2.6-0.7
			c-0.6-0.2-1.2-0.1-1.8-0.1c-1.2,0-2.2,0.6-2.7,1.6c-0.4,0.8-0.8,1.7-1,2.5c-0.9,2.4-1.6,4.9-2.4,7.3l-3.2,10.5l-1.5,5
			c-1.2,4-2.5,7.9-3.5,11.9c-1.2,3.9-2.1,7.8-3.2,11.8l-1.6,6.3c-0.8,4.1-1.6,8.2-2.7,12.2c-0.4,1.4-0.6,2.7-0.9,4
			c-0.1,0.7-0.2,1.4-0.2,2.2c0,1.4,0.8,2.3,2.1,2.8c0.5,0.2,0.9,0.3,1.4,0.3c2.1,0.2,4.1,0.4,6.1,0.5c2.5,0.2,3.7-1.2,4.1-3.3
			l0.1-0.5c0.2-2.3,0.5-4.5,0.8-6.8c0.5-3,0.9-6,1.5-8.9c0.6-2.3,1.8-4,3.4-5.5c0.3-0.3,0.6-0.5,0.9-0.6c0.5-0.3,1.3,0,1.5,0.6
			c0.2,0.4,0.3,0.8,0.3,1.2c0.1,0.8,0.1,1.7,0.1,2.5c0,3.5,0,7,0.3,10.6l0.8,11c0.1,0.8,0.1,1.8,0.4,2.7c0.4,1.6,1.3,2.7,3,3
			c1,0.2,1.9,0.2,2.9,0.3c1.7,0.2,3.6,0.2,5.3,0.2c2,0,3.1-1.2,3.2-3.2l0-1c-0.5-4.5-0.8-9-1.4-13.4c-0.7-5.1-1.2-10.1-1.3-15.3
			c-0.2-4.3-0.2-8.6-0.4-12.9l0.1-2.7c0-1.6,0.5-2.8,1.4-4l0.7-1l12.9-16.4c0.9-1.2,1.9-2.2,2.7-3.4c1.1-1.7,0.7-3.1-1.1-3.9
			c-0.1-0.1-0.3-0.2-0.5-0.2c-2.5-0.6-5-1.4-7.5-1.9c-1.5-0.4-2.8,0.1-3.8,1.2c-0.5,0.4-0.9,1-1.2,1.5c-1.4,2-2.8,4-4.1,5.9l-7,10.2
			l-1.7,1.9c-0.1,0.2-0.5,0.5-1,0.4C285.1,615.3,285.6,613.9,285.6,613.3z"/>
		<path class="st0" d="M357.9,594.3l0.6,0c1.3,0,2.8,0,4.3,0.3c2.6,0.6,4.9,1.7,6.9,3.7c0.8,0.9,1.6,1.8,2.4,2.8l2,1.9
			c2,1.9,3.6,4,4.6,6.4l-0.1-0.1c1.8,4.2,2.7,8.4,2.3,12.7v0.1c-0.1,0.9-0.1,1.7-0.1,2.2l-0.1,2.9c-0.2,3.2-0.9,6.1-1.8,9
			c3.1,0,5.2,1.2,6.5,3.5l3.2,3c1.2,1.2,1.9,2.8,2.1,4.8c0.1,1.3,0.1,2.7-0.1,4.3c-0.1,0.3-0.1,0.6-0.1,0.8
			c-0.7,5.3-1.5,10.7-3.2,15.4c-0.3,0.7-0.2,1.3,0.3,2l4.2,6.1c0.4,0.5,0.7,1.1,1.3,2.1c2.8,5.8,0.4,9.6-6,10.2l-1.5,0
			c-1.2-0.1-2.7,0.1-4.2,0.3l-1.8,0.2c-0.5,0.1-1.4,0.2-2.1,0.2c-2.1,0-4.3-0.8-6-2.2l-0.5-0.4l-0.4,0.2c-2.2,1.2-5,2.4-7.3,3.2
			c-1.9,0.6-3.9,1-5.9,1c-1.6,0-3.1-0.1-4.7-0.5c-2.1-0.4-4.1-0.9-5.5-1.3c-2.6-0.9-4.9-2.3-6.6-3.9l-2.4-2.3
			c-3.8-2.5-6.2-6.3-7.4-11.4c-0.4-2-0.7-4.4-0.5-6.3c0.1-2.9,1-6,2.3-8.3v0.1c2.6-4.7,5.4-9.5,9.3-13.6l0.4-0.3
			c0,0,0.1-0.1,0.1-0.2l-0.6-1.3v0.1c-2.1-3.5-3.9-6.9-5.5-10.1c-1-2.3-2-4.5-2.5-7.2c-0.4-1.5-0.5-3-0.5-4.8c0-1.6,0-3.1,0.4-4.6
			c0.5-2.4,1.4-5,2.4-7.2c2.4-4.7,5.9-7.9,10-10.6c2.1-1.2,4.3-2.3,7-2.7c0.8-0.1,1.6-0.2,3-0.2c0.3,0,0.5-0.1,0.7-0.1l0.5,0
			C357.5,594.2,357.8,594.3,357.9,594.3z M353.7,599.1c-1.9,0.3-3.6,1.1-5.2,2.1c-3.5,2.2-6.5,4.9-8.3,8.7c-1,2-1.6,4.1-2.1,6.3
			c-0.5,2.4-0.4,4.9,0.1,7.3c0.4,2.2,1.2,4.2,2.2,6.3c1.6,3.3,3.3,6.5,5.2,9.6l1.4,2.5c0.5,1,0.4,2-0.2,2.9c-0.4,0.6-1,1.3-1.5,1.8
			c-3.5,3.8-6.2,8.1-8.6,12.6c-1.1,2-1.7,4.2-1.8,6.5c-0.1,1.7,0,3.3,0.4,5c1.1,4.9,3.9,8.4,8.8,10c1.6,0.5,3.3,0.9,5,1.3
			c2.9,0.6,5.8,0.5,8.5-0.4c2.2-0.8,4.4-1.6,6.4-2.8l1.9-1c0.9-0.4,1.6-0.2,2.4,0.3l1.4,1.2c0.9,0.9,2.1,1.3,3.4,1.3
			c0.5,0,1-0.1,1.4-0.2c2.2-0.2,4.5-0.7,6.8-0.6l1.3,0c2.5-0.2,3.5-1.8,2.4-4.1c-0.3-0.5-0.6-1.1-1-1.6l-4.2-6.1
			c-1.3-1.8-1.6-3.7-0.8-5.8c1.7-4.9,2.4-10.1,3.1-15.3c0.2-1.1,0.1-2.2,0-3.4c-0.2-1.9-1.3-2.9-3.2-2.8c-0.5,0-0.9,0.1-1.3,0.1
			l-4.1,0.7c-0.5,0.1-1,0.2-1.5,0.4c-1.2,0.5-2,1.3-2.1,2.6l-0.2,2.2c-0.1,0.7-0.2,1.5-0.3,2.3c-0.2,0.5-0.7,0.7-1.2,0.6l-0.7-0.5
			c-1-1-1.8-2-2.4-3.3c-0.6-1.1-0.6-2.2,0-3.3c0.4-0.8,0.8-1.6,1.2-2.4c1.2-2.2,2.4-4.3,3.3-6.6c1.4-3.4,2.4-7,2.6-10.8
			c0.1-1.8,0.1-3.6,0.3-5.4c0.4-3.7-0.4-7.2-1.9-10.7c-0.8-1.9-2-3.5-3.5-4.9c-1.4-1.3-3-2.1-4.9-2.5c-1.5-0.3-3-0.2-4.5-0.3
			C356.2,598.8,355,598.9,353.7,599.1z M351.2,669.1c-2-0.9-3.1-2.6-3-4.7c0.1-0.9,0.2-1.8,0.6-2.6c0.7-1.9,1.7-3.5,3.2-4.9
			c0.2-0.2,0.4-0.5,0.6-0.5c1.1-0.8,2-0.8,2.9,0.1c0.3,0.3,0.6,0.6,0.8,1l4.4,7c0.3,0.5,0.5,1.2,0.6,1.7c0.1,0.8-0.2,1.4-0.8,1.9
			c-0.5,0.3-0.9,0.6-1.4,0.8c-1.3,0.6-2.8,1-4.4,1C353.7,669.8,352.4,669.6,351.2,669.1z M352.2,614.9c0.7-2.3,4.4-3.9,6.8-1.4
			c1,1.1,1.4,2.4,1.4,3.8c0,3.3-0.6,6.6-1.9,9.7c-0.2,0.4-0.4,0.7-0.7,1c-0.6,0.6-1.4,0.7-2-0.1c-0.4-0.3-0.5-0.8-0.7-1.2
			c-0.8-1.8-1.6-3.6-2.3-5.5c-0.5-1.3-0.9-2.7-1-4.2C351.9,616.4,352,615.7,352.2,614.9z M352.7,665.1c0.1,0.1,0.1,0.2,0.2,0.2
			L352.7,665.1z"/>
		<path class="st0" d="M422.3,596.6l-0.2-1.7c0-0.7-0.1-1.8,0-2.5c0.3-3,2.1-5.4,5-6.7c0.9-0.3,2.5-0.8,3.4-1
			c0.8-0.2,2.2-0.6,2.7-0.7c0.2-0.1,0.5-0.1,0.6-0.1l0.4-0.1c3-0.7,5.6-0.2,7.8,1.6l4.1,2c1.1,0.6,2.1,1.4,3.1,2.6l-0.1,0l3.5,4.5
			l-2-5c-0.5-0.9-0.7-2.2-0.9-3l-0.2-0.5c-0.5-3.9,1.1-6.6,4.3-8.2l1.2-0.4c0.3-0.1,1.3-0.4,1.8-0.5l0-0.1c1.8-0.4,3.5-0.8,5.6-1
			l-0.1,0c3.2-0.6,5.5-0.1,7.2,1.6l4,2c1.6,0.8,2.9,2.4,3.9,4.8l2.8,7.7c0.7,1.9,1.7,4.5,2.3,6.4l2.2,6c0.6,1.5,1.1,2.8,1.8,4.3
			l1.2,2.9l1.4,3.7c1.3,3.3,2.7,7.1,3.9,10.3l1.6,4.8c0.1,0.6,0.2,0.9,0.3,1.1c1,3.1,2.1,6.3,3,9.4c1,3.7,2,7.4,2.9,11.1
			c1.3,4.8-0.6,7.9-4.5,9.8l-0.1-0.1c-1.8,1-3.6,1.8-5.3,2.3l-7.7,2.5c-2,0.6-3.8,0.5-5.4-0.3l-4.2-2.1c-1.3-0.3-2.6-1-3.7-2
			c-0.7-0.6-1.1-1.1-1.6-1.7c-0.4-0.3-1.3-1.3-0.8-0.9c0,0-0.1-0.1-0.2-0.3l-11.1-14c0.2,3.3,0.2,6.8,0.6,10l0.6,11.3
			c-0.1,0.6-0.1,1.8-0.1,2.3l0.1,0.1c0,0.1,0,0.2,0,0.2c-0.4,2.7-1.9,4.8-4.1,6.2c-0.6,0.3-1.6,0.6-2.5,0.9c-2.7,0.9-5.5,2.3-8.3,4
			l-2.4,1.3l-2.3,0.8c-2.1,0.4-4,0.3-5.6-0.5l-3.9-2c-2.6-0.5-4.6-2.3-6-5.4l-0.9-2.6c-1.8-5.6-3.6-11-5.6-16.6l-0.3-0.9
			c-0.8-2.2-1.8-4.7-2.6-6.8l-2-5.3l-0.9-2c-0.6-1.2-1.2-2.9-1.8-4.2l-0.2-0.7c-0.5-1.3-1.4-3.5-1.8-4.7c-0.5-1.9-1.4-3.8-2.2-5.7
			l-1.3-3.1c-1.1-2.8-2.3-6.2-3.3-9.1s-1.8-5.7-2.4-8.4c-1.1-5.2,0.3-9.1,6.3-10.9c0.3-0.1,0.7-0.1,1-0.2l0.9-0.3
			c1.3-0.4,2.9-0.9,4.2-1.2c2.7-0.5,5,0,6.9,1.7l4,2C421.3,595.5,421.8,596,422.3,596.6z M467.8,630.8c-0.6-0.8-1.4-1.6-2.1-2.5
			c-1.1-1.6-2.1-3.3-3.3-4.9c-3.8-5.4-7.3-10.8-10.7-16.4l-5.5-9.1c-1.8-2.8-3.8-5.6-6-8.1c-1.4-1.6-3-2.1-5-1.7
			c-1.2,0.3-2.6,0.6-3.8,1c-0.9,0.2-1.8,0.5-2.8,0.8c-1.2,0.5-2,1.5-2.1,2.9c-0.1,0.6,0,1,0,1.6l1.5,10.7l1.6,11.8
			c0.7,4.7,1.3,9.3,1.9,14.1l1,10.4c0.1,2-0.1,1.8-0.3,2.1c-0.5,0.2-1-0.7-1.2-1.2l-2.3-5.4l-4.1-10.8c-0.7-1.9-1.4-4-2.1-6
			c-1.7-4.6-3.3-9.2-4.9-13.7l-3-7.8c-0.1-0.4-0.5-0.8-0.6-1.1c-0.8-1.3-2.1-1.8-3.5-1.5c-2,0.5-3.9,1.1-5.9,1.7
			c-3.1,0.9-3.9,3-3.3,5.6c1.3,5.7,3.3,11.2,5.4,16.7c1.2,3.1,2.7,6,3.6,9.2c0.5,1.5,1.1,3,1.6,4.4c0.9,2.4,1.9,4.7,2.9,7
			c1.6,4.3,3.4,8.6,5,13c2,5.6,3.8,11.2,5.6,16.7l0.8,2.4c0.9,2.1,2.5,2.9,4.7,2.4l1.4-0.5l2.3-1.2c2.8-1.7,5.7-3.1,8.8-4.1
			c0.6-0.2,1.3-0.4,1.9-0.7c1.1-0.7,1.9-1.6,1.9-2.8c0.1-0.7,0-1.3,0-2l-0.6-11.2l-0.7-11.2c0-0.9-0.1-2-0.3-2.8
			c-0.5-3.3-1.1-6.6-1.8-9.9c-0.1-0.7-0.3-1.5-0.3-2.3c-0.1-0.5-0.1-1.1,0.4-1.6c0.3,0.2,0.7,0.2,1,0.5c0.5,0.4,0.9,0.9,1.3,1.3
			c1.1,1.4,2.3,2.9,3.5,4.3c2.5,3,5.2,5.9,7.6,8.9l13.6,17.2c0.5,0.6,1,1.3,1.6,1.8c1,0.9,2.1,1.1,3.4,0.8l7.5-2.5
			c1.7-0.6,3.4-1.3,4.9-2.1c2-1,3-2.5,2.3-4.8c-0.9-3.7-1.9-7.3-2.9-11c-0.9-3.1-2-6.2-3-9.3c-0.2-0.5-0.4-1.1-0.5-1.7
			c-0.4-1.2-0.7-2.5-1.2-3.8c-1.2-3.5-2.6-7-4-10.5l-1.4-3.5c-1-2.4-2.2-4.9-3.1-7.3c-1.5-4.1-2.9-8.3-4.5-12.5l-2.8-7.7
			c-0.9-2.2-2.2-3-4.7-2.6c-1.8,0.2-3.6,0.6-5.4,1c-0.7,0.1-1.4,0.5-2,0.7c-1.3,0.6-2,1.7-1.8,3.2c0.2,0.8,0.4,1.8,0.7,2.5
			c2.1,5.4,4.1,10.7,5.9,16.1c2.2,6.4,4.3,12.9,6.3,19.3c0.7,2.1,1.2,4.2,1.8,6.4c0.2,0.6,0.5,1.7,0.1,1.8
			C468.3,631.4,468,631,467.8,630.8z M451.6,665.7c-0.1,0.1-0.1,0.2-0.1,0.3l0.1,0.1C451.6,665.9,451.7,665.8,451.6,665.7z"/>
		<path class="st0" d="M531,597.5l0.2-0.1l-1.8-2.5c-2-2.9-4.1-5.7-6.2-8.5l-0.9,0.6l5.3,7.5c1,1.3,2.4,3.1,3.3,4.4
			c0.6,0.8,1.2,1.6,1.8,2.4c3,3.7,6,7.5,9,11.1c1.1,1.3,2.2,2.4,3.3,3.7l1.5,1.7c0.7,0.8,1.4,1.8,1.8,2.6c1.7,2.8,1.2,5.6-0.5,8.3
			c-0.4,0.6-0.9,1.2-1.7,2l-0.1,0c-2,2.1-4.2,4-6.5,5.5c-1.7,1.1-3.3,1.5-4.9,1.2l-4.5-0.8c-1.8,0.3-3.6-0.3-5.3-1.6
			c-0.7-0.5-1.5-1.3-2-2c-0.7-0.8-1.6-2.2-2.3-3c-3.5-4.9-7-9.9-10.5-14.9c-0.9-1.3-2.7-3.9-3.3-4.9l-0.8-1.2
			c-0.3-0.4-0.5-0.9-0.8-1.3l-5-7.4c-2.7-3.9-5.5-8-8.1-11.9l-2-2.8c-0.6-0.8-1.1-1.7-1.6-2.5c-2.2-3.2-4.5-6.4-6.6-9.6
			c-0.6-0.9-1.6-2.6-2.1-3.6c-2.1-4.4-1.2-7.9,2.6-10.6c1.5-1,3-2,4.7-2.8c2.3-1,4.5-1.4,6.8-0.3l4.6,0.7c1.5,0.2,2.9,1,4.4,2.7
			c0.5,0.5,1.1,1.4,1.6,2.2c0.3,0.4,0.5,0.8,0.7,1.2l3.1,4.3c0.4-0.3,0.8-0.5,1.2-0.8c-2-3.3-4.1-6.8-6.2-10
			c-2.4-4-3.5-7.5,2.3-11.6l2.6-1.9c2.7-1.7,5.2-1.9,7.5-0.7l4.2,0.6c1.5,0.2,3,1,4.5,2.5l0.4,0.6c2.9,3.8,6.4,8.4,9.2,12.2l2.8,3.9
			c0.9,1.3,1.7,2.5,2.7,3.7c3.7,4.9,7.3,9.7,11.1,14.4c4.2,5.2,8.5,10.7,12.2,16.1c1.2,1.8,2.9,3.6,4.6,5.5c0.5,0.5,1.2,1.4,1.9,2.4
			c1.8,3,1.5,6.1-0.6,8.8c-0.4,0.5-0.8,0.8-1.2,1.1c-0.5,0.4-1,0.7-1.6,1.3c-1.4,1.1-2.8,2.2-4.3,3.1c-1.9,1-3.7,1.4-5.3,1.1
			l-4.6-0.8c-2.3,0.2-4.2-0.7-6.1-2.4c-1.5-1.3-2.7-3-3.9-4.7c-1.5-2.1-2.9-4.1-4.6-6.2S532.6,599.5,531,597.5z M535.7,596.2
			c1.7,2,3.3,4.2,4.9,6.3s3.2,4.3,4.7,6.4c1,1.4,2,2.8,3.2,3.9c1.4,1.4,2.9,1.6,4.7,0.6c2.1-1.1,3.7-2.7,5.5-4
			c0.2-0.1,0.3-0.2,0.4-0.4c1-1.2,1.1-2.5,0.3-3.8c-0.5-0.7-1-1.3-1.5-1.8c-1.7-2-3.4-3.9-4.9-6c-3.7-5.4-7.8-10.5-12-15.8
			c-3.8-4.7-7.5-9.6-11.2-14.5c-2-2.6-3.6-5.3-5.5-7.8c-3-4-6.1-8-9.1-12.1l-0.3-0.4c-1.3-1.3-2.7-1.4-4.3-0.4
			c-0.9,0.5-1.6,1.2-2.5,1.8c-2.7,1.9-2.2,3.7-1.1,5.5c2.2,3.4,4.3,6.9,6.5,10.3c0.2,0.3,0.4,0.6,0.5,0.9c1,2,0.6,3-0.9,4l-0.3,0.2
			c-2,1.3-4,2.8-5.9,4.1c-0.4,0.3-0.9,0.5-1.4,0.8c-1.5,0.7-2.4,0.5-3.5-0.8c-0.3-0.3-0.6-0.8-0.9-1.1c-0.6-0.8-1.1-1.7-1.7-2.5
			l-3.3-4.7c-0.5-0.7-0.9-1.4-1.4-2.1c-0.4-0.6-0.8-1.2-1.3-1.7c-1.5-1.8-2.9-1.6-4.5-0.9c-1.4,0.7-2.7,1.5-4,2.4
			c-1.8,1.3-2.2,2.9-1.3,4.9c0.5,1.1,1.2,2.1,1.9,3.1c3.2,4.8,6.6,9.6,9.9,14.4l0.4,0.6c2.6,3.9,5.3,7.9,8,11.8l5,7.4
			c1.7,2.5,3.3,5.1,5,7.5c3.5,5,7,10,10.5,14.9c0.7,1,1.4,1.9,2.1,2.7c0.4,0.5,0.8,0.9,1.3,1.3c1.2,0.8,2.3,0.9,3.5,0.1
			c2.1-1.4,4.1-3.1,5.9-5c0.5-0.4,0.8-0.9,1.1-1.4c0.9-1.3,1-2.6,0.2-3.9c-0.3-0.6-0.7-1.1-1.2-1.6c-1.6-1.8-3.4-3.7-5-5.6
			c-3-3.6-6-7.3-9-11.1c-0.7-0.8-1.3-1.7-2-2.6c-1-1.4-2.1-2.8-3.2-4.2l-4.3-6c-0.7-1-1.4-2-2-3c-0.8-1.3-0.7-2.2,0.3-3.3
			c0.3-0.3,0.7-0.6,1.1-0.9l3.5-2.5c0.8-0.5,1.6-1,2.4-1.4c1.8-1,3.2-0.8,4.5,0.6c0.4,0.5,0.9,0.9,1.3,1.5c2.7,3.7,5.4,7.4,8.1,11.2
			l2.7,3.7L535.7,596.2z"/>
		<path class="st0" d="M588.7,587.6c-2,0.4-4,0-6.1-1.3c-1.2-0.8-2.2-1.7-3-2.5l-9.9-9.4l-7.8-7.8l-8.2-8.7
			c-0.7-0.6-1.6-1.5-2.2-2.2c-0.6-0.6-1.7-1.7-2.2-2.2c-1.9-1.9-3.9-4-5.7-6l-7.1-7.5c-0.5-0.4-1.1-1-1.5-1.5
			c-0.4-0.4-1.1-1.2-1.5-1.5c-1-1-2.3-2.3-3.3-3.4c-0.8-0.9-1.5-1.8-1.9-2.9c-1.1-2.3-1-4.8,0.4-7.1l-0.1-0.1
			c0.9-1.6,2.5-3.6,4.1-4.9c2.2-1.9,4.3-2.5,6.2-2.3l5.2-0.1c1.7,0,3.3,0.8,5.1,2h-0.1c1.5,1,2.3,1.8,3.1,2.6l10,9.8l1.6,1.5l6,6.1
			l2,1.9c1.3,1.2,2.9,2.7,4.2,4l6.5,7c0.8,0.8,1.6,1.7,2.4,2.5l5.3,5.8c1,1.1,2.3,2.7,3.3,3.8c2.5,2.9,5,5.9,7.4,8.2
			c0.7,0.6,1.2,1.4,2,2.6c1.4,2.7,1.3,5.6-0.7,7.9c-1.2,1.7-2.9,3.2-4.6,4.3c-1.4,0.8-2.8,1.3-4.2,1.4L588.7,587.6z M553.1,533.8
			l-10-9.8c-0.8-0.8-1.6-1.5-2.6-2.2c-1.6-1.2-3-1.3-4.7,0.2c-1.2,1-2.3,2.3-3.1,3.6c-0.7,1-0.7,2.1-0.2,3.1
			c0.3,0.6,0.7,1.2,1.2,1.8c2,2.1,4,4.1,6,6.2l7.3,7.7c1.8,2,3.7,4,5.6,5.9l4.3,4.3l8.3,8.8l7.8,7.8c1.8,1.8,3.6,3.4,5.3,5.1
			l3.9,3.7c1,0.9,1.8,1.9,3,2.6c1.4,0.9,2.7,0.8,4.1,0c1.4-0.9,2.5-2,3.5-3.3c0.9-1,1-2.2,0.4-3.4c-0.3-0.6-0.7-1.1-1.2-1.5
			c-4-3.8-7.3-8.1-10.9-12.1l-5.2-5.7l-2.5-2.6l-6.5-7c-1.9-1.9-4-3.8-5.9-5.6l-6.1-6.2L553.1,533.8z"/>
		<path class="st0" d="M593.1,525.7c-2.4-1.5-5.9-3.5-9-5.6c-2.5-1.6-5-3.4-7.4-5.1l-1.8-1.2c-0.4-0.2-0.8-0.5-1.1-0.8
			c-0.1,0.2-0.3,0.2-0.4,0.3c-1.1,1-2.3,1.6-3.5,1.9l-4.2,0.9c-1.9,1.1-4.1,1.2-6.7,0.1c-0.6-0.3-1.3-0.6-2.5-1.4
			c-1.3-0.9-3.2-2.1-4.3-3.1c-4-3.1-4.6-6.4-1.8-10.9c0.9-1.4,1.9-2.9,3.3-4.4c0.9-1.2,1.7-2.3,2.4-3.4l8.8-13.8
			c0.7-1,1.5-2.1,2.4-3c1.7-1.7,3.6-2.5,5.7-2.3l4.3-0.9c1.4-0.3,3-0.1,4.5,0.5c0.4,0.2,1.1,0.4,1.7,0.8l4.4,2.9
			c0.8,0.5,1.3,1.1,1.8,1.8c1.9,2.2,2.1,4.8,1,7.8l-1.6,2.7l-0.8,1.2l8.1,5.5l7.1,5c2,1.5,4.1,3,6.1,4.5l5.7,4.2l9.9,6.9
			c0.5,0.3,1.2,0.9,1.6,1.2l1.7,1.1c2.2,1.5,4.5,2.8,6.8,4.3c0.6,0.4,1.2,0.8,2.3,1.7c2.7,2.5,3.2,6,1.5,9.2c-1.2,1.9-2.5,4-4.2,5.5
			l-0.1,0c-1.4,1.2-2.8,2.1-4.1,2.3l-4.9,1c-2.1,0.9-4.4,0.8-6.8-0.4c-2-1.1-4.3-2.6-6.3-3.9l-1.9-1.2c-0.5-0.5-0.9-0.7-1.3-1
			c-4.3-3-8.7-5.8-14.8-9.9L593.1,525.7z M611.9,532.8c0.6,0.4,1.2,0.8,1.8,1.3c2.4,1.6,4.8,3.2,7.3,4.6c1.8,0.9,3.2,0.6,4.7-0.8
			c1.4-1.3,2.5-3,3.5-4.6c0.8-1.3,0.5-2.8-0.7-3.9c-0.5-0.5-1.2-0.9-1.8-1.3c-2.3-1.4-4.6-2.8-6.9-4.3c-1.1-0.7-2.3-1.6-3.4-2.4
			l-9.9-6.9l-5.8-4.3c-1.9-1.5-3.9-3-6-4.5l-7.1-5l-8-5.5c-0.5-0.4-1-0.6-1.5-1.1c-0.9-0.9-1.3-2-0.6-3.2c0.5-1,1-1.9,1.6-2.8
			l1.3-2.4c0.5-1.2,0.3-2.3-0.5-3.1c-0.3-0.4-0.6-0.7-0.9-0.9l-4.4-2.9c-0.4-0.2-0.7-0.4-1.2-0.5c-1.2-0.5-2.4-0.3-3.3,0.7
			c-0.7,0.6-1.3,1.4-1.8,2.2l-8.8,13.7c-0.9,1.5-1.8,2.8-2.9,4.1c-1.1,1.1-2,2.5-2.8,3.8c-1.3,2.1-1,3.5,0.9,5c1.2,1,2.6,1.9,4,2.8
			c0.6,0.4,1.2,0.7,1.8,1c1.3,0.6,2.5,0.3,3.5-0.6c1-0.9,1.7-2,2.4-3.1c0.5-0.7,0.9-1.4,1.4-1.9c0.8-0.9,1.7-1,2.8-0.6
			c0.5,0.1,1,0.4,1.5,0.7c1,0.7,2.1,1.5,3.2,2.3c3.7,2.5,7.3,5.1,11,7.6c4.1,2.7,8.2,5.2,10.5,6.6
			C603.2,527,607.6,529.9,611.9,532.8z"/>
		<path class="st0" d="M629,483.8l-9.5-3.5c-0.1,0-0.2,0-0.3,0l-0.6-0.2c-4.5-1.7-8.8-3.3-13.2-4.9c-4.9-1.7-10.7-4-15.5-5.9
			c-2.5-1-5.1-2.2-7.6-3.2c-0.8-0.3-1.9-0.9-2.3-1.1c-3.2-2-5.2-5.3-3.6-10c0.3-1.1,0.9-2.2,1.3-3.3l1.7-4.3l1.4-2.7l0.2-0.6
			c0.7-1.5,1.4-3.1,2.2-4.5c0.4-0.8,1-1.5,1.6-2.1c1.3-1.4,2.9-2.3,4.6-2.6l4.2-1.8c1.3-0.5,2.7-0.7,4.3-0.3
			c1.3,0.2,2.7,0.7,3.7,1.1c1.2,0.5,2.5,1.1,3.9,1.9c2.4,1.5,3.5,3.8,3.4,6.4c0,1-0.2,2.1-0.5,3.4l-0.7,3.6l0.2,0.1l6.8,2.5
			c1.3-1.5,2.8-2.5,4.6-2.7l4.2-1.8c1.4-0.5,3-0.7,4.7-0.3c1.3,0.2,2.3,0.6,3.2,1c1.5,0.6,3.3,1.3,4.7,2l0.9,0.4
			c3.3,1.3,5.2,4.5,4.4,8.6c0,0.6-0.3,1.1-0.5,1.6l-0.4,0.9l4.8,2c0.2-0.4,0.5-0.9,0.8-1.3c1.2-1.8,3.1-3.1,5.5-3.4l3.9-1.6
			c1.3-0.5,2.9-0.8,4.7-0.5l2.3,0.4c1,0.2,2.3,0.5,3.3,0.9l0.2-0.1c5.4,1.5,7.4,4.7,5.9,9.6c-0.5,1.4-1.1,2.7-1.7,3.9
			c-0.8,1.3-1.4,2.7-1.7,4.1c-0.8,2.7-1.5,5.3-1.8,7.7c-0.2,1.1-0.5,1.6-0.8,2.4l-0.3,0.8c-0.8,1.6-1.8,2.7-3.2,3.2l-4.2,1.8
			c-1.6,1.3-3.5,1.8-5.7,1.5c-0.7-0.1-2.6-0.6-3.5-1L629,483.8z M650.6,487.4c0.8,0.3,1.8,0.6,2.6,0.8c1.3,0.2,2.2-0.3,2.8-1.4
			c0.3-0.8,0.7-1.5,0.8-2.2c0.3-2.8,1.1-5.4,1.9-8.1c0.5-1.7,1.2-3.4,2.1-5c0.5-1,1-2,1.3-3.1c0.7-2.1-0.1-3.5-2.3-4.1
			c-0.2,0-0.5-0.1-0.6-0.1c-1.2-0.3-2.2-0.5-3.4-0.7c-0.8-0.2-1.6-0.4-2.4-0.5c-1.4-0.2-2.5,0.4-3.2,1.5c-0.6,0.8-1,1.6-1.2,2.6
			c-0.3,1.3-0.8,2.6-1.6,3.7c-0.8,1.2-1.8,1.7-3.2,1.3c-0.6-0.1-1.2-0.5-1.8-0.7l-7.3-3c-0.9-0.4-2-0.7-2.8-1.1
			c-1.4-0.6-1.9-1.5-1.6-3.1c0.1-0.7,0.4-1.5,0.6-2.2c0.1-0.5,0.4-0.9,0.5-1.4c0.5-2-0.3-3.5-1.8-4.1l-1.2-0.5
			c-1.5-0.7-3-1.3-4.5-1.9c-0.8-0.3-1.5-0.6-2.4-0.8c-1.7-0.4-3,0.2-3.8,1.9l-1.1,2.3c-0.2,0.5-0.5,1-0.8,1.4
			c-0.4,0.8-1.2,1.1-2.1,1.1l-1.6-0.4c-0.8-0.2-1.6-0.5-2.5-0.9c-3.1-1-6.1-2.2-9.2-3.3c-0.5-0.2-0.9-0.4-1.3-0.6
			c-0.9-0.6-1.5-1.4-1.6-2.5c0-0.5,0-1,0.2-1.6l0.8-4.1c0.2-0.8,0.3-1.6,0.3-2.5c0-1-0.5-2-1.4-2.6c-2-1.1-4-2-6.3-2.5
			c-1.2-0.3-2.2,0.2-2.9,1c-0.5,0.4-0.8,0.8-1.1,1.4c-0.8,1.6-1.6,3.3-2.4,5l-1.4,2.7c-0.9,2.3-2,4.6-2.8,7
			c-0.8,2.1,0.2,3.6,1.7,4.5c0.5,0.3,1.2,0.7,1.8,0.9c2.5,1.1,4.9,2.2,7.5,3.2c5.1,2,10.1,4.1,15.3,5.9c4.5,1.6,8.9,3.3,13.3,5
			c0.2,0.1,0.5,0.1,0.9,0.2l9.5,3.5L650.6,487.4z"/>
	</g>
	<g>
		<path class="st0" d="M119.6,375.1c0,0.5,0,1,0.1,1.5c0.1,3,0.2,5.9,0.3,8.9c0.1,1,0.1,2,0.2,3c0.2,1.8,1.2,2.6,3,2.4l1.3-0.2
			c0.7-0.2,1.2-0.4,1.9-0.5l4.2-1c2-0.5,2.7-1.4,2.7-3.5v-8.3c0.1-5.3,0.1-10.6-0.6-15.9c0-0.6-0.1-1.2,0-1.8c0.2-1,0.8-1.7,1.9-1.9
			c0.7-0.2,1.7,0.3,2.2,1.1c0.2,0.5,0.5,1,0.7,1.5l1.8,7c0.4,1.6,0.6,3.1,1,4.7c1.2,4,2.1,8.2,3,12.3c0.2,1.3,0.6,2.6,1.1,3.9
			c0.5,1.6,1.7,2.5,3.5,2.5c1.1,0,2.2,0,3.3-0.1c1-0.1,2.1-0.2,3.1-0.6c1.1-0.3,1.7-1.2,1.7-2.4c0-0.6-0.1-1.2-0.2-1.8l-0.8-4
			c-0.5-2.8-1-5.7-1.6-8.6l-1.8-7.8c-0.8-3.6-1.9-7-3.6-10.2c-0.2-0.2-0.3-0.6-0.4-0.9c-0.3-1-0.3-2.1,0.4-2.9
			c0.4-0.5,0.7-1,1.2-1.4c3.3-3.9,5-8.4,5.9-13.3c0.7-3.6,0.3-7.1-0.3-10.7c-0.6-3.1-1.7-6.1-3.6-8.8c-1.6-2.2-3.7-3.7-6.4-4.4
			c-3.5-0.9-6.9-1.2-10.5-1.1l-2.6,0.2l-4.2,0.6c-2.1,0.3-4,0.8-6,1.6c-2.1,0.8-3.3,2.3-3.2,4.6c0,1,0.1,2,0.1,3l0.4,16.5
			c0.1,4.6,0.2,9.3,0.4,13.9c0,0.7,0.1,1.5,0.1,2.3l0.6,11V375.1z M142.4,339.7c-0.4,2-1.6,3.5-3.4,4.4c-1.4,0.7-2.8,1.3-4.3,1.6
			c-1.8,0.3-2.7-0.3-3-2.1l-0.2-2.1c-0.3-4.2-0.7-8.4-1.3-12.6c-0.1-0.7-0.1-1.6-0.1-2.3c0.1-1,0.6-1.7,1.5-2.1
			c1.1-0.5,2.2-0.4,3.4-0.3c3.7,0.4,6.4,2.3,7.4,5.8c0.3,1.1,0.4,2.3,0.5,3.4c0.1,0.3,0.1,0.7,0.1,1.4
			C142.8,336.1,142.8,337.9,142.4,339.7z"/>
		<path class="st0" d="M166.8,385.4c0,0.8,0.1,1.7,0.2,2.5c0.2,1.2,1,1.8,2.1,1.9c0.7,0,1.5,0.1,2.1-0.1c2.5-0.7,5-0.9,7.5-1.2
			c1.7-0.2,3.3-0.2,5,0.1c1,0.1,2.1,0.2,3.1,0.1c2.1-0.2,3-1.3,2.7-3.4c-0.1-0.2-0.1-0.4-0.1-0.6c-0.2-1.1-0.3-2.1-0.6-3.1
			c-0.1-0.7-0.2-1.5-0.4-2.2c-0.3-1.2-1.2-2-2.4-2.2c-0.9-0.2-1.7-0.2-2.6-0.2c-1.2,0.2-2.5,0.2-3.7-0.1c-1.3-0.2-2.1-1-2.2-2.3
			c-0.1-0.6,0-1.2,0-1.8v-7.3c0-0.9-0.1-1.9,0-2.8c0.1-1.4,0.7-2.1,2.1-2.4c0.7-0.2,1.4-0.2,2.1-0.2c0.5-0.1,0.9,0,1.3-0.1
			c1.9-0.2,2.9-1.5,2.9-2.9v-1.2c0.1-1.5,0.1-3,0.1-4.5c0-0.7,0-1.5-0.2-2.3c-0.2-1.6-1.2-2.5-2.9-2.6l-2.3-0.2
			c-0.5,0-1-0.1-1.5-0.2c-0.8-0.1-1.3-0.7-1.7-1.4l-0.2-1.5c-0.1-0.7-0.1-1.6-0.1-2.4c-0.2-3-0.2-5.9-0.3-8.9c0-0.5,0-0.9,0.1-1.3
			c0.2-1,0.7-1.7,1.6-2.2c0.4-0.2,0.9-0.3,1.4-0.4l3.7-0.7c0.7-0.1,1.5-0.3,2.2-0.6c0.9-0.3,1.6-1.1,1.7-2.1c0.2-2.1,0.3-4.1,0-6.2
			c-0.2-1.1-0.9-1.8-1.9-2.1c-0.5-0.2-1-0.4-1.6-0.5c-1.7-0.2-3.4-0.2-5-0.3l-2.8-0.2c-2.3,0-4.6-0.2-6.9,0c-2.1,0.1-3,1.4-3.3,3
			c-0.1,0.6-0.2,1.2-0.2,1.9c-0.1,2.5-0.2,5-0.2,7.4c0,5,0,10,0.2,15c0.2,4.4,0.2,8.7,0.3,13.1c0,0.2,0.1,0.5,0.1,0.8l0.2,9.3
			L166.8,385.4z"/>
		<path class="st0" d="M234.7,366.4l-0.3-9.4l-0.4-5.7c-0.1-0.7-0.2-1.3-0.4-2c-0.3-1.5-1.4-2.3-2.9-2.5h-1
			c-1.3,0.1-2.6,0.2-3.8,0.3c-2.9,0.2-5.7,0.4-8.6,0.7c-0.2,0-0.5,0.2-0.7,0.2c-1.6,0.3-2.6,1.3-2.6,2.8c-0.1,2.2,0.1,4.5,0.1,6.8
			c0,0.2,0.1,0.3,0.2,0.5c0.4,1.6,1.5,2.5,3.1,2.6c1,0.1,1.9-0.1,2.8-0.1c0.6-0.1,1.1-0.2,1.7-0.2c0.9,0,1.5,0.5,1.9,1.4l0.2,0.7
			c0.2,3,0,5.9-0.9,8.7c-0.3,1.1-0.9,2.1-1.8,2.9c-1.4,1.5-3.7,1.7-5.5,0.6c-1.2-0.7-1.9-1.7-2.5-3c-0.6-1.3-0.8-2.7-1-4.2
			c-0.2-2.4-0.5-4.9-0.8-7.4c-0.2-2.4-0.6-4.8-0.5-7.2v-2.6c-0.2-4.6-0.1-9.3,0.4-13.9c0.2-1.6,0.2-6.5,0.7-8
			c0.5-1.2,1.2-2.5,2.2-3.4c1.5-1.3,3.9-1.4,5,0.8c0.4,0.7,0.7,1.6,1,2.4c0.7,2.5,1.2,8.6,1.2,11.2c0,0.5,0,1,0.2,1.5
			c0.3,1.1,1.1,1.6,2.1,1.6c0.3,0,0.7,0,1-0.1c1.7-0.3,3.2-0.7,4.8-1.2c2-0.5,2.7-1.3,2.9-3.3v-1.3c-0.1-2.1-0.1-4.3-0.2-6.4
			c-0.1-1.5-0.2-3-0.5-4.4c-0.7-3.6-2.1-6.6-4.9-9l-2.3-1.9c-4.4-3.3-9.2-3.7-14.4-2.5c-2.1,0.6-3.8,1.7-5.5,3c-2,1.5-3.3,3.4-4,5.7
			c-0.9,2.8-1.4,5.7-1.4,8.6V342c-0.2,3.4-0.2,6.7-0.2,10.1c0.2,4.7,0.4,9.4,0.7,14.2c0.1,2.8,0.1,5.7,0.6,8.5
			c0.4,2.2,0.8,4.5,1.7,6.5c1.7,4.5,5,7.4,9.4,8.9c1.7,0.6,3.6,0.8,5.5,0.8c1.7,0,3.2-0.3,4.7-0.7c6.3-1.7,10.3-5.6,12.2-11.8
			c0.7-2.4,0.9-4.9,0.9-7.4L234.7,366.4L234.7,366.4z"/>
		<path class="st0" d="M256.2,333.3l0.2-12.9c0-1.1,0-2.1-0.2-3.1c-0.2-1.8-1-2.8-3.1-3c-1.5-0.2-3-0.1-4.4,0.2
			c-1.1,0.2-1.8,0.8-2.2,1.8c-0.2,0.6-0.3,1.2-0.4,1.9c-0.2,2.6-0.2,5.3-0.3,7.9l-0.5,9.7c-0.2,2.5-0.3,5-0.4,7.4l-0.2,5.6L244,360
			l-0.2,10.2c-0.1,2.3,0,4.5,0,6.8v5c0,1.2-0.1,2.4,0.2,3.6c0.2,1.5,1.2,2.3,2.6,2.7c1.5,0.3,2.9,0.4,4.4,0.2c1.2,0,2.1-0.7,2.5-1.9
			c0.2-0.6,0.2-1.2,0.2-1.7c0-5,0.7-10,1.2-15l0.5-7.1l0.2-3.3l0.5-8.8c0.1-2.5,0-5,0-7.5l0.2-7.9V333.3z"/>
		<path class="st0" d="M297.9,363c-1.1-4.5-2.6-8.8-5.3-12.6l-2.7-3.9c-1.5-2-3-3.9-4.4-5.9c-0.9-1.2-1.7-2.6-2.2-4
			c-0.6-1.6-1-3.1-0.8-4.7c0-1.1,0.3-2.1,1.1-2.9c0.9-1.1,2.3-1.1,3.2,0.1c0.4,0.5,0.7,1.1,0.9,1.7c0.3,1.2,0.5,2.4,0.7,3.6
			c0.2,0.7,0.2,1.5,0.5,2.2c0.5,1.3,1.4,2.1,2.7,1.9c0.3,0,0.6,0.1,0.8,0c1.7-0.6,3.4-1.1,5-1.7c0.9-0.4,1.5-1.2,1.7-2.1
			c0.1-0.7,0.2-1.6,0.1-2.3c-0.2-2-0.5-4-0.8-6c-0.4-2.3-1.1-4.6-2.2-6.7c-1.4-2.6-3.5-4.3-6.3-5c-1.1-0.2-2.2-0.4-3.4-0.4
			c-3.5,0-6.8,0.7-10,2c-1.6,0.6-2.9,1.6-3.9,2.9l-2.2,3.1c-0.8,1.3-1.4,2.7-1.7,4.2c-0.2,0.9-0.4,1.8-0.5,2.8
			c-0.4,3.1-0.3,6.4,0.9,9.4l0.9,2.1c1.1,2.3,2.1,4.6,3.2,6.9c1.7,3.6,3.6,7,5.9,10.1c0.9,1.2,1.8,2.2,2.8,3.3
			c1.8,2.2,3.2,4.7,4.1,7.4c0.5,1.5,0.6,3.1,0.4,4.5c-0.2,1.9-1.1,3.5-2.6,4.6c-1.2,1-2.8,1-3.9,0.2c-0.7-0.5-1.5-1.2-2.1-1.8
			c-2-2.2-2.8-5-3.1-7.8c-0.1-1-0.2-1.9-0.3-2.8c-0.2-1.1-0.8-1.7-2-1.9c-0.5-0.1-1-0.1-1.5-0.1c-0.5,0-1.1,0.1-1.7,0.1
			c-3.4,0.2-4.5,1.9-4.4,4.7c0.1,1.9,0.2,3.8,0.5,5.6c0.2,1.5,0.4,3,0.8,4.4c1.5,4.8,4.4,8.3,9,10.3c1.5,0.6,3,1.2,4.5,1.7
			c1.2,0.3,2.6,0.7,3.8,0.7c3.6,0.2,6.9-1.1,9.6-3.5c2.5-2.2,4.1-5,4.8-8.3c0.5-2.6,0.7-5.3,0.7-8
			C298.7,368.3,298.5,365.6,297.9,363z M281,373.7l-0.3-0.3C280.8,373.6,280.8,373.7,281,373.7z"/>
		<path class="st0" d="M317.6,375.1c0,0.7,0,1.3-0.1,2c0,2.6-0.1,5.3,0.2,7.9c0.2,1.8,1.2,2.8,3,3.2c1.7,0.4,3.6,0.4,5.3,0.3
			c1.4-0.1,2.4-1.1,2.6-2.5c0.1-0.7,0.1-1.3,0.1-2c-0.1-2.5-0.2-5-0.2-7.4c0-1.2,0.1-2.6,0.1-3.8l0.2-11.1l0.3-6.6
			c0.2-2.2,0.3-4.5,0.4-6.9l0.2-7.9l0.2-8.9c0-0.6,0-1.1,0.1-1.7c0.2-1.2,0.9-2,2.1-2.1c1-0.2,2-0.2,3-0.2l2.5-0.2
			c1.2-0.2,1.9-0.9,2.1-2c0.2-0.4,0.2-0.8,0.2-1.2v-4.8c0-0.4-0.1-0.7-0.2-1.2c-0.2-1.2-1-2-2.2-2.1c-0.8-0.2-1.7-0.2-2.6-0.2
			l-14.9,0.2c-1.6,0.1-3.1,0-4.6-0.2c-1.4-0.2-2.9-0.2-4.3-0.2c-2.2,0.1-3.2,1-3.4,3.2c-0.2,1.5-0.2,3-0.2,4.5
			c0,0.7,0.1,1.3,0.2,1.9c0.2,1.3,1,2.1,2.2,2.4c1.2,0.3,2.4,0.2,3.6,0.2c0.7,0,1.5,0,2.1,0.1c1.1,0.2,1.7,0.8,1.9,1.8
			c0.2,0.5,0.2,1,0.2,1.5c0,1.2-0.1,2.4-0.1,3.6c-0.1,4.1-0.2,8.2-0.2,12.3c0,4.5,0.2,8.9,0.2,11.4
			C317.7,365.5,317.7,370.3,317.6,375.1z"/>
		<path class="st0" d="M350.3,375.1c0,0.5,0,1,0.1,1.5c0.1,3,0.2,5.9,0.3,8.9c0.1,1,0.1,2,0.2,3c0.2,1.8,1.2,2.6,3,2.4l1.3-0.2
			c0.7-0.2,1.2-0.4,1.9-0.5l4.2-1c2-0.5,2.7-1.4,2.7-3.5v-8.3c0.1-5.3,0.1-10.6-0.6-15.9c0-0.6-0.1-1.2,0-1.8c0.2-1,0.8-1.7,1.9-1.9
			c0.7-0.2,1.7,0.3,2.2,1.1c0.2,0.5,0.5,1,0.7,1.5l1.8,7c0.4,1.6,0.6,3.1,1,4.7c1.2,4,2.1,8.2,3,12.3c0.2,1.3,0.6,2.6,1.1,3.9
			c0.5,1.6,1.7,2.5,3.5,2.5c1.1,0,2.2,0,3.3-0.1c1-0.1,2.1-0.2,3.1-0.6c1.1-0.3,1.7-1.2,1.7-2.4c0-0.6-0.1-1.2-0.2-1.8l-0.8-4
			c-0.5-2.8-1-5.7-1.6-8.6l-1.8-7.8c-0.8-3.6-1.9-7-3.6-10.2c-0.2-0.2-0.3-0.6-0.4-0.9c-0.3-1-0.3-2.1,0.4-2.9
			c0.4-0.5,0.7-1,1.2-1.4c3.3-3.9,5-8.4,5.9-13.3c0.7-3.6,0.3-7.1-0.3-10.7c-0.6-3.1-1.7-6.1-3.6-8.8c-1.6-2.2-3.7-3.7-6.4-4.4
			c-3.5-0.9-6.9-1.2-10.5-1.1l-2.6,0.2l-4.2,0.6c-2.1,0.3-4,0.8-6,1.6c-2.1,0.8-3.3,2.3-3.2,4.6c0,1,0.1,2,0.1,3l0.4,16.5
			c0.1,4.6,0.2,9.3,0.4,13.9c0,0.7,0.1,1.5,0.1,2.3l0.6,11V375.1z M373.1,339.7c-0.4,2-1.6,3.5-3.4,4.4c-1.4,0.7-2.8,1.3-4.3,1.6
			c-1.8,0.3-2.7-0.3-3-2.1l-0.2-2.1c-0.3-4.2-0.7-8.4-1.3-12.6c-0.1-0.7-0.1-1.6-0.1-2.3c0.1-1,0.6-1.7,1.5-2.1
			c1.1-0.5,2.2-0.4,3.4-0.3c3.7,0.4,6.4,2.3,7.4,5.8c0.3,1.1,0.4,2.3,0.5,3.4c0.1,0.3,0.1,0.7,0.1,1.4
			C373.5,336.1,373.5,337.9,373.1,339.7z"/>
		<path class="st0" d="M421.4,360c0.6,0,1.1,0.2,1.7,0.2c0.9,0.2,1.5,0.9,1.7,1.7c0.2,0.4,0.2,0.7,0.3,1.2l0.3,3.5
			c0.2,2.6,0.5,5.2,0.8,7.8c0.2,2.7,0.6,5.4,0.9,8c0.2,1.5,0.3,2.9,0.6,4.3c0.2,1.5,1.3,2.2,2.7,2.6c1.7,0.3,3.4,0.3,5,0
			c1.3-0.2,2.3-1.1,2.6-2.5c0.2-0.9,0.2-1.8,0.1-2.8l-0.5-6.4c-0.2-4.5-0.5-9.2-0.7-13.7c-0.2-5.2-1.1-10.4-1.8-15.5
			c-0.7-4-1.3-7.8-1.9-11.7c-0.6-3.5-1.2-6.9-2.2-10.3c-0.6-1.9-1.1-3.8-1.6-5.7l-0.5-2.1c-0.4-1.6-1.4-2.6-3-2.9
			c-0.7-0.1-1.6-0.2-2.3-0.2l-3.3-0.2c-2.6-0.2-5.1-0.2-7.8,0.2c-1.4,0.2-2.8,0.4-4.2,0.7s-2.3,1.1-2.6,2.6
			c-0.2,0.6-0.2,1.2-0.2,1.8c-0.2,1.6-0.2,3.1-0.3,4.6c-0.2,1.7-0.5,3.2-0.7,4.9l-1.2,8.2c-0.7,4.3-1.5,8.6-2.1,12.9
			c-0.8,5.5-1.8,10.9-2.9,16.4c-1,5.3-2.2,10.6-2.9,15.9c-0.1,0.8-0.2,1.7-0.2,2.6c-0.1,1.9,0.6,2.8,2.4,3.2c2,0.4,4,0.3,5.9,0
			c1.3-0.2,2.2-1,2.6-2.2c0.3-0.7,0.5-1.6,0.7-2.4c0.7-3.4,1.3-6.9,2.1-10.3c0.7-2.8,1.3-5.7,1.7-8.6c0.1-1,0.3-2.1,0.5-3.1
			c0.2-1.3,1.1-2.1,2.3-2.2c0.7-0.2,1.4-0.2,2.1-0.2c0.9-0.1,1.7,0,2.6,0C419.4,360,420.3,359.9,421.4,360z M414.7,349.8
			c-1.5-0.2-2.1-1.3-2.1-2.6c0-0.4,0.2-0.8,0.2-1.2c0.3-3.1,0.7-6.3,1.1-9.4c0.2-2.1,0.6-4.2,1-6.4c0-0.3,0.2-0.7,0.3-1.1
			c0.7-1.2,2.1-1.6,3.2-0.7c0.7,0.5,1.1,1.3,1.2,2.2c0.3,1.2,0.5,2.6,0.7,3.9l1.9,11.2l0.2,2c0,1.5-0.7,2.2-2.1,2.3L414.7,349.8z"/>
		<path class="st0" d="M456.7,375.1c0,0.7,0,1.3-0.1,2c0,2.6-0.1,5.3,0.2,7.9c0.2,1.8,1.2,2.8,3,3.2c1.7,0.4,3.6,0.4,5.3,0.3
			c1.4-0.1,2.4-1.1,2.6-2.5c0.1-0.7,0.1-1.3,0.1-2c-0.1-2.5-0.2-5-0.2-7.4c0-1.2,0.1-2.6,0.1-3.8l0.2-11.1l0.3-6.6
			c0.2-2.2,0.3-4.5,0.4-6.9l0.2-7.9l0.2-8.9c0-0.6,0-1.1,0.1-1.7c0.2-1.2,0.9-2,2.1-2.1c1-0.2,2-0.2,3-0.2l2.5-0.2
			c1.2-0.2,1.9-0.9,2.1-2c0.2-0.4,0.2-0.8,0.2-1.2v-4.8c0-0.4-0.1-0.7-0.2-1.2c-0.2-1.2-1-2-2.2-2.1c-0.8-0.2-1.7-0.2-2.6-0.2
			l-14.9,0.2c-1.6,0.1-3.1,0-4.6-0.2c-1.4-0.2-2.9-0.2-4.3-0.2c-2.2,0.1-3.2,1-3.4,3.2c-0.2,1.5-0.2,3-0.2,4.5
			c0,0.7,0.1,1.3,0.2,1.9c0.2,1.3,1,2.1,2.2,2.4c1.2,0.3,2.4,0.2,3.6,0.2c0.7,0,1.5,0,2.1,0.1c1.1,0.2,1.7,0.8,1.9,1.8
			c0.2,0.5,0.2,1,0.2,1.5c0,1.2-0.1,2.4-0.1,3.6c-0.1,4.1-0.2,8.2-0.2,12.3c0,4.5,0.2,8.9,0.2,11.4
			C456.8,365.5,456.8,370.3,456.7,375.1z"/>
		<path class="st0" d="M499.9,333.3l0.2-12.9c0-1.1,0-2.1-0.2-3.1c-0.2-1.8-1-2.8-3.1-3c-1.5-0.2-3-0.1-4.4,0.2
			c-1.1,0.2-1.8,0.8-2.2,1.8c-0.2,0.6-0.3,1.2-0.4,1.9c-0.2,2.6-0.2,5.3-0.3,7.9l-0.5,9.7c-0.2,2.5-0.3,5-0.4,7.4l-0.2,5.6
			l-0.6,11.1l-0.2,10.2c-0.1,2.3,0,4.5,0,6.8v5c0,1.2-0.1,2.4,0.2,3.6c0.2,1.5,1.2,2.3,2.6,2.7c1.5,0.3,2.9,0.4,4.4,0.2
			c1.2,0,2.1-0.7,2.5-1.9c0.2-0.6,0.2-1.2,0.2-1.7c0-5,0.7-10,1.2-15l0.5-7.1l0.2-3.3l0.5-8.8c0.1-2.5,0-5,0-7.5l0.2-7.9V333.3z"/>
		<path class="st0" d="M547.7,355.2v-1.8l-0.2-13.4c-0.1-3.9-0.5-7.8-1.2-11.6c-0.7-3.6-2-6.9-4.3-9.7c-2.5-3-5.6-4.5-9.5-4.5
			c-1.5,0-3.1,0.2-4.6,0.2c-0.7,0-1.4,0-2.1,0.2c-2.4,0.4-4.7,1.2-6.9,2.1c-2.5,0.9-4.5,2.6-5.9,4.9c-2,3.3-3.2,6.9-3.4,10.7
			c0,0.9-0.1,1.8-0.2,2.7c-0.2,2.5-0.2,5,0,7.4c0.2,3.4,0.3,6.7,0.4,10.1c0.1,0.9-0.1,1.8-0.1,2.8c0.1,2.4,0.1,4.8,0.2,7.3
			c0.3,3.6,0.3,7.4,0.2,11c0,1.7,0.2,3.3,0.7,4.9c1,3.5,2.7,6.5,5.4,8.9c1.7,1.6,3.8,2.6,6.1,3.1c2,0.4,4,0.4,5.9,0.2
			c3.1-0.3,6.1-1.1,8.9-2.3c3.9-1.8,6.7-4.6,8.4-8.5c1.2-2.7,1.7-5.7,1.9-8.7c0.2-2.6,0.2-5.2,0.2-7.8
			C547.9,360.5,547.8,357.8,547.7,355.2L547.7,355.2z M535.3,364.1c-0.1,1.7-0.2,3.4-0.6,5c-0.3,1.8-1.1,3.4-2.3,4.6
			c-0.7,0.8-1.7,1.4-2.6,1.7c-2.1,0.6-4-0.1-5.4-2c-0.9-1.3-1.5-2.9-1.6-4.6c-0.2-2-0.2-4-0.3-6c-0.2-2.8-0.4-5.6-0.5-8.4
			c-0.2-4-0.3-8.2-0.2-12.2c0.1-1.6,0-3.2,0.1-4.8c0-1.7,0.2-3.5,0.6-5.2c0.4-1.6,1.2-2.9,2.3-4c1.2-1,2.6-1.5,4.1-1.5
			c1.8,0,3.2,0.9,4.1,2.6c0.6,1.1,0.8,2.3,1,3.5c0.6,3.6,1,7.2,1.1,10.8c0.1,3.1,0.2,6,0.4,9.1v2.6h-0.1
			C535.5,358.2,535.5,361.2,535.3,364.1z"/>
		<path class="st0" d="M588.9,358l-2.2-5.7c-1.1-3.2-2.1-6.5-3.3-9.8c-0.7-2.1-1.6-4-2.2-6.2c-1.4-4.3-2.7-8.6-4-12.9
			c-0.4-1.2-0.7-2.5-1.2-3.7c-0.7-1.7-1.8-2.6-3.6-3c-1.7-0.3-3.3-0.7-5-0.7h-5.8c-0.5,0-1,0.1-1.5,0.2c-1.2,0.2-1.9,0.9-2.1,2.1
			c-0.1,0.6-0.2,1.2-0.2,1.7c0,2,0,4,0.1,5.9c0,1.8,0.1,3.6,0.1,5.3c0,2.6-0.2,5.3-0.2,7.9c0,4.7,0.2,9.5,0.2,14.2c0,2,0,4,0.2,5.9
			l0.8,13c0.2,4.4,0.2,8.7,0.3,13.1c0.1,0.6,0,1.2,0.1,1.8c0.3,1.7,1.5,2.4,2.8,2.6c1.7,0.2,3.2,0.1,4.8-0.1c1.5-0.1,2.4-1,2.6-2.5
			c0.2-1,0.2-1.9,0.2-2.8c-0.2-4-0.4-7.8-0.4-11.7c-0.2-5-0.2-10-0.2-15c0-0.3,0-0.7-0.1-1c-0.2-3.3-0.2-6.7-0.2-10.1
			c0-1,0.2-2.1,0.4-3.1c0-0.3,0.2-0.7,0.7-0.7c0.5,0.3,0.7,0.8,0.9,1.3l0.9,2.3l2.1,5.5c1.3,2.9,2.4,5.9,3.4,8.9
			c0.3,1.2,0.7,2.3,1.2,3.5c2.5,6.8,5,13.5,6.9,20.4c0.2,0.6,0.5,1.2,0.7,1.7c0.6,1,1.4,1.6,2.6,1.7l1.7,0.2c1.8,0,3.7,0.1,5.5,0.1
			c1.1,0.1,2.1,0.1,3.1,0.1c1.2-0.1,2.1-0.7,2.5-1.9c0.2-0.6,0.3-1.2,0.3-1.9c0.1-4.6,0.1-9.2,0-13.9c-0.1-3.6-0.4-7.3-0.6-10.9
			c-0.1-4-0.2-7.8-0.3-11.8c-0.1-3.8-0.2-7.6-0.3-11.4c0-1-0.1-2-0.1-3l-0.7-9.1c-0.1-1.1-0.2-2.1-0.3-3.3c-0.2-1.7-1.1-2.8-2.9-3.3
			c-1.6-0.3-3.1-0.3-4.6-0.2c-1.2,0.1-2.1,1-2.4,2.1c-0.2,1.1-0.2,2.1-0.2,3.1c0.1,0.3,0.1,0.7,0.1,1.2c0.2,5.9,0.1,11.9,0.4,17.8
			c0.2,2.4,0.2,4.8,0.2,7.2c0,2.6,0.1,5.3,0.1,7.9c0,0.7,0,1.3-0.5,1.9C589.3,359,589.1,358.5,588.9,358z"/>
		<path class="st0" d="M250.7,439.2c0-1.7,0.2-3.3,0.7-5c0.6-2,1.7-3.6,3.5-4.6c1.5-0.9,3.1-0.8,4.5,0c1.5,0.8,2.5,2.1,2.9,3.8
			c0.3,1.5,0.5,3,0.7,4.5c0.2,1.5,0.2,3,0.4,4.4c0.3,2.4,1.5,3.4,3.8,3c1.4-0.2,2.7-0.4,4-0.7c1.7-0.3,2.6-1.2,2.8-2.9
			c0.2-1.2,0.1-2.3,0.1-3.5c-0.2-2.9-0.2-5.8-0.9-8.7c-0.6-2.7-1.2-5.4-2.3-7.9c-1.5-3.4-3.9-5.8-7.3-7.4c-1.5-0.7-3-0.9-4.6-0.8
			c-3,0.2-5.9,0.8-8.8,1.7c-2.9,0.7-5.5,2.2-7.6,4.4c-1.2,1.2-2,2.5-2.5,4c-0.5,1.6-0.7,3.2-0.9,4.9c-0.5,3.6-0.4,7.4-0.3,11
			c0,3.3,0.2,6.5,0.2,9.7c0,2,0.2,3.9,0.5,5.8c0.4,2.4,0.7,4.9,0.6,7.4c0,3.1,0.3,6,0.9,9c0.7,3.9,2.1,7.5,4.2,10.9
			c1.2,1.8,2.7,3.3,4.8,4.2c1.2,0.5,2.4,1,3.6,1.3c1.7,0.4,3.4,0.7,5.1,0.2l5.2-1.2c3.5-1,6.1-3.1,8.3-5.8c1.1-1.3,1.8-2.8,2.1-4.5
			c0.2-1.1,0.3-2.2,0.4-3.4c0.2-4-0.4-7.8-1.2-11.6c-0.2-0.6-0.3-1.2-0.6-1.7c-0.5-1.3-1.5-2.1-2.9-2.4c-1.3-0.2-2.7-0.2-4.1,0.1
			c-1.8,0.5-2.6,1.4-2.6,3.3c0,1,0.1,2,0.2,3c0.2,2.2,0.2,4.4-0.2,6.6c-0.2,1.2-0.6,2.4-1.4,3.5c-0.9,1.2-2.1,1.9-3.6,2
			c-2.5,0.1-4.8-1.3-5.8-3.6c-0.3-0.7-0.6-1.7-0.7-2.5c-0.2-1.9-0.4-3.7-0.6-5.6c-0.4-4.9-0.6-9.7-0.7-14.6L250.7,439.2z"/>
		<path class="st0" d="M296.9,416.9c0-0.7-0.1-1.2-0.3-1.8c-0.2-0.7-0.7-1.2-1.4-1.5c-0.5-0.2-1.1-0.3-1.6-0.3
			c-1.4-0.1-2.7,0.2-4.1,0.4l-0.6,0.2c-1.7,0.5-2.6,1.6-2.8,3.3c-0.2,1.8-0.2,3.6-0.3,5.5c-0.2,3.2-0.4,6.4-0.5,9.7
			c-0.1,2.4-0.2,4.8-0.2,7.1c-0.2,5.7-0.4,11.3-0.5,17c-0.1,1.7,0.1,3.5,0.1,5.3c-0.1,5.1,0.3,10.2,0.2,15.3
			c-0.1,2.5,0.1,4.9,0.2,7.3c0,0.5,0.1,1,0.2,1.5c0.2,1.1,0.9,1.7,1.9,2.1c0.7,0.2,1.4,0.3,2.1,0.3c1.3,0.1,2.6,0,3.8,0.1
			c1.7,0.2,3.5,0,5.1-0.1c2.7-0.3,5.5-0.7,8.3-0.7c0.7,0,1.3-0.1,1.9-0.3c1.2-0.3,1.7-1.1,1.8-2.2c0-1.8-0.4-3.6-1.1-5.2
			c-0.3-0.8-1.1-1.4-1.9-1.7c-0.8-0.2-1.7-0.3-2.6-0.2c-2,0.1-4,0.2-6.1,0.1c-1.7,0-2.6-1-2.9-2.7c-0.1-0.2-0.1-0.5-0.1-0.8
			c-0.1-3-0.2-6-0.2-9.1c0-4.6,0.1-9.3,0.2-14c0.1-4,0.3-7.8,0.6-11.7l0.5-7.4c0.2-2.2,0.2-4.5,0.3-7.4
			C297,422.6,297,419.7,296.9,416.9z"/>
		<path class="st0" d="M356.4,454.3v-1.8l-0.2-13.4c-0.1-3.9-0.5-7.8-1.2-11.6c-0.7-3.6-2-6.9-4.3-9.7c-2.5-3-5.6-4.5-9.5-4.5
			c-1.5,0-3.1,0.2-4.6,0.2c-0.7,0-1.4,0-2.1,0.2c-2.4,0.4-4.7,1.2-6.9,2.1c-2.5,0.9-4.5,2.6-5.9,4.9c-2,3.3-3.2,6.9-3.4,10.7
			c0,0.9-0.1,1.8-0.2,2.7c-0.2,2.5-0.2,5,0,7.4c0.2,3.4,0.3,6.7,0.4,10.1c0.1,0.9-0.1,1.8-0.1,2.8c0.1,2.4,0.1,4.8,0.2,7.3
			c0.3,3.6,0.3,7.4,0.2,11c0,1.7,0.2,3.3,0.7,4.9c1,3.5,2.7,6.5,5.4,8.9c1.7,1.6,3.8,2.6,6.1,3.1c2,0.4,4,0.4,5.9,0.2
			c3.1-0.3,6.1-1.1,8.9-2.3c3.9-1.8,6.7-4.6,8.4-8.5c1.2-2.7,1.7-5.7,1.9-8.7c0.2-2.6,0.2-5.2,0.2-7.8
			C356.6,459.6,356.5,456.9,356.4,454.3L356.4,454.3z M344,463.2c-0.1,1.7-0.2,3.4-0.6,5c-0.3,1.8-1.1,3.4-2.3,4.6
			c-0.7,0.8-1.7,1.4-2.6,1.7c-2.1,0.6-4-0.1-5.4-2c-0.9-1.3-1.5-2.9-1.6-4.6c-0.2-2-0.2-4-0.3-6c-0.2-2.8-0.4-5.6-0.5-8.4
			c-0.2-4-0.3-8.2-0.2-12.2c0.1-1.6,0-3.2,0.1-4.8c0-1.7,0.2-3.5,0.6-5.2c0.4-1.6,1.2-2.9,2.3-4c1.2-1,2.6-1.5,4.1-1.5
			c1.8,0,3.2,0.9,4.1,2.6c0.6,1.1,0.8,2.3,1,3.5c0.6,3.6,1,7.2,1.1,10.8c0.1,3.1,0.2,6,0.4,9.1v2.6h-0.1
			C344.2,457.3,344.2,460.3,344,463.2z"/>
		<path class="st0" d="M398.5,462.1c-1.1-4.5-2.6-8.8-5.3-12.6l-2.7-3.9c-1.5-2-3-3.9-4.4-5.9c-0.9-1.2-1.7-2.6-2.2-4
			c-0.6-1.6-1-3.1-0.8-4.7c0-1.1,0.3-2.1,1.1-2.9c0.9-1.1,2.3-1.1,3.2,0.1c0.4,0.5,0.7,1.1,0.9,1.7c0.3,1.2,0.5,2.4,0.7,3.6
			c0.2,0.7,0.2,1.5,0.5,2.2c0.5,1.3,1.4,2.1,2.7,1.9c0.3,0,0.6,0.1,0.8,0c1.7-0.6,3.4-1.1,5-1.7c0.9-0.4,1.5-1.2,1.7-2.1
			c0.1-0.7,0.2-1.6,0.1-2.3c-0.2-2-0.5-4-0.8-6c-0.4-2.3-1.1-4.6-2.2-6.7c-1.4-2.6-3.5-4.3-6.3-5c-1.1-0.2-2.2-0.4-3.4-0.4
			c-3.5,0-6.8,0.7-10,2c-1.6,0.6-2.9,1.6-3.9,2.9l-2.2,3.1c-0.8,1.3-1.4,2.7-1.7,4.2c-0.2,0.9-0.4,1.8-0.5,2.8
			c-0.4,3.1-0.3,6.4,0.9,9.4l0.9,2.1c1.1,2.3,2.1,4.6,3.2,6.9c1.7,3.6,3.6,7,5.9,10.1c0.9,1.2,1.8,2.2,2.8,3.3
			c1.8,2.2,3.2,4.7,4.1,7.4c0.5,1.5,0.6,3.1,0.4,4.5c-0.2,1.9-1.1,3.5-2.6,4.6c-1.2,1-2.8,1-3.9,0.2c-0.7-0.5-1.5-1.2-2.1-1.8
			c-2-2.2-2.8-5-3.1-7.8c-0.1-1-0.2-1.9-0.3-2.8c-0.2-1.1-0.8-1.7-2-1.9c-0.5-0.1-1-0.1-1.5-0.1c-0.5,0-1.1,0.1-1.7,0.1
			c-3.4,0.2-4.5,1.9-4.4,4.7c0.1,1.9,0.2,3.8,0.5,5.6c0.2,1.5,0.4,3,0.8,4.4c1.5,4.8,4.4,8.3,9,10.3c1.5,0.6,3,1.2,4.5,1.7
			c1.2,0.3,2.6,0.7,3.8,0.7c3.6,0.2,6.9-1.1,9.6-3.5c2.5-2.2,4.1-5,4.8-8.3c0.5-2.6,0.7-5.3,0.7-8
			C399.3,467.4,399.1,464.8,398.5,462.1z M381.6,472.9l-0.3-0.3C381.4,472.7,381.4,472.8,381.6,472.9z"/>
		<path class="st0" d="M410.5,484.5c0,0.8,0.1,1.7,0.2,2.5c0.2,1.2,1,1.8,2.1,1.9c0.7,0,1.5,0.1,2.1-0.1c2.5-0.7,5-0.9,7.5-1.2
			c1.7-0.2,3.3-0.2,5,0.1c1,0.1,2.1,0.2,3.1,0.1c2.1-0.2,3-1.3,2.7-3.4c-0.1-0.2-0.1-0.4-0.1-0.6c-0.2-1.1-0.3-2.1-0.6-3.1
			c-0.1-0.7-0.2-1.5-0.4-2.2c-0.3-1.2-1.2-2-2.4-2.2c-0.9-0.2-1.7-0.2-2.6-0.2c-1.2,0.2-2.5,0.2-3.7-0.1c-1.3-0.2-2.1-1-2.2-2.3
			c-0.1-0.6,0-1.2,0-1.8v-7.3c0-0.9-0.1-1.9,0-2.8c0.1-1.4,0.7-2.1,2.1-2.4c0.7-0.2,1.4-0.2,2.1-0.2c0.5-0.1,0.9,0,1.3-0.1
			c1.9-0.2,2.9-1.5,2.9-2.9V455c0.1-1.5,0.1-3,0.1-4.5c0-0.7,0-1.5-0.2-2.3c-0.2-1.6-1.2-2.5-2.9-2.6l-2.3-0.2c-0.5,0-1-0.1-1.5-0.2
			c-0.8-0.1-1.3-0.7-1.7-1.4l-0.2-1.5c-0.1-0.7-0.1-1.6-0.1-2.4c-0.2-3-0.2-5.9-0.3-8.9c0-0.5,0-0.9,0.1-1.3c0.2-1,0.7-1.7,1.6-2.2
			c0.4-0.2,0.9-0.3,1.4-0.4l3.7-0.7c0.7-0.1,1.5-0.3,2.2-0.6c0.9-0.3,1.6-1.1,1.7-2.1c0.2-2.1,0.3-4.1,0-6.2
			c-0.2-1.1-0.9-1.8-1.9-2.1c-0.5-0.2-1-0.4-1.6-0.5c-1.7-0.2-3.4-0.2-5-0.3l-2.8-0.2c-2.3,0-4.6-0.2-6.9,0c-2.1,0.1-3,1.4-3.3,3
			c-0.1,0.6-0.2,1.2-0.2,1.9c-0.1,2.5-0.2,5-0.2,7.4c0,5,0,10,0.2,15c0.2,4.4,0.2,8.7,0.3,13.1c0,0.2,0.1,0.5,0.1,0.8l0.2,9.3
			L410.5,484.5z"/>
		<path class="st0" d="M481.2,440.6c-0.1-3.5-0.3-6.9-1-10.3c-0.6-3.1-1.5-6-3-8.8c-0.7-1.2-1.3-2.2-2.3-3.1c-4.1-4-9.1-6-14.8-6.4
			l-5.8-0.2c-0.7,0-1.4-0.1-2.1-0.1c-2.3-0.2-4.5,0.1-6.7,0.7c-1.6,0.5-2.3,1.4-2.3,3.1c0,1.8-0.1,3.7-0.1,5.6V433
			c0,1.5-0.2,3.1-0.2,4.5c0,4.1,0.1,8.3,0.2,12.4l0.3,12.4l0.2,6.1c0,2.5,0.2,5,0.2,7.4v6.8c0,1.5,0.4,2.9,1,4.3
			c0.5,1.2,1.3,2.1,2.7,2.4c0.5,0.2,1.1,0.2,1.6,0.3c2.8,0.2,5.6,0.1,8.4,0c2.9-0.1,5.7-0.5,8.5-1.1c2.2-0.4,4.3-1.2,6.1-2.7
			c2.6-2.3,4.8-5.1,6-8.5c0.9-2.5,1.4-5.1,1.7-7.7l0.7-8.8c0.5-5,0.7-9.8,0.6-14.8C481.2,444.3,481.3,442.5,481.2,440.6z
			 M468.7,465.1c-0.1,1.6-0.4,3.1-0.9,4.5c-0.6,1.5-1.6,2.6-2.8,3.6c-1.9,1.4-4,2.1-6.3,2.4h-0.3c-1.7,0.1-2.6-0.7-2.9-2.5
			c-0.1-1.2-0.2-2.2-0.2-3.4c-0.2-3.8-0.3-7.6-0.5-11.4l-0.5-10.2c-0.1-2,0-4-0.1-5.9l-0.6-7.5l-0.4-8.1c0-0.5,0.1-1.1,0.2-1.7
			c0.3-1.2,1.1-1.8,2.3-2.1c2.4-0.5,5.7,0.7,7.2,3.3c0.8,1.6,1.5,3.3,1.9,5c0.3,1.4,0.6,2.8,0.8,4.2c0.5,2.6,1.1,5.3,1.7,7.9
			c0.4,2.1,0.7,4.3,0.8,6.5c0.2,1.3,0.3,2.6,0.4,4l0.3,6.9h-0.1V465.1z"/>
	</g>
</g>
</svg>
